<svg width="44" height="44" viewBox="0 0 44 44" fill="none" xmlns="http://www.w3.org/2000/svg"><path d="M22 2C10.955 2 2 10.955 2 22s8.955 20 20 20 20-8.955 20-20S33.045 2 22 2zm1.595 29.748a1.993 1.993 0 01-3.19 0c-2.346-3.134-6.452-9.073-6.452-12.248a8.047 8.047 0 1116.094 0c0 3.175-4.106 9.114-6.452 12.248z" fill="#C42539"/><path d="M22 21.292a2.74 2.74 0 100-5.478 2.74 2.74 0 000 5.478z" fill="#C42539"/><path fill-rule="evenodd" clip-rule="evenodd" d="M23.595 31.748a1.993 1.993 0 01-3.19 0c-2.346-3.134-6.452-9.073-6.452-12.248a8.047 8.047 0 1116.094 0c0 3.175-4.106 9.114-6.452 12.248zM22 21.292a2.74 2.74 0 100-5.478 2.74 2.74 0 000 5.478z" fill="#fff"/><path d="M22 1c11.598 0 21 9.402 21 21s-9.402 21-21 21S1 33.598 1 22 10.402 1 22 1z" stroke="#fff" stroke-width="2"/></svg>