<svg width="64" height="64" viewBox="0 0 64 64" fill="none" xmlns="http://www.w3.org/2000/svg">
<path d="M1.47464 10.4436L2.77403 19.3163C2.82252 19.6751 3.01645 19.9854 3.30736 20.2085C3.59827 20.4218 3.94736 20.5188 4.30615 20.4606L10.4831 19.5588C10.5219 19.5588 10.5607 19.5588 10.5898 19.5781L13.3534 21.0521C13.5474 21.1588 13.7704 21.2072 13.9934 21.2072C14.3218 21.2106 14.6398 21.0928 14.8867 20.8763C15.1336 20.6598 15.292 20.3599 15.3316 20.0339L15.4771 18.9575C15.4813 18.9178 15.499 18.8808 15.5272 18.8525C15.5554 18.8243 15.5925 18.8066 15.6322 18.8024L17.0383 18.5988C17.7752 18.4921 18.2892 17.8036 18.1825 17.0666L16.8831 8.1939C16.8346 7.83512 16.6407 7.52481 16.3498 7.31148C16.0589 7.09815 15.7001 7.00118 15.351 7.05936L2.60918 8.91148C2.26009 8.96966 1.94009 9.1539 1.72676 9.44481C1.51342 9.73572 1.41645 10.0945 1.47464 10.4436ZM2.66736 10.143C2.68676 10.1236 2.72555 10.0848 2.78373 10.0751L15.5062 8.2133C15.6031 8.2036 15.7001 8.27148 15.7098 8.36845L17.0092 17.2412C17.0189 17.3381 16.951 17.4351 16.854 17.4448L15.448 17.6485C15.1569 17.6921 14.8879 17.8293 14.6815 18.0391C14.4751 18.249 14.3425 18.5203 14.3037 18.8121L14.1583 19.8885C14.1486 19.966 14.0904 20.0048 14.0613 20.0242C14.0322 20.0436 13.9643 20.063 13.8965 20.0242L11.1328 18.5503C10.9389 18.4436 10.7158 18.3951 10.5025 18.3951C10.4346 18.3951 10.3668 18.3951 10.3086 18.4048L4.13161 19.3066C4.07342 19.3163 4.02494 19.2969 3.99585 19.2775C3.96676 19.2581 3.93767 19.2194 3.92797 19.1612L2.62858 10.2788C2.61888 10.2206 2.64797 10.1721 2.66736 10.143Z" fill="#161A1F"/>
<path d="M14.3624 14.0121L5.22781 15.3503C5.08327 15.374 4.95285 15.451 4.86227 15.5661C4.77169 15.6812 4.72752 15.826 4.73847 15.9721C4.74943 16.1181 4.81471 16.2548 4.92144 16.3551C5.02818 16.4554 5.16862 16.5121 5.31508 16.5139C5.34417 16.5139 5.37326 16.5139 5.40235 16.5042L14.5369 15.166C14.8569 15.1176 15.0799 14.8266 15.0314 14.5066C14.983 14.1866 14.6824 13.9636 14.3624 14.0121ZM5.18902 13.4303C5.21811 13.4303 5.2472 13.4303 5.27629 13.4206L14.4108 12.0824C14.7308 12.0339 14.9539 11.743 14.9054 11.423C14.8569 11.103 14.5563 10.88 14.246 10.9285L5.11144 12.2666C4.78175 12.3151 4.56841 12.606 4.6072 12.926C4.65569 13.217 4.90781 13.4303 5.18902 13.4303ZM46.9733 16.7854L48.3793 16.9891C48.4569 16.9988 48.5248 17.0666 48.5345 17.1442L48.6799 18.2206C48.7381 18.657 49.0096 19.0448 49.3975 19.2485C49.5935 19.3464 49.8099 19.3966 50.029 19.3949C50.2481 19.3932 50.4637 19.3397 50.6581 19.2388L53.4217 17.7648C53.4605 17.7454 53.4993 17.7357 53.5381 17.7454L59.7151 18.6473C60.0739 18.6957 60.423 18.6085 60.7139 18.3951C61.0048 18.1818 61.189 17.8618 61.2472 17.503L62.5466 8.63028C62.5951 8.2715 62.5078 7.92241 62.2945 7.6315C62.0811 7.34059 61.7611 7.15635 61.4024 7.09816L48.6702 5.23635C47.9333 5.12968 47.2448 5.64362 47.1381 6.38059L45.8387 15.2533C45.7886 15.6065 45.8795 15.9653 46.0918 16.252C46.3041 16.5388 46.6208 16.7304 46.9733 16.7854ZM48.292 6.54544C48.3017 6.47756 48.3405 6.44847 48.3599 6.42907C48.3793 6.40968 48.4181 6.39029 48.4666 6.39029H48.4957L61.2181 8.2521C61.2763 8.2618 61.3151 8.29089 61.3345 8.31998C61.3539 8.34907 61.3733 8.38786 61.3636 8.45574L60.0642 17.3285C60.0448 17.4254 59.9672 17.4933 59.8605 17.4836L53.6836 16.5818C53.3927 16.5333 53.1114 16.5915 52.8496 16.7273L50.086 18.2012C50.0181 18.24 49.9502 18.2206 49.9211 18.2012C49.892 18.1818 49.8339 18.143 49.8242 18.0654L49.6787 16.9891C49.6384 16.6979 49.5054 16.4274 49.2992 16.2178C49.0931 16.0082 48.825 15.8706 48.5345 15.8254L47.1284 15.6218C47.0605 15.6121 47.0314 15.5733 47.0121 15.5539C46.9983 15.5344 46.9887 15.5123 46.9837 15.489C46.9787 15.4657 46.9784 15.4416 46.983 15.4182L48.292 6.54544Z" fill="#161A1F"/>
<path d="M10.6096 49.5709C10.308 49.3288 9.9441 49.1767 9.55987 49.1321C9.17563 49.0875 8.78661 49.1522 8.4375 49.3188C8.08817 49.4858 7.7934 49.7484 7.58742 50.0763C7.38144 50.4041 7.27271 50.7837 7.27387 51.1709V56.4363C7.27387 57.2315 7.71993 57.9394 8.4375 58.2885C8.72841 58.4242 9.02902 58.4921 9.32963 58.4921C9.78538 58.4921 10.2314 58.337 10.6096 58.0363L13.8969 55.4085C14.1365 55.2163 14.3299 54.9728 14.4629 54.6958C14.5958 54.4189 14.6648 54.1156 14.6648 53.8085C14.6648 53.5013 14.5958 53.198 14.4629 52.9211C14.3299 52.6442 14.1365 52.4006 13.8969 52.2085L10.6096 49.5709ZM13.1696 54.497L9.88235 57.1248C9.61084 57.3382 9.26175 57.3867 8.95144 57.2315C8.64114 57.0763 8.4472 56.7854 8.4472 56.4363V51.1709C8.4472 50.8218 8.63144 50.5212 8.95144 50.3757C9.0775 50.3176 9.20357 50.2885 9.33932 50.2885C9.53326 50.2885 9.7272 50.3563 9.88235 50.4824L13.1696 53.1103C13.383 53.2751 13.4993 53.5273 13.4993 53.7988C13.4993 54.0703 13.383 54.3224 13.1696 54.497ZM60.3163 37.4885H51.143C51.1792 36.6732 50.9015 35.875 50.3672 35.2582C50.0862 34.9308 49.7422 34.6634 49.3557 34.4718C48.9692 34.2803 48.5481 34.1684 48.1175 34.143V33.4254C48.1175 29.7503 45.1211 26.7539 41.446 26.7539H36.4036V25.086C38.1102 23.5733 39.3999 21.3333 39.9914 19.1612C40.7672 17.503 43.686 10.686 40.9708 8.20362C40.6024 7.86422 40.3114 7.53453 40.0981 7.18544C39.2254 5.80847 36.4424 2.61816 29.3345 2.61816H29.1502C27.8314 2.62786 26.5514 3.19029 25.6399 4.15998C24.8157 5.04241 24.3599 6.15756 24.3405 7.34059C23.7296 7.57332 22.7017 8.14544 22.0908 9.44483C21.0048 11.7624 21.7417 15.2436 24.2727 19.7915C24.903 21.7115 26.086 23.6994 27.6569 25.086V26.7248H22.6242C18.949 26.7248 15.9527 29.7212 15.9527 33.3963V34.1042H15.8072C14.8666 34.1042 13.9745 34.5115 13.3539 35.2291C12.743 35.9467 12.4714 36.8873 12.6072 37.8279L13.4217 43.1418C13.4702 43.4327 13.7127 43.6363 14.0036 43.6363C14.0327 43.6363 14.0617 43.6363 14.0908 43.6267C14.4108 43.5782 14.6339 43.2776 14.5757 42.9576L13.7611 37.6436C13.6739 37.0424 13.8387 36.4412 14.2363 35.9854C14.6242 35.5297 15.1963 35.2679 15.7975 35.2679H47.9236C48.5248 35.2679 49.0969 35.5297 49.4848 35.9854C49.8339 36.3927 49.9987 36.926 49.9599 37.4594H46.023C45.4314 37.4594 44.8642 37.6944 44.4459 38.1126C44.0276 38.5309 43.7927 39.0982 43.7927 39.6897V50.1818C43.7927 50.8897 44.1127 51.5297 44.6751 51.9563C44.6848 51.966 44.6945 51.966 44.6945 51.9757L44.7042 51.9854H44.7139C45.092 52.2667 45.5381 52.4121 46.0133 52.4121H47.6811L47.0702 56.3685H22.7405C22.4205 56.3685 22.1587 56.6303 22.1587 56.9503C22.1587 57.2703 22.4205 57.5321 22.7405 57.5321H47.4193C48.1466 57.5321 48.7381 58.1236 48.7381 58.8509C48.7381 59.2 48.6024 59.5394 48.3502 59.7818C48.0981 60.0339 47.7684 60.1697 47.4193 60.1697H22.1102C21.7902 60.1697 21.5284 60.4315 21.5284 60.7515C21.5284 61.0715 21.7902 61.3333 22.1102 61.3333H47.4193C48.0884 61.3333 48.709 61.0715 49.1842 60.606C49.6593 60.1406 49.9114 59.5103 49.9114 58.8412C49.9114 57.7648 49.2133 56.8533 48.2533 56.5042L48.8836 52.3927H60.326C60.9369 52.3927 61.5284 52.1406 61.9454 51.6945C62.3333 51.2776 62.5563 50.7345 62.5563 50.1624V39.7188C62.5525 39.1268 62.3149 38.5602 61.8954 38.1425C61.4759 37.7248 60.9083 37.4897 60.3163 37.4885ZM23.1381 9.97816C23.7587 8.62059 24.9902 8.36847 25.0387 8.35877C25.1808 8.33278 25.3082 8.25485 25.396 8.14014C25.4838 8.02542 25.5259 7.88214 25.5139 7.73816L25.5042 7.65089C25.446 6.6618 25.7951 5.7018 26.4836 4.96483C27.172 4.22786 28.1417 3.80119 29.1502 3.7915H29.3345C35.8605 3.7915 38.343 6.59392 39.109 7.81574C39.3902 8.2521 39.7393 8.66907 40.1854 9.07635C41.7272 10.4824 40.612 14.5163 39.5648 17.2024L38.7211 12.5673C38.6242 12.0533 38.2751 11.6266 37.7999 11.4133C37.3248 11.2 36.7624 11.2291 36.3163 11.5006C33.0581 13.44 29.2569 12.2279 27.2787 11.326C26.7357 11.0739 26.1054 11.1127 25.5914 11.423C25.0775 11.7333 24.7478 12.2763 24.7187 12.8776L24.4666 17.6582C22.4302 13.4691 22.5854 11.1903 23.1381 9.97816ZM25.5139 19.84L25.8824 12.9454C25.892 12.7321 26.0084 12.5382 26.1927 12.4315C26.3769 12.3248 26.5902 12.3054 26.7842 12.3927C28.966 13.3915 33.1842 14.7297 36.9078 12.5091C36.9682 12.4714 37.0368 12.449 37.1078 12.444C37.1788 12.4389 37.25 12.4513 37.3151 12.48C37.3927 12.5091 37.5187 12.5963 37.5575 12.7806L38.7405 19.2582C38.1393 21.1976 36.9563 23.1466 35.4436 24.3976C35.4242 24.4073 35.4145 24.4266 35.3951 24.4363C34.3963 25.2509 33.2424 25.7551 32.0205 25.7551C29.1502 25.7648 26.629 22.846 25.5139 19.84ZM32.0302 26.9382C33.1745 26.9382 34.2605 26.5697 35.2399 25.9685V27.1127L32.0302 30.5357L28.8205 27.1127V25.9879C29.7902 26.5794 30.8763 26.9382 32.0302 26.9382ZM17.1163 33.4254C17.1163 30.3903 19.5793 27.9273 22.6145 27.9273H27.9866L31.6133 31.7866C31.7199 31.903 31.8751 31.9709 32.0399 31.9709C32.2048 31.9709 32.3599 31.903 32.4666 31.7866L36.0933 27.9273H41.4654C44.5005 27.9273 46.9636 30.3903 46.9636 33.4254V34.1333H17.1163V33.4254ZM44.9757 39.7188C44.9757 39.137 45.4508 38.6618 46.0327 38.6618H60.3163C60.8981 38.6618 61.3733 39.137 61.3733 39.7188V50.0751L58.9102 46.3612C58.745 46.1112 58.5203 45.906 58.2563 45.764C57.9923 45.6221 57.6972 45.5478 57.3975 45.5478C57.0978 45.5478 56.8027 45.6221 56.5387 45.764C56.2747 45.906 56.0501 46.1112 55.8848 46.3612L54.1587 48.96L51.6181 45.12C51.2787 44.6157 50.7163 44.3054 50.1054 44.3054C49.4945 44.3054 48.932 44.606 48.5927 45.12L45.0242 50.5018C44.9964 50.4107 44.9833 50.3158 44.9854 50.2206V39.7188H44.9757ZM45.9163 51.2582L49.5624 45.76C49.6884 45.5757 49.8824 45.4691 50.0957 45.4691C50.3187 45.4691 50.5127 45.5757 50.629 45.76L53.6545 50.3176C53.6642 50.3273 53.6642 50.337 53.6739 50.3466L54.2848 51.2679H46.023C45.9939 51.2679 45.9551 51.2582 45.9163 51.2582ZM55.6908 51.2679L54.8569 50.0073L56.8545 46.9915C56.9805 46.8073 57.1745 46.7006 57.3975 46.7006C57.6205 46.7006 57.8145 46.8073 57.9308 46.9915L60.7139 51.1806C60.5878 51.2291 60.4617 51.2582 60.326 51.2582H55.6908V51.2679Z" fill="#161A1F"/>
<path d="M52.3836 15.5441C52.4902 15.6508 52.6357 15.709 52.7908 15.709C52.8296 15.709 52.8684 15.709 52.9072 15.6993C53.7314 15.5247 57.8721 14.5647 58.4636 12.5381C58.9096 10.9768 58.0078 9.33806 56.4466 8.892C55.826 8.70775 55.1666 8.74654 54.5654 8.97927C54.2385 8.53726 53.7945 8.1956 53.2835 7.99296C52.7725 7.79032 52.2149 7.73481 51.674 7.8327C51.1331 7.93059 50.6303 8.17798 50.2228 8.54686C49.8152 8.91574 49.519 9.39136 49.3678 9.91987C48.786 11.9465 51.7824 14.9623 52.3836 15.5441ZM50.4927 10.2399C50.7157 9.46412 51.4236 8.95987 52.1993 8.95987C52.3642 8.95987 52.529 8.97927 52.6939 9.02775C53.1884 9.17321 53.5957 9.5223 53.809 9.98775C53.8769 10.1429 54.0127 10.2593 54.1775 10.3078C54.3424 10.3562 54.5169 10.3271 54.6623 10.2399C55.0987 9.95866 55.632 9.88109 56.1266 10.0168C57.0672 10.2884 57.6102 11.2775 57.3387 12.2181C57.0672 13.1684 54.7205 14.0799 52.9751 14.4968C51.7145 13.2071 50.2211 11.1805 50.4927 10.2399ZM37.2466 45.8471C37.2466 42.8799 34.832 40.4556 31.8551 40.4556C28.8781 40.4556 26.4636 42.8702 26.4636 45.8471C26.4636 48.8144 28.8781 51.2387 31.8551 51.2387C34.832 51.2387 37.2466 48.8144 37.2466 45.8471ZM27.6369 45.8471C27.6369 43.5199 29.5278 41.629 31.8551 41.629C34.1824 41.629 36.0733 43.5199 36.0733 45.8471C36.0733 48.1744 34.1824 50.0653 31.8551 50.0653C29.5278 50.0653 27.6369 48.1744 27.6369 45.8471ZM29.4793 17.435C29.7993 17.435 30.0611 17.1732 30.0611 16.8532C30.0611 16.5332 29.7993 16.2714 29.4793 16.2714H28.3933C28.0733 16.2714 27.8114 16.5332 27.8114 16.8532C27.8114 17.1732 28.0733 17.435 28.3933 17.435H29.4793ZM34.5896 17.435H35.6757C35.9957 17.435 36.2575 17.1732 36.2575 16.8532C36.2575 16.5332 35.9957 16.2714 35.6757 16.2714H34.5896C34.2696 16.2714 34.0078 16.5332 34.0078 16.8532C34.0078 17.1732 34.2599 17.435 34.5896 17.435ZM28.9557 20.315C28.8102 20.6059 28.9266 20.955 29.2078 21.1005C30.1484 21.5756 31.089 21.8181 32.0296 21.8181C32.9702 21.8181 33.9108 21.5756 34.8514 21.1005C34.9197 21.0656 34.9804 21.0176 35.0301 20.9592C35.0797 20.9008 35.1173 20.8331 35.1408 20.7602C35.1642 20.6872 35.173 20.6103 35.1666 20.5339C35.1602 20.4575 35.1388 20.3831 35.1036 20.315C35.0689 20.2466 35.021 20.1857 34.9626 20.1359C34.9042 20.0861 34.8366 20.0484 34.7635 20.0249C34.6904 20.0015 34.6134 19.9928 34.537 19.9993C34.4605 20.0058 34.3861 20.0274 34.3181 20.0629C32.7763 20.8484 31.283 20.8484 29.7411 20.0629C29.6033 19.9933 29.4437 19.9808 29.2967 20.028C29.1498 20.0752 29.0273 20.1783 28.9557 20.315ZM16.1848 46.235H4.84902C2.9775 46.235 1.45508 47.7575 1.45508 49.629V57.9781C1.45508 59.8496 2.9775 61.372 4.84902 61.372H16.1848C18.0563 61.372 19.5787 59.8496 19.5787 57.9781V49.629C19.5787 47.7575 18.0563 46.235 16.1848 46.235ZM18.4151 57.9781C18.4151 59.1999 17.4163 60.1987 16.1945 60.1987H4.84902C3.6272 60.1987 2.62841 59.1999 2.62841 57.9781V49.629C2.62841 48.4072 3.6272 47.4084 4.84902 47.4084H16.1848C17.4066 47.4084 18.4054 48.4072 18.4054 49.629V57.9781H18.4151Z" fill="#C42539"/>
<path d="M54.0514 45.1878C54.7407 45.1878 55.4017 44.914 55.8891 44.4266C56.3764 43.9392 56.6502 43.2782 56.6502 42.589C56.6502 41.8997 56.3764 41.2387 55.8891 40.7513C55.4017 40.264 54.7407 39.9902 54.0514 39.9902C53.3622 39.9902 52.7012 40.264 52.2138 40.7513C51.7265 41.2387 51.4527 41.8997 51.4527 42.589C51.4527 43.2782 51.7265 43.9392 52.2138 44.4266C52.7012 44.914 53.3622 45.1878 54.0514 45.1878ZM54.0514 41.1538C54.8369 41.1538 55.4866 41.7938 55.4866 42.589C55.4866 43.3744 54.8466 44.0241 54.0514 44.0241C53.266 44.0241 52.6163 43.3841 52.6163 42.589C52.6163 41.7938 53.266 41.1538 54.0514 41.1538Z" fill="#C42539"/>
</svg>
