<svg width="64" height="64" viewBox="0 0 64 64" fill="none" xmlns="http://www.w3.org/2000/svg">
<path d="M10.5775 29.1749C10.5593 29.0977 10.5268 29.025 10.4817 28.961C10.4366 28.8971 10.3799 28.8432 10.3148 28.8024C10.2497 28.7616 10.1776 28.7347 10.1025 28.7234C10.0275 28.712 9.95109 28.7164 9.87769 28.7363L5.39695 29.8991L3.97789 24.452L49.0477 12.7723L49.1157 13.0171L50.4765 18.2092L44.6155 19.7291C44.3045 19.8107 44.1198 20.1371 44.1976 20.4635C44.2754 20.79 44.5864 20.9838 44.8974 20.9022L50.7875 19.3721L51.0791 20.4737C51.1666 20.8002 51.4873 20.9838 51.7886 20.892C52.0996 20.8002 52.2746 20.4737 52.1871 20.1473L50.0294 11.8746L49.4753 9.76306C48.7755 7.08029 46.0249 5.45839 43.3423 6.15204L5.77602 15.9039C4.43471 16.2507 3.31696 17.1075 2.64631 18.3214C2.3309 18.8796 2.12615 19.499 2.04431 20.1422C1.96247 20.7855 2.00524 21.4395 2.17005 22.065L4.44443 30.7866C4.45415 30.807 4.45415 30.8376 4.46387 30.858L7.57414 42.7723C7.88517 43.9658 8.62386 44.9961 9.64442 45.6897C9.74162 45.7509 9.84853 45.7815 9.95545 45.7815C10.1498 45.7815 10.3345 45.6795 10.4414 45.5061C10.6164 45.2205 10.5386 44.8533 10.2665 44.6697C9.48891 44.1494 8.92517 43.3538 8.6919 42.4561L5.70798 31.062L10.1596 29.9093C10.4706 29.8277 10.6553 29.5013 10.5775 29.1749ZM3.62799 18.9334C4.14313 18.0052 5.00817 17.3421 6.04817 17.0769L43.595 7.33531C45.675 6.79468 47.8036 8.02895 48.3382 10.0895L48.7367 11.5992L3.67659 23.2891L3.27808 21.7488C3.02537 20.79 3.15173 19.7903 3.62799 18.9334Z" fill="#161A1F"/>
<path d="M57.2899 23.5747H17.8478C15.2429 23.5747 13.1338 25.7985 13.1338 28.522V53.0444C13.1338 55.7782 15.2526 57.9917 17.8478 57.9917H57.2899C59.8948 57.9917 62.0039 55.768 62.0039 53.0444V28.5322C62.0039 25.7985 59.885 23.5747 57.2899 23.5747ZM60.857 53.0444C60.857 55.1049 59.2533 56.788 57.2899 56.788H17.8478C15.8844 56.788 14.2807 55.1049 14.2807 53.0444V28.5322C14.2807 26.4717 15.8844 24.7886 17.8478 24.7886H57.2899C59.2533 24.7886 60.857 26.4717 60.857 28.5322V53.0444Z" fill="#161A1F"/>
<path d="M18.9773 37.3319H23.9158C25.0056 37.3319 25.8892 36.4041 25.8892 35.2597V30.0742C25.8892 28.9298 25.0056 28.002 23.9158 28.002H18.9773C17.8875 28.002 17.0039 28.9298 17.0039 30.0742V35.2597C17.0039 36.3938 17.8875 37.3319 18.9773 37.3319ZM18.1624 35.2494V33.27H20.8624V36.1051H18.9773C18.5257 36.1051 18.1624 35.7237 18.1624 35.2494ZM23.9158 36.1051H22.0307V33.27H24.7307V35.2494C24.7307 35.7237 24.3576 36.1051 23.9158 36.1051ZM24.7307 30.0742V32.0536H22.0307V29.2185H23.9158C24.3576 29.2185 24.7307 29.5999 24.7307 30.0742ZM18.9773 29.2185H20.8624V32.0536H18.1624V30.0742C18.1624 29.5999 18.5257 29.2185 18.9773 29.2185ZM17.5832 41.6103H35.2359C35.5599 41.6103 35.8152 41.3422 35.8152 41.002C35.8152 40.6618 35.5599 40.3938 35.2359 40.3938H17.5832C17.4354 40.4028 17.2965 40.4708 17.1949 40.5839C17.0933 40.697 17.0367 40.8465 17.0367 41.002C17.0367 41.1575 17.0933 41.307 17.1949 41.4201C17.2965 41.5332 17.4354 41.6012 17.5832 41.6103ZM17.5832 45.8886H30.8669C31.1909 45.8886 31.4462 45.6206 31.4462 45.2804C31.4462 44.9402 31.1909 44.6721 30.8669 44.6721H17.5832C17.2592 44.6721 17.0039 44.9402 17.0039 45.2804C17.0039 45.6206 17.2592 45.8886 17.5832 45.8886ZM56.0207 27.9917H35.4421C34.3523 27.9917 33.4687 28.9195 33.4687 30.0639V33.6206C33.4687 34.7649 34.3523 35.6927 35.4421 35.6927H56.0207C57.1105 35.6927 57.9941 34.7649 57.9941 33.6206V30.0639C58.0039 28.9298 57.1105 27.9917 56.0207 27.9917ZM56.8356 33.6206C56.8356 34.0948 56.4723 34.4762 56.0207 34.4762H35.4421C34.9905 34.4762 34.6272 34.0948 34.6272 33.6206V30.0639C34.6272 29.5896 34.9905 29.2082 35.4421 29.2082H56.0207C56.4723 29.2082 56.8356 29.5896 56.8356 30.0639V33.6206ZM55.7949 49.3525H53.5465C52.3291 49.3525 51.3375 50.3938 51.3375 51.6721C51.3375 52.9505 52.3291 53.9917 53.5465 53.9917H55.7949C57.0123 53.9917 58.0039 52.9505 58.0039 51.6721C58.0039 50.3938 57.0123 49.3525 55.7949 49.3525ZM55.7949 52.7752H53.5465C53.2758 52.7629 53.02 52.6413 52.8325 52.4358C52.6451 52.2303 52.5405 51.9567 52.5405 51.6721C52.5405 51.3875 52.6451 51.114 52.8325 50.9084C53.02 50.7029 53.2758 50.5813 53.5465 50.569H55.7949C56.3741 50.569 56.8454 51.0639 56.8454 51.6721C56.8454 52.2804 56.3643 52.7752 55.7949 52.7752ZM47.2041 49.3525H44.9558C43.7383 49.3525 42.7467 50.3938 42.7467 51.6721C42.7467 52.9505 43.7383 53.9917 44.9558 53.9917H47.2041C48.4215 53.9917 49.4132 52.9505 49.4132 51.6721C49.4132 50.3938 48.4215 49.3525 47.2041 49.3525ZM47.2041 52.7752H44.9558C44.685 52.7629 44.4292 52.6413 44.2418 52.4358C44.0543 52.2303 43.9497 51.9567 43.9497 51.6721C43.9497 51.3875 44.0543 51.114 44.2418 50.9084C44.4292 50.7029 44.685 50.5813 44.9558 50.569H47.2041C47.4749 50.5813 47.7306 50.7029 47.9181 50.9084C48.1055 51.114 48.2102 51.3875 48.2102 51.6721C48.2102 51.9567 48.1055 52.2303 47.9181 52.4358C47.7306 52.6413 47.4749 52.7629 47.2041 52.7752ZM38.6232 49.3525H36.3748C35.1574 49.3525 34.1658 50.3938 34.1658 51.6721C34.1658 52.9505 35.1574 53.9917 36.3748 53.9917H38.6232C39.8406 53.9917 40.8322 52.9505 40.8322 51.6721C40.8322 50.3938 39.8406 49.3525 38.6232 49.3525ZM38.6232 52.7752H36.3748C36.1041 52.7629 35.8483 52.6413 35.6608 52.4358C35.4734 52.2303 35.3688 51.9567 35.3688 51.6721C35.3688 51.3875 35.4734 51.114 35.6608 50.9084C35.8483 50.7029 36.1041 50.5813 36.3748 50.569H38.6232C38.8939 50.5813 39.1497 50.7029 39.3371 50.9084C39.5246 51.114 39.6292 51.3875 39.6292 51.6721C39.6292 51.9567 39.5246 52.2303 39.3371 52.4358C39.1497 52.6413 38.8939 52.7629 38.6232 52.7752ZM30.0422 49.3525H27.7939C26.5765 49.3525 25.5848 50.3938 25.5848 51.6721C25.5848 52.9505 26.5765 53.9917 27.7939 53.9917H30.0422C31.2597 53.9917 32.2513 52.9505 32.2513 51.6721C32.2513 50.3938 31.2597 49.3525 30.0422 49.3525ZM30.0422 52.7752H27.7939C27.5231 52.7629 27.2674 52.6413 27.0799 52.4358C26.8925 52.2303 26.7878 51.9567 26.7878 51.6721C26.7878 51.3875 26.8925 51.114 27.0799 50.9084C27.2674 50.7029 27.5231 50.5813 27.7939 50.569H30.0422C30.313 50.5813 30.5688 50.7029 30.7562 50.9084C30.9437 51.114 31.0483 51.3875 31.0483 51.6721C31.0483 51.9567 30.9437 52.2303 30.7562 52.4358C30.5688 52.6413 30.313 52.7629 30.0422 52.7752ZM21.4515 49.3525H19.213C17.9955 49.3525 17.0039 50.3938 17.0039 51.6721C17.0039 52.9505 17.9955 53.9917 19.213 53.9917H21.4613C22.6787 53.9917 23.6703 52.9505 23.6703 51.6721C23.6657 51.0566 23.4301 50.4679 23.0147 50.0337C22.5993 49.5994 22.0376 49.3547 21.4515 49.3525ZM21.4515 52.7752H19.213C18.9422 52.7629 18.6864 52.6413 18.499 52.4358C18.3115 52.2303 18.2069 51.9567 18.2069 51.6721C18.2069 51.3875 18.3115 51.114 18.499 50.9084C18.6864 50.7029 18.9422 50.5813 19.213 50.569H21.4613C22.0405 50.569 22.5118 51.0639 22.5118 51.6721C22.5118 52.2804 22.0307 52.7752 21.4515 52.7752Z" fill="#C42539"/>
</svg>
