<svg width="64" height="64" viewBox="0 0 64 64" fill="none" xmlns="http://www.w3.org/2000/svg">
<path d="M60.9264 40.8435H49.8718V7.96104C49.8718 4.43134 47.0015 1.56104 43.4718 1.56104H7.96152C4.43183 1.56104 1.56152 4.43134 1.56152 7.96104V44.441C1.56152 47.9707 4.43183 50.841 7.96152 50.841H39.0306L39.0112 59.0544C39.0112 59.9562 39.3603 60.8095 40.0003 61.4495C40.6403 62.0895 41.4936 62.4483 42.3955 62.4483H57.0573C58.9191 62.4483 60.4318 60.9356 60.4415 59.0738L60.4803 46.2932H60.9264C61.7603 46.2932 62.4391 45.6144 62.4391 44.7804V42.3659C62.4391 41.5222 61.7603 40.8435 60.9264 40.8435ZM2.72516 7.96104C2.72516 5.07134 5.07183 2.72467 7.96152 2.72467H43.4621C46.3518 2.72467 48.6985 5.07134 48.6985 7.96104V10.4822H2.72516V7.96104ZM7.96152 49.6677C5.07183 49.6677 2.72516 47.321 2.72516 44.4313V11.6556H48.6985V40.8532H45.5664V17.9392C45.5664 16.1938 44.1506 14.778 42.4052 14.778H20.2088C19.1033 13.7016 17.6003 13.0422 15.9421 13.0422C14.2839 13.0422 12.7809 13.7113 11.6755 14.778H9.01849C7.41849 14.778 6.06092 15.9804 5.87668 17.5707C5.86698 17.6289 5.87668 17.6968 5.88637 17.755C5.86698 17.8132 5.85728 17.8713 5.85728 17.9392V43.3841C5.85728 45.1295 7.27304 46.5453 9.01849 46.5453H39.0403L39.0306 49.6774H7.96152V49.6677ZM42.8221 40.8435L37.4791 35.5004C37.2237 34.4131 36.67 33.4187 35.8803 32.6289C35.0905 31.8392 34.0961 31.2855 33.0088 31.0301L32.7179 30.7392C32.3979 30.4192 32.233 29.9925 32.2621 29.5465C32.2912 29.1004 32.5046 28.6835 32.8536 28.4119L44.4027 19.2871V40.8435H42.8221ZM9.49365 45.3719H9.01849C7.92274 45.3719 7.02092 44.4798 7.02092 43.3744V43.3259L15.7094 36.4604C16.3203 35.9756 16.6985 35.258 16.747 34.4725C16.7955 33.6968 16.5046 32.9307 15.9518 32.378L7.03061 23.4665V19.035L11.0452 23.0495C12.6743 26.0265 15.37 28.7319 15.5349 28.8968C15.6512 29.0132 15.7967 29.0713 15.9421 29.0713C16.0876 29.0713 16.2427 29.0132 16.3494 28.8968C16.3785 28.8677 16.4658 28.7804 16.6112 28.6253L18.8803 30.8944C19.3528 31.3697 19.9839 31.6543 20.6529 31.6936C21.322 31.733 21.982 31.5244 22.507 31.1077L41.6973 15.9513H42.4052C43.4621 15.9513 44.3155 16.7756 44.3833 17.8132L32.1264 27.5004C31.5155 27.9853 31.1373 28.7029 31.0985 29.4883C31.0694 29.9829 31.1761 30.4677 31.3991 30.8944C30.0384 30.9498 28.7378 31.47 27.7143 32.3683C27.3062 32.2637 26.8794 32.2547 26.4673 32.3422C26.0552 32.4297 25.6689 32.6112 25.3385 32.8726L9.49365 45.3719ZM20.8973 19.1707C20.8973 22.0992 17.193 26.298 15.9421 27.6459C14.6815 26.3077 10.987 22.1089 10.987 19.1707C10.987 16.4362 13.2076 14.2156 15.9421 14.2156C18.6767 14.2156 20.8973 16.4362 20.8973 19.1707ZM21.1397 15.9513H39.8161L21.7797 30.1962C21.1591 30.6907 20.2573 30.6326 19.6949 30.0701L17.3967 27.7719C19.0549 25.9101 22.0609 22.1283 22.0609 19.1707C22.0609 17.9877 21.7215 16.8919 21.1397 15.9513ZM9.9494 20.315L7.0888 17.4544C7.31183 16.5816 8.09728 15.9513 9.01849 15.9513H10.7349C10.153 16.8919 9.81365 17.9877 9.81365 19.1707C9.81365 19.5392 9.86213 19.9174 9.9494 20.315ZM7.03061 25.115L15.1373 33.2216C15.2938 33.3779 15.4154 33.5655 15.4941 33.7722C15.5729 33.9788 15.6069 34.1998 15.5941 34.4206C15.5813 34.6414 15.5218 34.8569 15.4197 35.0531C15.3176 35.2492 15.175 35.4215 15.0015 35.5586L7.03061 41.8519V25.115ZM36.4803 36.8677C36.4803 39.7186 32.8924 43.7913 31.6512 45.1198C30.4197 43.801 26.8221 39.7186 26.8221 36.8677C26.8221 35.5295 27.3749 34.3077 28.2573 33.435L28.267 33.4253C29.1696 32.5372 30.385 32.0393 31.6512 32.0386C34.3082 32.0386 36.4803 34.201 36.4803 36.8677ZM26.0658 33.7744C26.2597 33.6192 26.4827 33.5222 26.7155 33.4738C26.0464 34.4435 25.6585 35.6071 25.6585 36.8677C25.6585 39.8156 28.713 43.5974 30.3033 45.3719H11.3749L26.0658 33.7744ZM35.8791 41.6289L37.1009 42.8507V44.7804C37.1009 44.9938 37.1494 45.1974 37.227 45.3816H33.0088C33.7846 44.4992 34.9191 43.1319 35.8791 41.6289ZM37.3821 41.4835L36.4803 40.5816C37.0718 39.4762 37.5179 38.3416 37.6149 37.2944L41.1639 40.8435H38.604C38.0997 40.8435 37.6536 41.0956 37.3821 41.4835ZM59.2779 59.0641C59.2779 60.2859 58.2791 61.275 57.067 61.275H42.3955C42.1037 61.2756 41.8146 61.2186 41.5449 61.1072C41.2752 60.9959 41.0302 60.8323 40.8238 60.626C40.6175 60.4197 40.454 60.1746 40.3426 59.9049C40.2312 59.6352 40.1742 59.3462 40.1749 59.0544L40.2136 46.2932H59.307L59.2779 59.0641ZM61.2755 44.7707C61.2755 44.9647 61.1203 45.1198 60.9264 45.1198H38.6136C38.4197 45.1198 38.2646 44.9647 38.2646 44.7707V42.3562C38.2646 42.1622 38.4197 42.0071 38.6136 42.0071H60.907C61.1009 42.0071 61.2561 42.1622 61.2561 42.3562V44.7707H61.2755Z" fill="#161A1F"/>
<path d="M8.56288 4.45068C7.37016 4.45068 6.41016 5.42038 6.41016 6.60341C6.41016 7.78644 7.37985 8.75614 8.56288 8.75614C9.74591 8.75614 10.7156 7.78644 10.7156 6.60341C10.7156 5.42038 9.75561 4.45068 8.56288 4.45068ZM8.56288 7.6022C8.01985 7.6022 7.57379 7.15614 7.57379 6.61311C7.57379 6.07008 8.01985 5.62402 8.56288 5.62402C9.10591 5.62402 9.55197 6.07008 9.55197 6.61311C9.56167 7.15614 9.11561 7.6022 8.56288 7.6022ZM14.3617 4.45068C13.1689 4.45068 12.2089 5.42038 12.2089 6.60341C12.2089 7.78644 13.1786 8.75614 14.3617 8.75614C15.5447 8.75614 16.5144 7.78644 16.5144 6.60341C16.5144 5.42038 15.5544 4.45068 14.3617 4.45068ZM14.3617 7.6022C13.8186 7.6022 13.3726 7.15614 13.3726 6.61311C13.3726 6.07008 13.8186 5.62402 14.3617 5.62402C14.9047 5.62402 15.3508 6.07008 15.3508 6.61311C15.3605 7.15614 14.9144 7.6022 14.3617 7.6022ZM20.1605 4.45068C18.9677 4.45068 18.0077 5.42038 18.0077 6.60341C18.0077 7.78644 18.9774 8.75614 20.1605 8.75614C21.3532 8.75614 22.3132 7.78644 22.3132 6.60341C22.3132 5.42038 21.3532 4.45068 20.1605 4.45068ZM20.1605 7.6022C19.6174 7.6022 19.1714 7.15614 19.1714 6.61311C19.1714 6.07008 19.6174 5.62402 20.1605 5.62402C20.7035 5.62402 21.1495 6.07008 21.1495 6.61311C21.1495 7.15614 20.7132 7.6022 20.1605 7.6022ZM42.8611 4.45068H30.7592C29.5665 4.45068 28.6065 5.42038 28.6065 6.60341C28.6065 7.78644 29.5762 8.75614 30.7592 8.75614H42.8611C44.0538 8.75614 45.0138 7.78644 45.0138 6.60341C45.0138 5.42038 44.0538 4.45068 42.8611 4.45068ZM42.8611 7.6022H30.7592C30.2162 7.6022 29.7702 7.15614 29.7702 6.61311C29.7702 6.07008 30.2162 5.62402 30.7592 5.62402H42.8611C43.4041 5.62402 43.8502 6.07008 43.8502 6.61311C43.8599 7.15614 43.4138 7.6022 42.8611 7.6022ZM31.6514 33.5416C29.8186 33.5416 28.3253 35.0349 28.3253 36.8677C28.3253 38.7004 29.8186 40.1937 31.6514 40.1937C33.4841 40.1937 34.9774 38.7004 34.9774 36.8677C34.9774 35.0349 33.4841 33.5416 31.6514 33.5416ZM31.6514 39.0301C30.4586 39.0301 29.4889 38.0604 29.4889 36.8677C29.4889 35.6749 30.4586 34.7052 31.6514 34.7052C32.8441 34.7052 33.8138 35.6749 33.8138 36.8677C33.8138 38.0604 32.8441 39.0301 31.6514 39.0301ZM12.5483 19.1707C12.5483 21.0422 14.0708 22.5646 15.9423 22.5646C17.8138 22.5646 19.3362 21.0422 19.3362 19.1707C19.3362 17.2992 17.8138 15.7767 15.9423 15.7767C14.0708 15.7767 12.5483 17.2992 12.5483 19.1707ZM18.1629 19.1707C18.1629 19.7622 17.9279 20.3295 17.5096 20.7477C17.0914 21.166 16.5241 21.401 15.9326 21.401C15.3411 21.401 14.7738 21.166 14.3555 20.7477C13.9373 20.3295 13.7023 19.7622 13.7023 19.1707C13.7023 18.5792 13.9373 18.0119 14.3555 17.5936C14.7738 17.1754 15.3411 16.9404 15.9326 16.9404C16.5241 16.9404 17.0914 17.1754 17.5096 17.5936C17.9279 18.0119 18.1629 18.5792 18.1629 19.1707Z" fill="#C42539"/>
<path d="M47.118 51.8592H52.3738C52.9081 51.8428 53.415 51.619 53.7871 51.2352C54.1593 50.8515 54.3674 50.338 54.3674 49.8034C54.3674 49.2689 54.1593 48.7553 53.7871 48.3716C53.415 47.9878 52.9081 47.7641 52.3738 47.7477H47.118C46.5837 47.7641 46.0768 47.9878 45.7047 48.3716C45.3326 48.7553 45.1245 49.2689 45.1245 49.8034C45.1245 50.338 45.3326 50.8515 45.7047 51.2352C46.0768 51.619 46.5837 51.8428 47.118 51.8592ZM47.118 48.921H52.3738C52.8586 48.921 53.2562 49.3186 53.2562 49.8034C53.2562 50.2883 52.8586 50.6858 52.3738 50.6858H47.118C46.6332 50.6858 46.2356 50.2883 46.2356 49.8034C46.2356 49.3186 46.6332 48.921 47.118 48.921ZM42.9774 57.0761H47.8647C48.1847 57.0761 48.4465 56.8143 48.4465 56.4943C48.4465 56.1743 48.1847 55.9125 47.8647 55.9125H42.9774C42.6574 55.9125 42.3956 56.1743 42.3956 56.4943C42.3956 56.8143 42.6574 57.0761 42.9774 57.0761ZM42.9774 59.3743H45.8671C46.1871 59.3743 46.4489 59.1125 46.4489 58.7925C46.4489 58.4725 46.1871 58.2107 45.8671 58.2107H42.9774C42.6574 58.2107 42.3956 58.4725 42.3956 58.7925C42.3956 59.1125 42.6574 59.3743 42.9774 59.3743Z" fill="#C42539"/>
</svg>
