<svg width="228" height="54" viewBox="0 0 228 54" fill="none" xmlns="http://www.w3.org/2000/svg">
<path fill-rule="evenodd" clip-rule="evenodd" d="M23.0103 4.54695L3.95892 15.4889V38.5102L13.8562 44.1946V14.9399L23.0103 22.0771V54L0 40.7841V13.2159L23.0103 0V4.54695ZM15.8357 31.9229V33.8921H17.8152V31.9229H15.8357ZM18.8049 31.9229V33.8921H20.7843V31.9229H18.8049ZM15.8357 28.9692V30.9383H17.8152V28.9692H15.8357ZM18.8049 28.9692V30.9383H20.7843V28.9692H18.8049Z" fill="#B81618"/>
<path d="M228 35.1286V40.8192H227.012V38.6008H226.438C226.088 38.6008 225.827 38.6455 225.654 38.7348C225.485 38.8205 225.237 39.1009 224.909 39.576L224.042 40.8192H222.812L223.882 39.2867C224.21 38.8187 224.536 38.5544 224.859 38.4936C224.293 38.4186 223.871 38.2204 223.595 37.8989C223.323 37.5774 223.187 37.2076 223.187 36.7897C223.187 36.2967 223.365 35.8966 223.722 35.5894C224.083 35.2822 224.604 35.1286 225.284 35.1286H228ZM227.012 35.927H225.599C225.007 35.927 224.624 36.0163 224.451 36.1949C224.282 36.3735 224.197 36.5825 224.197 36.8218C224.197 37.1612 224.322 37.4113 224.572 37.572C224.826 37.7292 225.273 37.8078 225.914 37.8078H227.012V35.927Z" fill="white"/>
<path d="M217.071 35.1286H218.065V39.4689L220.819 35.1286H221.89V40.8192H220.896V36.5057L218.142 40.8192H217.071V35.1286Z" fill="white"/>
<path d="M210.829 35.1286H211.822V37.497H214.576V35.1286H215.57V40.8192H214.576V38.2954H211.822V40.8192H210.829V35.1286Z" fill="white"/>
<path d="M208.356 40.1172C207.988 40.4209 207.633 40.6352 207.29 40.7602C206.952 40.8852 206.588 40.9478 206.198 40.9478C205.554 40.9478 205.059 40.7959 204.713 40.4923C204.367 40.1851 204.194 39.7939 204.194 39.3188C204.194 39.0402 204.258 38.7866 204.387 38.5579C204.52 38.3257 204.691 38.14 204.9 38.0007C205.114 37.8614 205.353 37.756 205.618 37.6845C205.813 37.6345 206.107 37.5863 206.501 37.5399C207.303 37.447 207.894 37.3362 208.273 37.2076C208.277 37.0755 208.278 36.9915 208.278 36.9558C208.278 36.5628 208.185 36.286 207.997 36.1253C207.743 35.9073 207.366 35.7984 206.865 35.7984C206.398 35.7984 206.052 35.8788 205.828 36.0395C205.607 36.1967 205.443 36.4771 205.337 36.8808L204.365 36.7522C204.453 36.3485 204.599 36.0234 204.801 35.777C205.004 35.5269 205.296 35.3358 205.679 35.2036C206.061 35.0679 206.505 35 207.009 35C207.509 35 207.916 35.0572 208.229 35.1715C208.542 35.2858 208.772 35.4305 208.919 35.6055C209.066 35.777 209.169 35.9949 209.228 36.2592C209.261 36.4235 209.278 36.72 209.278 37.1487V38.4347C209.278 39.3313 209.298 39.8993 209.338 40.1386C209.382 40.3744 209.467 40.6013 209.592 40.8192H208.554C208.451 40.6191 208.385 40.3851 208.356 40.1172ZM208.273 37.9632C207.912 38.1061 207.371 38.2275 206.65 38.3275C206.242 38.3847 205.953 38.449 205.784 38.5204C205.614 38.5919 205.484 38.6973 205.392 38.8366C205.3 38.9723 205.254 39.1241 205.254 39.292C205.254 39.5492 205.353 39.7636 205.552 39.935C205.754 40.1065 206.049 40.1922 206.435 40.1922C206.818 40.1922 207.158 40.1119 207.456 39.9511C207.754 39.7868 207.973 39.5635 208.113 39.2813C208.22 39.0634 208.273 38.7419 208.273 38.3168V37.9632Z" fill="white"/>
<path d="M198.409 35.1286H203.035V40.8192H202.041V35.927H199.403V40.8192H198.409V35.1286Z" fill="white"/>
<path d="M190.66 35.1286H192.205L193.745 39.6832L195.456 35.1286H196.886V40.8192H195.893V36.2378L194.159 40.8192H193.271L191.631 36.0181V40.8192H190.66V35.1286Z" fill="white"/>
<path d="M183.97 37.9739C183.97 36.9201 184.272 36.1395 184.875 35.6323C185.38 35.2108 185.994 35 186.719 35C187.525 35 188.183 35.2572 188.695 35.7716C189.206 36.2824 189.462 36.9897 189.462 37.8935C189.462 38.6258 189.348 39.2027 189.12 39.6242C188.895 40.0422 188.566 40.3673 188.132 40.5995C187.701 40.8317 187.23 40.9478 186.719 40.9478C185.898 40.9478 185.234 40.6923 184.726 40.1815C184.222 39.6707 183.97 38.9348 183.97 37.9739ZM184.991 37.9739C184.991 38.7026 185.155 39.2492 185.483 39.6135C185.81 39.9743 186.222 40.1547 186.719 40.1547C187.212 40.1547 187.622 39.9725 187.95 39.6082C188.277 39.2438 188.441 38.6883 188.441 37.9417C188.441 37.238 188.275 36.7057 187.944 36.3449C187.617 35.9806 187.208 35.7984 186.719 35.7984C186.222 35.7984 185.81 35.9788 185.483 36.3396C185.155 36.7004 184.991 37.2451 184.991 37.9739Z" fill="white"/>
<path d="M179.256 35.1286H180.25V37.5881C180.566 37.5881 180.787 37.5291 180.912 37.4113C181.041 37.2934 181.229 36.9504 181.475 36.3825C181.67 35.9324 181.829 35.6359 181.95 35.493C182.071 35.3501 182.211 35.2536 182.369 35.2036C182.528 35.1536 182.782 35.1286 183.131 35.1286H183.33V35.927L183.054 35.9216C182.793 35.9216 182.625 35.9591 182.552 36.0342C182.474 36.1127 182.357 36.3467 182.198 36.7361C182.048 37.1076 181.91 37.3648 181.784 37.5077C181.659 37.6506 181.466 37.781 181.205 37.8989C181.632 38.0096 182.051 38.3954 182.463 39.0563L183.551 40.8192H182.458L181.398 39.0563C181.181 38.7026 180.991 38.4704 180.83 38.3597C180.668 38.2454 180.474 38.1882 180.25 38.1882V40.8192H179.256V35.1286Z" fill="white"/>
<path d="M174.603 35.1286V40.8192H173.615V38.6008H173.041C172.692 38.6008 172.431 38.6455 172.258 38.7348C172.088 38.8205 171.84 39.1009 171.512 39.576L170.646 40.8192H169.415L170.486 39.2867C170.813 38.8187 171.139 38.5544 171.463 38.4936C170.896 38.4186 170.475 38.2204 170.199 37.8989C169.926 37.5774 169.79 37.2076 169.79 36.7897C169.79 36.2967 169.969 35.8966 170.326 35.5894C170.686 35.2822 171.207 35.1286 171.888 35.1286H174.603ZM173.615 35.927H172.202C171.61 35.927 171.227 36.0163 171.054 36.1949C170.885 36.3735 170.8 36.5825 170.8 36.8218C170.8 37.1612 170.926 37.4113 171.176 37.572C171.43 37.7292 171.877 37.8078 172.517 37.8078H173.615V35.927Z" fill="white"/>
<path d="M167.522 40.1172C167.154 40.4209 166.799 40.6352 166.456 40.7602C166.118 40.8852 165.754 40.9478 165.364 40.9478C164.72 40.9478 164.225 40.7959 163.879 40.4923C163.533 40.1851 163.36 39.7939 163.36 39.3188C163.36 39.0402 163.424 38.7866 163.553 38.5579C163.686 38.3257 163.857 38.14 164.066 38.0007C164.28 37.8614 164.519 37.756 164.784 37.6845C164.979 37.6345 165.273 37.5863 165.667 37.5399C166.469 37.447 167.06 37.3362 167.439 37.2076C167.443 37.0755 167.444 36.9915 167.444 36.9558C167.444 36.5628 167.351 36.286 167.163 36.1253C166.909 35.9073 166.532 35.7984 166.031 35.7984C165.564 35.7984 165.218 35.8788 164.994 36.0395C164.773 36.1967 164.609 36.4771 164.503 36.8808L163.531 36.7522C163.619 36.3485 163.765 36.0234 163.967 35.777C164.17 35.5269 164.462 35.3358 164.845 35.2036C165.227 35.0679 165.671 35 166.175 35C166.675 35 167.082 35.0572 167.395 35.1715C167.708 35.2858 167.938 35.4305 168.085 35.6055C168.232 35.777 168.335 35.9949 168.394 36.2592C168.427 36.4235 168.444 36.72 168.444 37.1487V38.4347C168.444 39.3313 168.464 39.8993 168.504 40.1386C168.548 40.3744 168.633 40.6013 168.758 40.8192H167.72C167.617 40.6191 167.551 40.3851 167.522 40.1172ZM167.439 37.9632C167.078 38.1061 166.537 38.2275 165.816 38.3275C165.408 38.3847 165.119 38.449 164.95 38.5204C164.78 38.5919 164.65 38.6973 164.558 38.8366C164.466 38.9723 164.42 39.1241 164.42 39.292C164.42 39.5492 164.519 39.7636 164.718 39.935C164.92 40.1065 165.215 40.1922 165.601 40.1922C165.984 40.1922 166.324 40.1119 166.622 39.9511C166.92 39.7868 167.139 39.5635 167.279 39.2813C167.386 39.0634 167.439 38.7419 167.439 38.3168V37.9632Z" fill="white"/>
<path d="M157.454 35.1286H158.448V37.497H161.202V35.1286H162.195V40.8192H161.202V38.2954H158.448V40.8192H157.454V35.1286Z" fill="white"/>
<path d="M151.537 35.1286H152.531V37.3523H153.789C154.61 37.3523 155.241 37.5077 155.682 37.8185C156.127 38.1257 156.35 38.5508 156.35 39.0938C156.35 39.5689 156.164 39.9761 155.793 40.3155C155.425 40.6513 154.834 40.8192 154.021 40.8192H151.537V35.1286ZM152.531 40.0261H153.574C154.203 40.0261 154.652 39.9511 154.921 39.8011C155.189 39.651 155.323 39.4171 155.323 39.0991C155.323 38.8526 155.224 38.633 155.025 38.4401C154.827 38.2472 154.387 38.1507 153.706 38.1507H152.531V40.0261Z" fill="white"/>
<path d="M145.438 35.1286H150.052V40.8192H149.064V35.927H146.431V38.7616C146.431 39.4224 146.409 39.8582 146.365 40.069C146.321 40.2797 146.2 40.4637 146.001 40.6209C145.802 40.7781 145.515 40.8567 145.14 40.8567C144.908 40.8567 144.641 40.8424 144.339 40.8138V40.01H144.776C144.982 40.01 145.129 39.9904 145.217 39.9511C145.305 39.9082 145.364 39.8422 145.394 39.7528C145.423 39.6635 145.438 39.3724 145.438 38.8794V35.1286Z" fill="white"/>
<path d="M143.048 38.9866L144.075 39.1098C143.913 39.6921 143.613 40.144 143.175 40.4655C142.737 40.787 142.178 40.9478 141.497 40.9478C140.639 40.9478 139.959 40.6923 139.455 40.1815C138.954 39.6671 138.704 38.9473 138.704 38.0221C138.704 37.0647 138.958 36.3217 139.466 35.793C139.973 35.2643 140.632 35 141.442 35C142.225 35 142.866 35.259 143.362 35.777C143.859 36.2949 144.108 37.0237 144.108 37.9632C144.108 38.0203 144.106 38.1061 144.102 38.2204H139.731C139.767 38.8455 139.95 39.3242 140.277 39.6564C140.605 39.9886 141.013 40.1547 141.502 40.1547C141.867 40.1547 142.178 40.0618 142.435 39.8761C142.693 39.6903 142.897 39.3938 143.048 38.9866ZM139.786 37.4273H143.059C143.015 36.9486 142.89 36.5896 142.684 36.3503C142.367 35.9788 141.957 35.793 141.453 35.793C140.996 35.793 140.612 35.9413 140.299 36.2378C139.99 36.5343 139.819 36.9308 139.786 37.4273Z" fill="white"/>
<path d="M133.455 35.1286H138.218V35.927H136.331V40.8192H135.343V35.927H133.455V35.1286Z" fill="white"/>
<path d="M127.676 35.1286H128.669V39.4689L131.424 35.1286H132.494V40.8192H131.501V36.5057L128.747 40.8192H127.676V35.1286Z" fill="white"/>
<path d="M121.014 37.9739C121.014 36.9201 121.315 36.1395 121.919 35.6323C122.423 35.2108 123.037 35 123.762 35C124.568 35 125.227 35.2572 125.738 35.7716C126.25 36.2824 126.506 36.9897 126.506 37.8935C126.506 38.6258 126.392 39.2027 126.163 39.6242C125.939 40.0422 125.61 40.3673 125.175 40.5995C124.745 40.8317 124.274 40.9478 123.762 40.9478C122.942 40.9478 122.278 40.6923 121.77 40.1815C121.266 39.6707 121.014 38.9348 121.014 37.9739ZM122.035 37.9739C122.035 38.7026 122.199 39.2492 122.526 39.6135C122.854 39.9743 123.266 40.1547 123.762 40.1547C124.255 40.1547 124.666 39.9725 124.993 39.6082C125.321 39.2438 125.485 38.6883 125.485 37.9417C125.485 37.238 125.319 36.7057 124.988 36.3449C124.66 35.9806 124.252 35.7984 123.762 35.7984C123.266 35.7984 122.854 35.9788 122.526 36.3396C122.199 36.7004 122.035 37.2451 122.035 37.9739Z" fill="white"/>
<path d="M115.091 43V35.1286H115.996V35.8681C116.21 35.5787 116.451 35.3626 116.719 35.2197C116.988 35.0732 117.314 35 117.696 35C118.197 35 118.638 35.125 119.021 35.3751C119.404 35.6251 119.693 35.9788 119.888 36.436C120.083 36.8897 120.18 37.388 120.18 37.931C120.18 38.5133 120.072 39.0384 119.855 39.5064C119.641 39.9708 119.328 40.328 118.916 40.578C118.508 40.8245 118.077 40.9478 117.625 40.9478C117.293 40.9478 116.995 40.8799 116.73 40.7441C116.469 40.6084 116.254 40.4369 116.085 40.2297V43H115.091ZM115.991 38.006C115.991 38.7383 116.144 39.2795 116.449 39.6296C116.754 39.9797 117.124 40.1547 117.558 40.1547C118 40.1547 118.377 39.9743 118.69 39.6135C119.006 39.2492 119.165 38.6865 119.165 37.9257C119.165 37.2005 119.01 36.6575 118.701 36.2967C118.396 35.9359 118.029 35.7555 117.603 35.7555C117.179 35.7555 116.804 35.9484 116.477 36.3342C116.153 36.7165 115.991 37.2737 115.991 38.006Z" fill="white"/>
<path d="M109.378 35.1286H114.142V35.927H112.254V40.8192H111.266V35.927H109.378V35.1286Z" fill="white"/>
<path d="M108.087 38.7348L109.064 38.858C108.957 39.5117 108.683 40.0243 108.241 40.3958C107.803 40.7638 107.264 40.9478 106.624 40.9478C105.822 40.9478 105.176 40.6941 104.687 40.1869C104.201 39.676 103.958 38.9455 103.958 37.9953C103.958 37.3809 104.063 36.8433 104.273 36.3825C104.482 35.9216 104.801 35.5769 105.228 35.3483C105.658 35.1161 106.125 35 106.63 35C107.266 35 107.787 35.1572 108.192 35.4715C108.596 35.7823 108.856 36.2253 108.97 36.8004L108.004 36.9451C107.912 36.5628 107.748 36.2753 107.513 36.0824C107.281 35.8895 106.999 35.793 106.668 35.793C106.168 35.793 105.761 35.9681 105.448 36.3182C105.136 36.6647 104.979 37.2148 104.979 37.9685C104.979 38.733 105.13 39.2885 105.432 39.635C105.734 39.9815 106.127 40.1547 106.613 40.1547C107.003 40.1547 107.329 40.0386 107.59 39.8064C107.851 39.5742 108.017 39.217 108.087 38.7348Z" fill="white"/>
<path d="M100.111 38.4615V37.4916H103.163V38.4615H100.111Z" fill="white"/>
<path d="M93.8351 37.9739C93.8351 36.9201 94.1369 36.1395 94.7403 35.6323C95.2445 35.2108 95.859 35 96.5839 35C97.3898 35 98.0484 35.2572 98.5599 35.7716C99.0714 36.2824 99.3271 36.9897 99.3271 37.8935C99.3271 38.6258 99.2131 39.2027 98.9849 39.6242C98.7605 40.0422 98.4311 40.3673 97.9969 40.5995C97.5664 40.8317 97.0954 40.9478 96.5839 40.9478C95.7633 40.9478 95.0991 40.6923 94.5913 40.1815C94.0872 39.6707 93.8351 38.9348 93.8351 37.9739ZM94.8563 37.9739C94.8563 38.7026 95.02 39.2492 95.3475 39.6135C95.675 39.9743 96.0871 40.1547 96.5839 40.1547C97.077 40.1547 97.4873 39.9725 97.8148 39.6082C98.1423 39.2438 98.306 38.6883 98.306 37.9417C98.306 37.238 98.1404 36.7057 97.8092 36.3449C97.4818 35.9806 97.0733 35.7984 96.5839 35.7984C96.0871 35.7984 95.675 35.9788 95.3475 36.3396C95.02 36.7004 94.8563 37.2451 94.8563 37.9739Z" fill="white"/>
<path d="M88.3376 35.1286H90.6282C91.1912 35.1286 91.6089 35.175 91.8812 35.2679C92.1572 35.3572 92.3927 35.5233 92.5877 35.7662C92.7864 36.0092 92.8858 36.3003 92.8858 36.6397C92.8858 36.9111 92.8269 37.1487 92.7091 37.3523C92.5951 37.5524 92.4221 37.7203 92.1903 37.856C92.4663 37.9453 92.6944 38.1132 92.8747 38.3597C93.0587 38.6026 93.1507 38.8919 93.1507 39.2277C93.1139 39.7671 92.9152 40.1672 92.5546 40.428C92.194 40.6888 91.6696 40.8192 90.9815 40.8192H88.3376V35.1286ZM89.3311 37.5238H90.3909C90.8141 37.5238 91.1048 37.5023 91.263 37.4595C91.4212 37.4166 91.5629 37.3309 91.688 37.2023C91.8131 37.0701 91.8757 36.9129 91.8757 36.7307C91.8757 36.4307 91.7653 36.2217 91.5445 36.1038C91.3274 35.9859 90.9539 35.927 90.424 35.927H89.3311V37.5238ZM89.3311 40.0261H90.6393C91.2023 40.0261 91.5887 39.9636 91.7984 39.8386C92.0081 39.71 92.1185 39.4903 92.1296 39.1795C92.1296 38.9973 92.0689 38.8294 91.9474 38.6758C91.826 38.5186 91.6678 38.4204 91.4727 38.3811C91.2777 38.3382 90.9649 38.3168 90.5344 38.3168H89.3311V40.0261Z" fill="white"/>
<path d="M81.6699 37.9739C81.6699 36.9201 81.9717 36.1395 82.5752 35.6323C83.0793 35.2108 83.6938 35 84.4187 35C85.2246 35 85.8832 35.2572 86.3947 35.7716C86.9062 36.2824 87.1619 36.9897 87.1619 37.8935C87.1619 38.6258 87.0479 39.2027 86.8197 39.6242C86.5953 40.0422 86.2659 40.3673 85.8317 40.5995C85.4012 40.8317 84.9302 40.9478 84.4187 40.9478C83.5981 40.9478 82.9339 40.6923 82.4261 40.1815C81.922 39.6707 81.6699 38.9348 81.6699 37.9739ZM82.6911 37.9739C82.6911 38.7026 82.8548 39.2492 83.1823 39.6135C83.5098 39.9743 83.9219 40.1547 84.4187 40.1547C84.9118 40.1547 85.3221 39.9725 85.6496 39.6082C85.9771 39.2438 86.1408 38.6883 86.1408 37.9417C86.1408 37.238 85.9752 36.7057 85.6441 36.3449C85.3166 35.9806 84.9081 35.7984 84.4187 35.7984C83.9219 35.7984 83.5098 35.9788 83.1823 36.3396C82.8548 36.7004 82.6911 37.2451 82.6911 37.9739Z" fill="white"/>
<path d="M78.1705 35.1286H81.543V35.927H79.164V40.8192H78.1705V35.1286Z" fill="white"/>
<path d="M71.8727 43V35.1286H72.7779V35.8681C72.9913 35.5787 73.2323 35.3626 73.5009 35.2197C73.7696 35.0732 74.0952 35 74.4779 35C74.9783 35 75.4199 35.125 75.8026 35.3751C76.1853 35.6251 76.4742 35.9788 76.6692 36.436C76.8642 36.8897 76.9617 37.388 76.9617 37.931C76.9617 38.5133 76.8532 39.0384 76.6361 39.5064C76.4226 39.9708 76.1099 40.328 75.6977 40.578C75.2893 40.8245 74.8588 40.9478 74.4062 40.9478C74.075 40.9478 73.7769 40.8799 73.512 40.7441C73.2507 40.6084 73.0354 40.4369 72.8662 40.2297V43H71.8727ZM72.7723 38.006C72.7723 38.7383 72.9251 39.2795 73.2305 39.6296C73.5359 39.9797 73.9057 40.1547 74.3399 40.1547C74.7815 40.1547 75.1587 39.9743 75.4714 39.6135C75.7879 39.2492 75.9461 38.6865 75.9461 37.9257C75.9461 37.2005 75.7916 36.6575 75.4825 36.2967C75.1771 35.9359 74.8109 35.7555 74.3841 35.7555C73.9609 35.7555 73.5856 35.9484 73.2581 36.3342C72.9343 36.7165 72.7723 37.2737 72.7723 38.006Z" fill="white"/>
<path d="M65.2105 37.9739C65.2105 36.9201 65.5122 36.1395 66.1157 35.6323C66.6198 35.2108 67.2344 35 67.9593 35C68.7651 35 69.4238 35.2572 69.9353 35.7716C70.4468 36.2824 70.7025 36.9897 70.7025 37.8935C70.7025 38.6258 70.5884 39.2027 70.3603 39.6242C70.1358 40.0422 69.8065 40.3673 69.3723 40.5995C68.9417 40.8317 68.4707 40.9478 67.9593 40.9478C67.1387 40.9478 66.4745 40.6923 65.9667 40.1815C65.4626 39.6707 65.2105 38.9348 65.2105 37.9739ZM66.2316 37.9739C66.2316 38.7026 66.3954 39.2492 66.7229 39.6135C67.0504 39.9743 67.4625 40.1547 67.9593 40.1547C68.4523 40.1547 68.8626 39.9725 69.1901 39.6082C69.5176 39.2438 69.6814 38.6883 69.6814 37.9417C69.6814 37.238 69.5158 36.7057 69.1846 36.3449C68.8571 35.9806 68.4487 35.7984 67.9593 35.7984C67.4625 35.7984 67.0504 35.9788 66.7229 36.3396C66.3954 36.7004 66.2316 37.2451 66.2316 37.9739Z" fill="white"/>
<path d="M60 35.1286H64.7634V35.927H62.8757V40.8192H61.8877V35.927H60V35.1286Z" fill="white"/>
<path d="M224.724 23.83H215.404V20.8099H224.724V23.83ZM228 26.6573H224.015L219.543 13.9987H220.473L216.001 26.6573H212.171L218.016 11.3427H222.133L228 26.6573Z" fill="white"/>
<path d="M198.578 26.6573V11.3427H205.33C206.334 11.3427 207.204 11.5069 207.942 11.8353C208.695 12.1638 209.278 12.6279 209.691 13.2276C210.104 13.813 210.311 14.5056 210.311 15.3052C210.311 16.062 210.104 16.7332 209.691 17.3186C209.278 17.9041 208.695 18.361 207.942 18.6894C207.204 19.0179 206.334 19.1821 205.33 19.1821H202.452V18.0469H205.308C206.429 18.0469 207.411 18.2182 208.252 18.5609C209.093 18.8893 209.75 19.3606 210.222 19.9746C210.695 20.5886 210.931 21.3168 210.931 22.1593C210.931 23.0589 210.695 23.8514 210.222 24.5368C209.75 25.208 209.093 25.7291 208.252 26.1004C207.411 26.4717 206.429 26.6573 205.308 26.6573H198.578ZM202.253 23.6801H205.33C205.92 23.6801 206.385 23.5301 206.725 23.2303C207.064 22.9161 207.234 22.4806 207.234 21.9237C207.234 21.4096 207.064 21.0098 206.725 20.7242C206.385 20.4244 205.92 20.2744 205.33 20.2744H202.031V17.3829H205.064C205.551 17.3829 205.928 17.2401 206.193 16.9545C206.474 16.6689 206.614 16.2762 206.614 15.7764C206.614 15.3195 206.474 14.9625 206.193 14.7055C205.928 14.4485 205.551 14.32 205.064 14.32H202.253V23.6801Z" fill="white"/>
<path d="M181.715 26.6573V11.3427H185.39V22.7805L184.549 22.3307L191.279 11.3427H195.086V26.6573H191.411V15.498L192.208 15.6051L185.545 26.6573H181.715Z" fill="white"/>
<path d="M174.874 26.6573H171.222V14.1914H174.874V26.6573ZM179.324 14.4056H166.772V11.3427H179.324V14.4056Z" fill="white"/>
<path d="M154.821 26.6573H151.146V11.3427H154.821V26.6573ZM165.69 26.6573H160.931L154.289 18.7109H154.621L160.399 11.3427H164.827L158.606 19.0321V18.3896L165.69 26.6573Z" fill="white"/>
<path d="M148.439 26.6573H137.547V11.3427H148.439V14.3628H141.222V23.6372H148.439V26.6573ZM148.041 20.4672H141.001V17.4471H148.041V20.4672Z" fill="white"/>
<path d="M120.879 26.6573V11.3427H134.051V26.6573H130.376V12.0924L132.169 14.4056H122.562L124.554 12.1138V26.6573H120.879Z" fill="white"/>
<path d="M115.997 21.7738L118.343 24.1513C117.62 25.0509 116.713 25.7506 115.621 26.2503C114.543 26.7501 113.392 27 112.167 27C110.986 27 109.902 26.8072 108.913 26.4217C107.924 26.0219 107.068 25.4721 106.345 24.7724C105.622 24.0585 105.061 23.2088 104.662 22.2236C104.279 21.2383 104.087 20.1602 104.087 18.9893C104.087 17.8184 104.286 16.7474 104.684 15.7764C105.083 14.7912 105.644 13.9487 106.367 13.249C107.09 12.535 107.953 11.9853 108.957 11.5997C109.961 11.1999 111.06 11 112.256 11C113.481 11 114.617 11.2499 115.665 11.7497C116.727 12.2352 117.62 12.9348 118.343 13.8487L115.997 16.2262C115.554 15.5837 115.001 15.0839 114.337 14.7269C113.687 14.3556 112.994 14.17 112.256 14.17C111.414 14.17 110.669 14.3771 110.02 14.7912C109.37 15.191 108.861 15.755 108.492 16.4833C108.138 17.1972 107.961 18.0326 107.961 18.9893C107.961 19.946 108.138 20.7885 108.492 21.5167C108.861 22.245 109.363 22.8162 109.998 23.2303C110.647 23.6301 111.4 23.83 112.256 23.83C112.994 23.83 113.687 23.6515 114.337 23.2945C115.001 22.9232 115.554 22.4163 115.997 21.7738Z" fill="white"/>
<path d="M93.9415 26.6573H90.2666V11.3427H96.5095C97.6164 11.3427 98.5905 11.5498 99.4317 11.9639C100.288 12.378 100.952 12.9563 101.424 13.6988C101.896 14.427 102.133 15.2767 102.133 16.2477C102.133 17.2187 101.896 18.0754 101.424 18.8179C100.952 19.5605 100.288 20.1388 99.4317 20.5529C98.5905 20.9527 97.6164 21.1526 96.5095 21.1526H93.7201V18.1325H96.5095C97.0998 18.1325 97.5647 17.9612 97.9042 17.6185C98.2584 17.2758 98.4355 16.8188 98.4355 16.2477C98.4355 15.6622 98.2584 15.2053 97.9042 14.8768C97.5647 14.5341 97.0998 14.3628 96.5095 14.3628H93.9415V26.6573Z" fill="white"/>
<path d="M87.5601 26.6573H76.6683V11.3427H87.5601V14.3628H80.3431V23.6372H87.5601V26.6573ZM87.1616 20.4672H80.1218V17.4471H87.1616V20.4672Z" fill="white"/>
<path d="M60 26.6573V11.3427H73.172V26.6573H69.4971V12.0924L71.2903 14.4056H61.6825L63.6749 12.1138V26.6573H60Z" fill="white"/>
<path fill-rule="evenodd" clip-rule="evenodd" d="M47.9995 13.2159V40.7841L24.9893 54V19.1234L33.6504 12.2313V44.4773L44.0406 38.5102V15.4889L24.9893 4.54695V0L47.9995 13.2159ZM26.7223 27H28.7017V25.0308H26.7223V27ZM29.6914 27H31.6709V25.0308H29.6914V27ZM26.7223 24.0463H28.7017V22.0771H26.7223V24.0463ZM29.6914 24.0463H31.6709V22.0771H29.6914V24.0463Z" fill="#B81618"/>
</svg>
