<svg width="172" height="40" viewBox="0 0 172 40" fill="none" xmlns="http://www.w3.org/2000/svg">
<path fill-rule="evenodd" clip-rule="evenodd" d="M17.3586 3.36811L2.98656 11.4732V28.526L10.4529 32.7367V11.0666L17.3586 16.3534V40L0 30.2105V9.78954L17.3586 0V3.36811ZM11.9462 23.6466V25.1052H13.4395V23.6466H11.9462ZM14.1861 23.6466V25.1052H15.6794V23.6466H14.1861ZM11.9462 21.4586V22.9173H13.4395V21.4586H11.9462ZM14.1861 21.4586V22.9173H15.6794V21.4586H14.1861Z" fill="#B81618"/>
<path d="M172 26.0212V30.2364H171.254V28.5932H170.821C170.557 28.5932 170.36 28.6262 170.23 28.6924C170.102 28.7559 169.915 28.9636 169.668 29.3155L169.014 30.2364H168.085L168.893 29.1012C169.14 28.7546 169.386 28.5588 169.63 28.5138C169.203 28.4582 168.885 28.3114 168.677 28.0732C168.471 27.8351 168.369 27.5612 168.369 27.2516C168.369 26.8864 168.503 26.5901 168.773 26.3625C169.045 26.1349 169.437 26.0212 169.951 26.0212H172ZM171.254 26.6126H170.188C169.741 26.6126 169.453 26.6787 169.322 26.811C169.194 26.9433 169.131 27.0981 169.131 27.2754C169.131 27.5268 169.225 27.712 169.414 27.8311C169.605 27.9475 169.943 28.0057 170.426 28.0057H171.254V26.6126Z" fill="white"/>
<path d="M163.755 26.0212H164.505V29.2362L166.582 26.0212H167.39V30.2364H166.641V27.0412L164.563 30.2364H163.755V26.0212Z" fill="white"/>
<path d="M159.046 26.0212H159.795V27.7755H161.873V26.0212H162.622V30.2364H161.873V28.3669H159.795V30.2364H159.046V26.0212Z" fill="white"/>
<path d="M157.18 29.7164C156.903 29.9413 156.635 30.1001 156.377 30.1927C156.121 30.2853 155.846 30.3316 155.552 30.3316C155.066 30.3316 154.693 30.2192 154.432 29.9943C154.171 29.7667 154.041 29.477 154.041 29.125C154.041 28.9186 154.089 28.7308 154.186 28.5614C154.286 28.3894 154.415 28.2518 154.574 28.1486C154.735 28.0454 154.915 27.9674 155.115 27.9144C155.262 27.8774 155.484 27.8417 155.781 27.8073C156.386 27.7385 156.832 27.6564 157.118 27.5612C157.121 27.4633 157.122 27.4011 157.122 27.3746C157.122 27.0836 157.051 26.8785 156.91 26.7594C156.718 26.598 156.433 26.5173 156.056 26.5173C155.703 26.5173 155.442 26.5768 155.273 26.6959C155.107 26.8123 154.983 27.0201 154.903 27.3191L154.17 27.2238C154.236 26.9248 154.346 26.684 154.499 26.5014C154.651 26.3162 154.872 26.1746 155.161 26.0767C155.449 25.9762 155.784 25.9259 156.164 25.9259C156.542 25.9259 156.848 25.9682 157.084 26.0529C157.32 26.1376 157.494 26.2448 157.605 26.3744C157.716 26.5014 157.794 26.6628 157.838 26.8587C157.863 26.9804 157.876 27.2 157.876 27.5175V28.4701C157.876 29.1343 157.891 29.555 157.921 29.7323C157.955 29.907 158.019 30.075 158.113 30.2364H157.33C157.252 30.0882 157.202 29.9149 157.18 29.7164ZM157.118 28.1208C156.846 28.2267 156.438 28.3166 155.894 28.3907C155.585 28.4331 155.368 28.4807 155.24 28.5336C155.112 28.5866 155.014 28.6646 154.944 28.7678C154.875 28.8684 154.84 28.9808 154.84 29.1052C154.84 29.2957 154.915 29.4545 155.065 29.5815C155.218 29.7085 155.44 29.772 155.731 29.772C156.02 29.772 156.277 29.7125 156.501 29.5934C156.726 29.4717 156.891 29.3063 156.997 29.0972C157.077 28.9358 157.118 28.6977 157.118 28.3828V28.1208Z" fill="white"/>
<path d="M149.677 26.0212H153.166V30.2364H152.417V26.6126H150.426V30.2364H149.677V26.0212Z" fill="white"/>
<path d="M143.831 26.0212H144.997L146.158 29.3949L147.449 26.0212H148.528V30.2364H147.778V26.8428L146.471 30.2364H145.8L144.564 26.68V30.2364H143.831V26.0212Z" fill="white"/>
<path d="M138.784 28.1288C138.784 27.3482 139.012 26.77 139.467 26.3943C139.847 26.082 140.311 25.9259 140.858 25.9259C141.466 25.9259 141.963 26.1164 142.348 26.4975C142.734 26.8759 142.927 27.3998 142.927 28.0692C142.927 28.6117 142.841 29.039 142.669 29.3513C142.5 29.6609 142.251 29.9017 141.924 30.0737C141.599 30.2457 141.244 30.3316 140.858 30.3316C140.239 30.3316 139.738 30.1425 139.355 29.7641C138.974 29.3857 138.784 28.8406 138.784 28.1288ZM139.554 28.1288C139.554 28.6686 139.678 29.0734 139.925 29.3433C140.172 29.6106 140.483 29.7442 140.858 29.7442C141.23 29.7442 141.539 29.6093 141.786 29.3394C142.033 29.0695 142.157 28.658 142.157 28.105C142.157 27.5837 142.032 27.1894 141.782 26.9222C141.535 26.6523 141.227 26.5173 140.858 26.5173C140.483 26.5173 140.172 26.6509 139.925 26.9182C139.678 27.1854 139.554 27.589 139.554 28.1288Z" fill="white"/>
<path d="M135.228 26.0212H135.978V27.843C136.216 27.843 136.383 27.7993 136.477 27.712C136.574 27.6247 136.716 27.3707 136.902 26.9499C137.049 26.6165 137.168 26.3969 137.26 26.2911C137.352 26.1852 137.457 26.1138 137.577 26.0767C137.696 26.0397 137.887 26.0212 138.151 26.0212H138.301V26.6126L138.093 26.6086C137.896 26.6086 137.769 26.6364 137.714 26.6919C137.656 26.7502 137.567 26.9235 137.447 27.2119C137.334 27.4871 137.23 27.6776 137.135 27.7835C137.041 27.8893 136.895 27.9859 136.698 28.0732C137.02 28.1552 137.336 28.441 137.647 28.9305L138.468 30.2364H137.643L136.844 28.9305C136.68 28.6686 136.537 28.4966 136.415 28.4146C136.293 28.3299 136.147 28.2875 135.978 28.2875V30.2364H135.228V26.0212Z" fill="white"/>
<path d="M131.718 26.0212V30.2364H130.973V28.5932H130.54C130.276 28.5932 130.079 28.6262 129.948 28.6924C129.821 28.7559 129.633 28.9636 129.386 29.3155L128.732 30.2364H127.804L128.612 29.1012C128.859 28.7546 129.104 28.5588 129.349 28.5138C128.921 28.4582 128.603 28.3114 128.395 28.0732C128.19 27.8351 128.087 27.5612 128.087 27.2516C128.087 26.8864 128.222 26.5901 128.491 26.3625C128.763 26.1349 129.156 26.0212 129.669 26.0212H131.718ZM130.973 26.6126H129.907C129.46 26.6126 129.171 26.6787 129.041 26.811C128.913 26.9433 128.849 27.0981 128.849 27.2754C128.849 27.5268 128.943 27.712 129.132 27.8311C129.324 27.9475 129.661 28.0057 130.144 28.0057H130.973V26.6126Z" fill="white"/>
<path d="M126.376 29.7164C126.098 29.9413 125.83 30.1001 125.572 30.1927C125.317 30.2853 125.042 30.3316 124.748 30.3316C124.262 30.3316 123.888 30.2192 123.627 29.9943C123.366 29.7667 123.236 29.477 123.236 29.125C123.236 28.9186 123.285 28.7308 123.382 28.5614C123.482 28.3894 123.611 28.2518 123.769 28.1486C123.93 28.0454 124.11 27.9674 124.31 27.9144C124.457 27.8774 124.68 27.8417 124.977 27.8073C125.582 27.7385 126.027 27.6564 126.313 27.5612C126.316 27.4633 126.317 27.4011 126.317 27.3746C126.317 27.0836 126.247 26.8785 126.105 26.7594C125.913 26.598 125.629 26.5173 125.251 26.5173C124.899 26.5173 124.638 26.5768 124.469 26.6959C124.302 26.8123 124.178 27.0201 124.098 27.3191L123.365 27.2238C123.432 26.9248 123.541 26.684 123.694 26.5014C123.847 26.3162 124.067 26.1746 124.356 26.0767C124.645 25.9762 124.979 25.9259 125.36 25.9259C125.737 25.9259 126.044 25.9682 126.28 26.0529C126.516 26.1376 126.689 26.2448 126.8 26.3744C126.911 26.5014 126.989 26.6628 127.034 26.8587C127.058 26.9804 127.071 27.2 127.071 27.5175V28.4701C127.071 29.1343 127.086 29.555 127.117 29.7323C127.15 29.907 127.214 30.075 127.308 30.2364H126.526C126.448 30.0882 126.398 29.9149 126.376 29.7164ZM126.313 28.1208C126.041 28.2267 125.633 28.3166 125.089 28.3907C124.781 28.4331 124.563 28.4807 124.435 28.5336C124.308 28.5866 124.209 28.6646 124.14 28.7678C124.07 28.8684 124.035 28.9808 124.035 29.1052C124.035 29.2957 124.11 29.4545 124.26 29.5815C124.413 29.7085 124.635 29.772 124.927 29.772C125.215 29.772 125.472 29.7125 125.697 29.5934C125.922 29.4717 126.087 29.3063 126.192 29.0972C126.273 28.9358 126.313 28.6977 126.313 28.3828V28.1208Z" fill="white"/>
<path d="M118.781 26.0212H119.53V27.7755H121.608V26.0212H122.357V30.2364H121.608V28.3669H119.53V30.2364H118.781V26.0212Z" fill="white"/>
<path d="M114.317 26.0212H115.066V27.6684H116.016C116.635 27.6684 117.111 27.7835 117.444 28.0137C117.78 28.2412 117.948 28.5561 117.948 28.9583C117.948 29.3103 117.808 29.6119 117.527 29.8633C117.25 30.112 116.804 30.2364 116.191 30.2364H114.317V26.0212ZM115.066 29.649H115.853C116.328 29.649 116.667 29.5934 116.869 29.4823C117.072 29.3711 117.173 29.1978 117.173 28.9623C117.173 28.7797 117.098 28.617 116.949 28.4741C116.799 28.3312 116.467 28.2598 115.953 28.2598H115.066V29.649Z" fill="white"/>
<path d="M109.716 26.0212H113.197V30.2364H112.451V26.6126H110.465V28.7122C110.465 29.2018 110.449 29.5246 110.415 29.6807C110.382 29.8368 110.29 29.9731 110.141 30.0895C109.991 30.206 109.774 30.2642 109.491 30.2642C109.316 30.2642 109.115 30.2536 108.887 30.2324V29.637H109.216C109.372 29.637 109.483 29.6225 109.549 29.5934C109.616 29.5616 109.66 29.5127 109.683 29.4465C109.705 29.3804 109.716 29.1647 109.716 28.7996V26.0212Z" fill="white"/>
<path d="M107.913 28.8789L108.687 28.9702C108.565 29.4015 108.339 29.7363 108.009 29.9744C107.678 30.2126 107.256 30.3316 106.743 30.3316C106.096 30.3316 105.582 30.1425 105.202 29.7641C104.825 29.383 104.636 28.8498 104.636 28.1645C104.636 27.4553 104.827 26.905 105.21 26.5133C105.594 26.1217 106.09 25.9259 106.701 25.9259C107.292 25.9259 107.775 26.1177 108.15 26.5014C108.525 26.8851 108.712 27.4249 108.712 28.1208C108.712 28.1632 108.711 28.2267 108.708 28.3114H105.41C105.438 28.7744 105.576 29.129 105.823 29.3751C106.07 29.6212 106.378 29.7442 106.747 29.7442C107.022 29.7442 107.256 29.6754 107.451 29.5378C107.645 29.4002 107.799 29.1806 107.913 28.8789ZM105.452 27.7239H107.921C107.888 27.3693 107.793 27.1034 107.638 26.9261C107.399 26.6509 107.09 26.5133 106.709 26.5133C106.365 26.5133 106.075 26.6231 105.839 26.8428C105.606 27.0624 105.477 27.3561 105.452 27.7239Z" fill="white"/>
<path d="M100.676 26.0212H104.269V26.6126H102.845V30.2364H102.1V26.6126H100.676V26.0212Z" fill="white"/>
<path d="M96.3164 26.0212H97.0659V29.2362L99.1437 26.0212H99.9515V30.2364H99.202V27.0412L97.1242 30.2364H96.3164V26.0212Z" fill="white"/>
<path d="M91.2905 28.1288C91.2905 27.3482 91.5182 26.77 91.9734 26.3943C92.3537 26.082 92.8173 25.9259 93.3642 25.9259C93.9721 25.9259 94.469 26.1164 94.8548 26.4975C95.2407 26.8759 95.4336 27.3998 95.4336 28.0692C95.4336 28.6117 95.3476 29.039 95.1754 29.3513C95.0061 29.6609 94.7577 29.9017 94.4301 30.0737C94.1053 30.2457 93.75 30.3316 93.3642 30.3316C92.7451 30.3316 92.2441 30.1425 91.861 29.7641C91.4807 29.3857 91.2905 28.8406 91.2905 28.1288ZM92.0608 28.1288C92.0608 28.6686 92.1844 29.0734 92.4314 29.3433C92.6785 29.6106 92.9894 29.7442 93.3642 29.7442C93.7361 29.7442 94.0456 29.6093 94.2927 29.3394C94.5398 29.0695 94.6633 28.658 94.6633 28.105C94.6633 27.5837 94.5384 27.1894 94.2885 26.9222C94.0415 26.6523 93.7333 26.5173 93.3642 26.5173C92.9894 26.5173 92.6785 26.6509 92.4314 26.9182C92.1844 27.1854 92.0608 27.589 92.0608 28.1288Z" fill="white"/>
<path d="M86.8227 31.8518V26.0212H87.5055V26.5689C87.6665 26.3546 87.8484 26.1945 88.051 26.0886C88.2536 25.9801 88.4993 25.9259 88.788 25.9259C89.1655 25.9259 89.4987 26.0185 89.7874 26.2037C90.0761 26.389 90.294 26.6509 90.4411 26.9896C90.5882 27.3257 90.6618 27.6948 90.6618 28.097C90.6618 28.5283 90.5799 28.9173 90.4161 29.264C90.2551 29.6079 90.0191 29.8726 89.7082 30.0578C89.4001 30.2404 89.0753 30.3316 88.7339 30.3316C88.4841 30.3316 88.2592 30.2814 88.0593 30.1808C87.8622 30.0803 87.6998 29.9533 87.5722 29.7998V31.8518H86.8227ZM87.5014 28.1526C87.5014 28.695 87.6166 29.0959 87.847 29.3552C88.0774 29.6146 88.3564 29.7442 88.6839 29.7442C89.017 29.7442 89.3016 29.6106 89.5375 29.3433C89.7762 29.0734 89.8956 28.6567 89.8956 28.0931C89.8956 27.5559 89.779 27.1537 89.5458 26.8864C89.3154 26.6192 89.0392 26.4856 88.7172 26.4856C88.398 26.4856 88.1149 26.6284 87.8678 26.9142C87.6235 27.1974 87.5014 27.6101 87.5014 28.1526Z" fill="white"/>
<path d="M82.513 26.0212H86.1065V26.6126H84.6824V30.2364H83.9371V26.6126H82.513V26.0212Z" fill="white"/>
<path d="M81.5387 28.6924L82.2757 28.7837C82.1952 29.2679 81.9884 29.6476 81.6552 29.9228C81.3249 30.1954 80.9182 30.3316 80.4352 30.3316C79.8301 30.3316 79.3429 30.1438 78.9737 29.768C78.6073 29.3896 78.4241 28.8485 78.4241 28.1447C78.4241 27.6895 78.5032 27.2913 78.6614 26.9499C78.8196 26.6086 79.0597 26.3532 79.3818 26.1839C79.7065 26.0119 80.0591 25.9259 80.4394 25.9259C80.9196 25.9259 81.3124 26.0423 81.6178 26.2752C81.9231 26.5054 82.1188 26.8335 82.2049 27.2595L81.4762 27.3667C81.4068 27.0836 81.2833 26.8706 81.1056 26.7277C80.9307 26.5848 80.7184 26.5133 80.4685 26.5133C80.091 26.5133 79.7843 26.643 79.5483 26.9023C79.3124 27.159 79.1944 27.5665 79.1944 28.1248C79.1944 28.6911 79.3082 29.1025 79.5358 29.3592C79.7634 29.6159 80.0605 29.7442 80.4269 29.7442C80.7211 29.7442 80.9668 29.6582 81.1639 29.4862C81.361 29.3142 81.4859 29.0496 81.5387 28.6924Z" fill="white"/>
<path d="M75.5218 28.49V27.7716H77.8244V28.49H75.5218Z" fill="white"/>
<path d="M70.7874 28.1288C70.7874 27.3482 71.0151 26.77 71.4703 26.3943C71.8506 26.082 72.3142 25.9259 72.8611 25.9259C73.469 25.9259 73.9659 26.1164 74.3518 26.4975C74.7376 26.8759 74.9305 27.3998 74.9305 28.0692C74.9305 28.6117 74.8445 29.039 74.6724 29.3513C74.503 29.6609 74.2546 29.9017 73.927 30.0737C73.6022 30.2457 73.2469 30.3316 72.8611 30.3316C72.242 30.3316 71.741 30.1425 71.3579 29.7641C70.9776 29.3857 70.7874 28.8406 70.7874 28.1288ZM71.5578 28.1288C71.5578 28.6686 71.6813 29.0734 71.9284 29.3433C72.1754 29.6106 72.4863 29.7442 72.8611 29.7442C73.233 29.7442 73.5426 29.6093 73.7896 29.3394C74.0367 29.0695 74.1602 28.658 74.1602 28.105C74.1602 27.5837 74.0353 27.1894 73.7855 26.9222C73.5384 26.6523 73.2303 26.5173 72.8611 26.5173C72.4863 26.5173 72.1754 26.6509 71.9284 26.9182C71.6813 27.1854 71.5578 27.589 71.5578 28.1288Z" fill="white"/>
<path d="M66.6402 26.0212H68.3682C68.7929 26.0212 69.108 26.0556 69.3134 26.1244C69.5216 26.1905 69.6993 26.3136 69.8464 26.4935C69.9963 26.6734 70.0713 26.8891 70.0713 27.1405C70.0713 27.3416 70.0268 27.5175 69.938 27.6684C69.852 27.8165 69.7215 27.9409 69.5466 28.0415C69.7548 28.1076 69.9269 28.232 70.0629 28.4146C70.2017 28.5945 70.2711 28.8088 70.2711 29.0576C70.2434 29.4571 70.0935 29.7535 69.8214 29.9466C69.5494 30.1398 69.1538 30.2364 68.6347 30.2364H66.6402V26.0212ZM67.3897 27.7954H68.1892C68.5084 27.7954 68.7277 27.7795 68.8471 27.7477C68.9664 27.716 69.0733 27.6525 69.1677 27.5572C69.2621 27.4593 69.3093 27.3429 69.3093 27.2079C69.3093 26.9857 69.226 26.8309 69.0594 26.7435C68.8956 26.6562 68.6139 26.6126 68.2142 26.6126H67.3897V27.7954ZM67.3897 29.649H68.3765C68.8013 29.649 69.0927 29.6026 69.251 29.51C69.4092 29.4148 69.4925 29.252 69.5008 29.0218C69.5008 28.8869 69.455 28.7625 69.3634 28.6487C69.2718 28.5323 69.1524 28.4595 69.0053 28.4304C68.8582 28.3987 68.6222 28.3828 68.2974 28.3828H67.3897V29.649Z" fill="white"/>
<path d="M61.6102 28.1288C61.6102 27.3482 61.8378 26.77 62.2931 26.3943C62.6734 26.082 63.137 25.9259 63.6838 25.9259C64.2918 25.9259 64.7886 26.1164 65.1745 26.4975C65.5604 26.8759 65.7533 27.3998 65.7533 28.0692C65.7533 28.6117 65.6672 29.039 65.4951 29.3513C65.3258 29.6609 65.0773 29.9017 64.7498 30.0737C64.425 30.2457 64.0697 30.3316 63.6838 30.3316C63.0648 30.3316 62.5637 30.1425 62.1807 29.7641C61.8003 29.3857 61.6102 28.8406 61.6102 28.1288ZM62.3805 28.1288C62.3805 28.6686 62.504 29.0734 62.7511 29.3433C62.9982 29.6106 63.3091 29.7442 63.6838 29.7442C64.0558 29.7442 64.3653 29.6093 64.6124 29.3394C64.8594 29.0695 64.983 28.658 64.983 28.105C64.983 27.5837 64.858 27.1894 64.6082 26.9222C64.3611 26.6523 64.053 26.5173 63.6838 26.5173C63.3091 26.5173 62.9982 26.6509 62.7511 26.9182C62.504 27.1854 62.3805 27.589 62.3805 28.1288Z" fill="white"/>
<path d="M58.9703 26.0212H61.5144V26.6126H59.7198V30.2364H58.9703V26.0212Z" fill="white"/>
<path d="M54.2193 31.8518V26.0212H54.9021V26.5689C55.0631 26.3546 55.245 26.1945 55.4476 26.0886C55.6503 25.9801 55.8959 25.9259 56.1846 25.9259C56.5622 25.9259 56.8953 26.0185 57.184 26.2037C57.4727 26.389 57.6906 26.6509 57.8377 26.9896C57.9848 27.3257 58.0584 27.6948 58.0584 28.097C58.0584 28.5283 57.9765 28.9173 57.8127 29.264C57.6517 29.6079 57.4158 29.8726 57.1048 30.0578C56.7967 30.2404 56.4719 30.3316 56.1305 30.3316C55.8807 30.3316 55.6558 30.2814 55.4559 30.1808C55.2588 30.0803 55.0965 29.9533 54.9688 29.7998V31.8518H54.2193ZM54.898 28.1526C54.898 28.695 55.0132 29.0959 55.2436 29.3552C55.474 29.6146 55.753 29.7442 56.0805 29.7442C56.4136 29.7442 56.6982 29.6106 56.9341 29.3433C57.1729 29.0734 57.2922 28.6567 57.2922 28.0931C57.2922 27.5559 57.1756 27.1537 56.9425 26.8864C56.7121 26.6192 56.4358 26.4856 56.1138 26.4856C55.7946 26.4856 55.5115 26.6284 55.2644 26.9142C55.0201 27.1974 54.898 27.6101 54.898 28.1526Z" fill="white"/>
<path d="M49.1934 28.1288C49.1934 27.3482 49.4211 26.77 49.8763 26.3943C50.2566 26.082 50.7202 25.9259 51.267 25.9259C51.875 25.9259 52.3719 26.1164 52.7577 26.4975C53.1436 26.8759 53.3365 27.3998 53.3365 28.0692C53.3365 28.6117 53.2505 29.039 53.0783 29.3513C52.909 29.6609 52.6606 29.9017 52.333 30.0737C52.0082 30.2457 51.6529 30.3316 51.267 30.3316C50.648 30.3316 50.147 30.1425 49.7639 29.7641C49.3836 29.3857 49.1934 28.8406 49.1934 28.1288ZM49.9637 28.1288C49.9637 28.6686 50.0873 29.0734 50.3343 29.3433C50.5814 29.6106 50.8923 29.7442 51.267 29.7442C51.639 29.7442 51.9485 29.6093 52.1956 29.3394C52.4427 29.0695 52.5662 28.658 52.5662 28.105C52.5662 27.5837 52.4413 27.1894 52.1914 26.9222C51.9444 26.6523 51.6362 26.5173 51.267 26.5173C50.8923 26.5173 50.5814 26.6509 50.3343 26.9182C50.0873 27.1854 49.9637 27.589 49.9637 28.1288Z" fill="white"/>
<path d="M45.2627 26.0212H48.8561V26.6126H47.4321V30.2364H46.6868V26.6126H45.2627V26.0212Z" fill="white"/>
<path d="M169.528 17.6519H162.497V15.4148H169.528V17.6519ZM172 19.7462H168.993L165.62 10.3694H166.321L162.948 19.7462H160.059L164.468 8.40205H167.574L172 19.7462Z" fill="white"/>
<path d="M149.804 19.7462V8.40205H154.898C155.655 8.40205 156.312 8.52369 156.868 8.76697C157.436 9.01025 157.876 9.35401 158.188 9.79826C158.499 10.2319 158.655 10.7449 158.655 11.3373C158.655 11.8978 158.499 12.395 158.188 12.8286C157.876 13.2623 157.436 13.6008 156.868 13.8441C156.312 14.0873 155.655 14.209 154.898 14.209H152.727V13.3681H154.881C155.727 13.3681 156.467 13.495 157.102 13.7489C157.737 13.9922 158.232 14.3412 158.588 14.796C158.945 15.2508 159.123 15.7903 159.123 16.4144C159.123 17.0807 158.945 17.6678 158.588 18.1755C158.232 18.6726 157.737 19.0587 157.102 19.3337C156.467 19.6087 155.727 19.7462 154.881 19.7462H149.804ZM152.576 17.5408H154.898C155.343 17.5408 155.694 17.4298 155.95 17.2076C156.206 16.9749 156.334 16.6523 156.334 16.2398C156.334 15.859 156.206 15.5629 155.95 15.3513C155.694 15.1292 155.343 15.0181 154.898 15.0181H152.409V12.8762H154.697C155.065 12.8762 155.348 12.7705 155.549 12.5589C155.76 12.3474 155.866 12.0565 155.866 11.6863C155.866 11.3478 155.76 11.0834 155.549 10.893C155.348 10.7026 155.065 10.6074 154.697 10.6074H152.576V17.5408Z" fill="white"/>
<path d="M137.083 19.7462V8.40205H139.855V16.8745L139.22 16.5413L144.297 8.40205H147.17V19.7462H144.398V11.48L144.999 11.5594L139.972 19.7462H137.083Z" fill="white"/>
<path d="M131.922 19.7462H129.167V10.5122H131.922V19.7462ZM135.279 10.6709H125.81V8.40205H135.279V10.6709Z" fill="white"/>
<path d="M116.794 19.7462H114.022V8.40205H116.794V19.7462ZM124.994 19.7462H121.403L116.393 13.8599H116.644L121.003 8.40205H124.343L119.65 14.0979V13.6219L124.994 19.7462Z" fill="white"/>
<path d="M111.98 19.7462H103.763V8.40205H111.98V10.6392H106.536V17.5091H111.98V19.7462ZM111.679 15.1609H106.369V12.9238H111.679V15.1609Z" fill="white"/>
<path d="M91.1891 19.7462V8.40205H101.126V19.7462H98.3536V8.95736L99.7063 10.6709H92.4583L93.9614 8.97323V19.7462H91.1891Z" fill="white"/>
<path d="M87.506 16.1288L89.2762 17.8899C88.7307 18.5562 88.0459 19.0745 87.2221 19.4447C86.4093 19.8149 85.5409 20 84.6168 20C83.7261 20 82.9078 19.8573 82.1618 19.5717C81.4158 19.2755 80.7701 18.8683 80.2245 18.35C79.679 17.8211 79.2559 17.1918 78.9553 16.4619C78.6658 15.7321 78.5211 14.9335 78.5211 14.0662C78.5211 13.1988 78.6714 12.4056 78.972 11.6863C79.2726 10.9565 79.6957 10.3324 80.2412 9.81412C80.7868 9.28525 81.4381 8.87803 82.1952 8.59244C82.9523 8.29627 83.7817 8.14819 84.6836 8.14819C85.6077 8.14819 86.465 8.3333 87.2555 8.7035C88.0571 9.06313 88.7307 9.58141 89.2762 10.2584L87.506 12.0195C87.172 11.5435 86.7544 11.1733 86.2534 10.9089C85.7635 10.6339 85.2403 10.4964 84.6836 10.4964C84.049 10.4964 83.4867 10.6497 82.9968 10.9565C82.5069 11.2526 82.1228 11.6704 81.8445 12.2099C81.5773 12.7387 81.4437 13.3575 81.4437 14.0662C81.4437 14.7749 81.5773 15.3989 81.8445 15.9384C82.1228 16.4778 82.5014 16.9009 82.9801 17.2076C83.47 17.5038 84.0378 17.6519 84.6836 17.6519C85.2403 17.6519 85.7635 17.5197 86.2534 17.2552C86.7544 16.9802 87.172 16.6047 87.506 16.1288Z" fill="white"/>
<path d="M70.8677 19.7462H68.0954V8.40205H72.805C73.64 8.40205 74.3748 8.55542 75.0094 8.86217C75.6552 9.16891 76.1562 9.59729 76.5125 10.1473C76.8687 10.6867 77.0469 11.3161 77.0469 12.0354C77.0469 12.7546 76.8687 13.3892 76.5125 13.9393C76.1562 14.4893 75.6552 14.9177 75.0094 15.2244C74.3748 15.5206 73.64 15.6687 72.805 15.6687H70.7007V13.4316H72.805C73.2503 13.4316 73.601 13.3046 73.8571 13.0508C74.1243 12.7969 74.2579 12.4584 74.2579 12.0354C74.2579 11.6017 74.1243 11.2632 73.8571 11.0199C73.601 10.7661 73.2503 10.6392 72.805 10.6392H70.8677V19.7462Z" fill="white"/>
<path d="M66.0536 19.7462H57.837V8.40205H66.0536V10.6392H60.6093V17.5091H66.0536V19.7462ZM65.753 15.1609H60.4423V12.9238H65.753V15.1609Z" fill="white"/>
<path d="M45.2627 19.7462V8.40205H55.1995V19.7462H52.4272V8.95736L53.78 10.6709H46.5319L48.035 8.97323V19.7462H45.2627Z" fill="white"/>
<path fill-rule="evenodd" clip-rule="evenodd" d="M36.2102 9.78954V30.2105L18.8516 40V14.1655L25.3854 9.06022V32.9461L33.2236 28.526V11.4732L18.8516 3.36811V0L36.2102 9.78954ZM20.1589 20H21.6522V18.5414H20.1589V20ZM22.3988 20H23.8921V18.5414H22.3988V20ZM20.1589 17.812H21.6522V16.3534H20.1589V17.812ZM22.3988 17.812H23.8921V16.3534H22.3988V17.812Z" fill="#B81618"/>
</svg>
