<svg width="168" height="120" viewBox="0 0 168 120" fill="none" xmlns="http://www.w3.org/2000/svg">
<path fill-rule="evenodd" clip-rule="evenodd" d="M82.6804 6.0626L57.2786 20.6518V51.3469L70.475 58.9261V19.9198L82.6804 29.4361V72L52 54.3788V17.6212L82.6804 0V6.0626ZM73.1143 42.5639V45.1894H75.7535V42.5639H73.1143ZM77.0732 42.5639V45.1894H79.7125V42.5639H77.0732ZM73.1143 38.6255V41.2511H75.7535V38.6255H73.1143ZM77.0732 38.6255V41.2511H79.7125V38.6255H77.0732Z" fill="white"/>
<path fill-rule="evenodd" clip-rule="evenodd" d="M116 17.6212V54.3788L85.3196 72V25.4978L96.8678 16.3084V59.303L110.721 51.3469V20.6518L85.3196 6.0626V0L116 17.6212ZM87.6303 36H90.2696V33.3745H87.6303V36ZM91.5892 36H94.2285V33.3745H91.5892V36ZM87.6303 32.0617H90.2696V29.4361H87.6303V32.0617ZM91.5892 32.0617H94.2285V29.4361H91.5892V32.0617Z" fill="white"/>
<path d="M168 112.129V117.819H167.012V115.601H166.438C166.088 115.601 165.827 115.645 165.654 115.735C165.485 115.82 165.237 116.101 164.909 116.576L164.042 117.819H162.812L163.882 116.287C164.21 115.819 164.536 115.554 164.859 115.494C164.293 115.419 163.871 115.22 163.595 114.899C163.323 114.577 163.187 114.208 163.187 113.79C163.187 113.297 163.365 112.897 163.722 112.589C164.083 112.282 164.604 112.129 165.284 112.129H168ZM167.012 112.927H165.599C165.007 112.927 164.624 113.016 164.451 113.195C164.282 113.374 164.197 113.582 164.197 113.822C164.197 114.161 164.322 114.411 164.572 114.572C164.826 114.729 165.273 114.808 165.914 114.808H167.012V112.927Z" fill="white"/>
<path d="M157.071 112.129H158.065V116.469L160.819 112.129H161.89V117.819H160.896V113.506L158.142 117.819H157.071V112.129Z" fill="white"/>
<path d="M150.829 112.129H151.822V114.497H154.576V112.129H155.57V117.819H154.576V115.295H151.822V117.819H150.829V112.129Z" fill="white"/>
<path d="M148.356 117.117C147.988 117.421 147.633 117.635 147.29 117.76C146.952 117.885 146.588 117.948 146.198 117.948C145.554 117.948 145.059 117.796 144.713 117.492C144.367 117.185 144.194 116.794 144.194 116.319C144.194 116.04 144.258 115.787 144.387 115.558C144.52 115.326 144.691 115.14 144.9 115.001C145.114 114.861 145.353 114.756 145.618 114.685C145.813 114.635 146.107 114.586 146.501 114.54C147.303 114.447 147.894 114.336 148.273 114.208C148.277 114.075 148.278 113.992 148.278 113.956C148.278 113.563 148.185 113.286 147.997 113.125C147.743 112.907 147.366 112.798 146.865 112.798C146.398 112.798 146.052 112.879 145.828 113.04C145.607 113.197 145.443 113.477 145.337 113.881L144.365 113.752C144.453 113.349 144.599 113.023 144.801 112.777C145.004 112.527 145.296 112.336 145.679 112.204C146.061 112.068 146.505 112 147.009 112C147.509 112 147.916 112.057 148.229 112.171C148.542 112.286 148.772 112.43 148.919 112.605C149.066 112.777 149.169 112.995 149.228 113.259C149.261 113.424 149.278 113.72 149.278 114.149V115.435C149.278 116.331 149.298 116.899 149.338 117.139C149.382 117.374 149.467 117.601 149.592 117.819H148.554C148.451 117.619 148.385 117.385 148.356 117.117ZM148.273 114.963C147.912 115.106 147.371 115.228 146.65 115.328C146.242 115.385 145.953 115.449 145.784 115.52C145.614 115.592 145.484 115.697 145.392 115.837C145.3 115.972 145.254 116.124 145.254 116.292C145.254 116.549 145.353 116.764 145.552 116.935C145.754 117.106 146.049 117.192 146.435 117.192C146.818 117.192 147.158 117.112 147.456 116.951C147.754 116.787 147.973 116.564 148.113 116.281C148.22 116.063 148.273 115.742 148.273 115.317V114.963Z" fill="white"/>
<path d="M138.409 112.129H143.035V117.819H142.041V112.927H139.403V117.819H138.409V112.129Z" fill="white"/>
<path d="M130.66 112.129H132.205L133.745 116.683L135.456 112.129H136.886V117.819H135.893V113.238L134.159 117.819H133.271L131.631 113.018V117.819H130.66V112.129Z" fill="white"/>
<path d="M123.97 114.974C123.97 113.92 124.272 113.14 124.875 112.632C125.38 112.211 125.994 112 126.719 112C127.525 112 128.183 112.257 128.695 112.772C129.206 113.282 129.462 113.99 129.462 114.894C129.462 115.626 129.348 116.203 129.12 116.624C128.895 117.042 128.566 117.367 128.132 117.599C127.701 117.832 127.23 117.948 126.719 117.948C125.898 117.948 125.234 117.692 124.726 117.182C124.222 116.671 123.97 115.935 123.97 114.974ZM124.991 114.974C124.991 115.703 125.155 116.249 125.483 116.614C125.81 116.974 126.222 117.155 126.719 117.155C127.212 117.155 127.622 116.973 127.95 116.608C128.277 116.244 128.441 115.688 128.441 114.942C128.441 114.238 128.275 113.706 127.944 113.345C127.617 112.981 127.208 112.798 126.719 112.798C126.222 112.798 125.81 112.979 125.483 113.34C125.155 113.7 124.991 114.245 124.991 114.974Z" fill="white"/>
<path d="M119.256 112.129H120.25V114.588C120.566 114.588 120.787 114.529 120.912 114.411C121.041 114.293 121.229 113.95 121.475 113.382C121.67 112.932 121.829 112.636 121.95 112.493C122.071 112.35 122.211 112.254 122.369 112.204C122.528 112.154 122.782 112.129 123.131 112.129H123.33V112.927L123.054 112.922C122.793 112.922 122.625 112.959 122.552 113.034C122.474 113.113 122.357 113.347 122.198 113.736C122.048 114.108 121.91 114.365 121.784 114.508C121.659 114.651 121.466 114.781 121.205 114.899C121.632 115.01 122.051 115.395 122.463 116.056L123.551 117.819H122.458L121.398 116.056C121.181 115.703 120.991 115.47 120.83 115.36C120.668 115.245 120.474 115.188 120.25 115.188V117.819H119.256V112.129Z" fill="white"/>
<path d="M114.603 112.129V117.819H113.615V115.601H113.041C112.692 115.601 112.431 115.645 112.258 115.735C112.088 115.82 111.84 116.101 111.512 116.576L110.646 117.819H109.415L110.486 116.287C110.813 115.819 111.139 115.554 111.463 115.494C110.896 115.419 110.475 115.22 110.199 114.899C109.926 114.577 109.79 114.208 109.79 113.79C109.79 113.297 109.969 112.897 110.326 112.589C110.686 112.282 111.207 112.129 111.888 112.129H114.603ZM113.615 112.927H112.202C111.61 112.927 111.227 113.016 111.054 113.195C110.885 113.374 110.8 113.582 110.8 113.822C110.8 114.161 110.926 114.411 111.176 114.572C111.43 114.729 111.877 114.808 112.517 114.808H113.615V112.927Z" fill="white"/>
<path d="M107.522 117.117C107.154 117.421 106.799 117.635 106.456 117.76C106.118 117.885 105.754 117.948 105.364 117.948C104.72 117.948 104.225 117.796 103.879 117.492C103.533 117.185 103.36 116.794 103.36 116.319C103.36 116.04 103.424 115.787 103.553 115.558C103.686 115.326 103.857 115.14 104.066 115.001C104.28 114.861 104.519 114.756 104.784 114.685C104.979 114.635 105.273 114.586 105.667 114.54C106.469 114.447 107.06 114.336 107.439 114.208C107.443 114.075 107.444 113.992 107.444 113.956C107.444 113.563 107.351 113.286 107.163 113.125C106.909 112.907 106.532 112.798 106.031 112.798C105.564 112.798 105.218 112.879 104.994 113.04C104.773 113.197 104.609 113.477 104.503 113.881L103.531 113.752C103.619 113.349 103.765 113.023 103.967 112.777C104.17 112.527 104.462 112.336 104.845 112.204C105.227 112.068 105.671 112 106.175 112C106.675 112 107.082 112.057 107.395 112.171C107.708 112.286 107.938 112.43 108.085 112.605C108.232 112.777 108.335 112.995 108.394 113.259C108.427 113.424 108.444 113.72 108.444 114.149V115.435C108.444 116.331 108.464 116.899 108.504 117.139C108.548 117.374 108.633 117.601 108.758 117.819H107.72C107.617 117.619 107.551 117.385 107.522 117.117ZM107.439 114.963C107.078 115.106 106.537 115.228 105.816 115.328C105.408 115.385 105.119 115.449 104.95 115.52C104.78 115.592 104.65 115.697 104.558 115.837C104.466 115.972 104.42 116.124 104.42 116.292C104.42 116.549 104.519 116.764 104.718 116.935C104.92 117.106 105.215 117.192 105.601 117.192C105.984 117.192 106.324 117.112 106.622 116.951C106.92 116.787 107.139 116.564 107.279 116.281C107.386 116.063 107.439 115.742 107.439 115.317V114.963Z" fill="white"/>
<path d="M97.454 112.129H98.4475V114.497H101.202V112.129H102.195V117.819H101.202V115.295H98.4475V117.819H97.454V112.129Z" fill="white"/>
<path d="M91.537 112.129H92.5305V114.352H93.789C94.6096 114.352 95.2407 114.508 95.6822 114.818C96.1275 115.126 96.3501 115.551 96.3501 116.094C96.3501 116.569 96.1643 116.976 95.7926 117.315C95.4247 117.651 94.8341 117.819 94.0208 117.819H91.537V112.129ZM92.5305 117.026H93.5737C94.203 117.026 94.6519 116.951 94.9205 116.801C95.1891 116.651 95.3235 116.417 95.3235 116.099C95.3235 115.853 95.2241 115.633 95.0254 115.44C94.8267 115.247 94.387 115.151 93.7062 115.151H92.5305V117.026Z" fill="white"/>
<path d="M85.4379 112.129H90.0522V117.819H89.0642V112.927H86.4314V115.762C86.4314 116.422 86.4093 116.858 86.3652 117.069C86.321 117.28 86.1996 117.464 86.0009 117.621C85.8021 117.778 85.5151 117.857 85.1398 117.857C84.908 117.857 84.6412 117.842 84.3395 117.814V117.01H84.7755C84.9816 117.01 85.1288 116.99 85.2171 116.951C85.3054 116.908 85.3643 116.842 85.3937 116.753C85.4231 116.664 85.4379 116.372 85.4379 115.879V112.129Z" fill="white"/>
<path d="M83.0479 115.987L84.0745 116.11C83.9126 116.692 83.6127 117.144 83.1748 117.466C82.7369 117.787 82.1776 117.948 81.4969 117.948C80.6395 117.948 79.9587 117.692 79.4546 117.182C78.9542 116.667 78.7039 115.947 78.7039 115.022C78.7039 114.065 78.9578 113.322 79.4657 112.793C79.9735 112.264 80.6321 112 81.4417 112C82.2254 112 82.8657 112.259 83.3625 112.777C83.8593 113.295 84.1076 114.024 84.1076 114.963C84.1076 115.02 84.1058 115.106 84.1021 115.22H79.7306C79.7674 115.846 79.9495 116.324 80.277 116.656C80.6045 116.989 81.013 117.155 81.5024 117.155C81.8667 117.155 82.1776 117.062 82.4352 116.876C82.6928 116.69 82.897 116.394 83.0479 115.987ZM79.7858 114.427H83.0589C83.0148 113.949 82.8896 113.59 82.6836 113.35C82.3671 112.979 81.9568 112.793 81.4527 112.793C80.9964 112.793 80.6119 112.941 80.2991 113.238C79.99 113.534 79.8189 113.931 79.7858 114.427Z" fill="white"/>
<path d="M73.4548 112.129H78.2182V112.927H76.3305V117.819H75.3425V112.927H73.4548V112.129Z" fill="white"/>
<path d="M67.6758 112.129H68.6693V116.469L71.4236 112.129H72.4944V117.819H71.5009V113.506L68.7466 117.819H67.6758V112.129Z" fill="white"/>
<path d="M61.0136 114.974C61.0136 113.92 61.3154 113.14 61.9188 112.632C62.423 112.211 63.0375 112 63.7624 112C64.5683 112 65.2269 112.257 65.7384 112.772C66.2499 113.282 66.5056 113.99 66.5056 114.894C66.5056 115.626 66.3916 116.203 66.1634 116.624C65.939 117.042 65.6096 117.367 65.1754 117.599C64.7449 117.832 64.2739 117.948 63.7624 117.948C62.9418 117.948 62.2776 117.692 61.7698 117.182C61.2657 116.671 61.0136 115.935 61.0136 114.974ZM62.0348 114.974C62.0348 115.703 62.1985 116.249 62.526 116.614C62.8535 116.974 63.2656 117.155 63.7624 117.155C64.2555 117.155 64.6658 116.973 64.9933 116.608C65.3208 116.244 65.4845 115.688 65.4845 114.942C65.4845 114.238 65.3189 113.706 64.9877 113.345C64.6602 112.981 64.2518 112.798 63.7624 112.798C63.2656 112.798 62.8535 112.979 62.526 113.34C62.1985 113.7 62.0348 114.245 62.0348 114.974Z" fill="white"/>
<path d="M55.0911 120V112.129H55.9963V112.868C56.2097 112.579 56.4508 112.363 56.7194 112.22C56.988 112.073 57.3137 112 57.6964 112C58.1968 112 58.6384 112.125 59.0211 112.375C59.4038 112.625 59.6926 112.979 59.8876 113.436C60.0827 113.89 60.1802 114.388 60.1802 114.931C60.1802 115.513 60.0716 116.038 59.8545 116.506C59.6411 116.971 59.3283 117.328 58.9162 117.578C58.5077 117.825 58.0772 117.948 57.6246 117.948C57.2934 117.948 56.9954 117.88 56.7304 117.744C56.4692 117.608 56.2539 117.437 56.0846 117.23V120H55.0911ZM55.9908 115.006C55.9908 115.738 56.1435 116.28 56.4489 116.63C56.7543 116.98 57.1242 117.155 57.5584 117.155C57.9999 117.155 58.3771 116.974 58.6899 116.614C59.0063 116.249 59.1646 115.687 59.1646 114.926C59.1646 114.2 59.01 113.658 58.7009 113.297C58.3955 112.936 58.0294 112.756 57.6025 112.756C57.1794 112.756 56.804 112.948 56.4765 113.334C56.1527 113.716 55.9908 114.274 55.9908 115.006Z" fill="white"/>
<path d="M49.3783 112.129H54.1417V112.927H52.254V117.819H51.266V112.927H49.3783V112.129Z" fill="white"/>
<path d="M48.0867 115.735L49.0637 115.858C48.957 116.512 48.6829 117.024 48.2413 117.396C47.8034 117.764 47.2643 117.948 46.624 117.948C45.8219 117.948 45.1761 117.694 44.6867 117.187C44.2009 116.676 43.9581 115.946 43.9581 114.995C43.9581 114.381 44.063 113.843 44.2727 113.382C44.4824 112.922 44.8007 112.577 45.2276 112.348C45.6581 112.116 46.1254 112 46.6296 112C47.2662 112 47.7868 112.157 48.1916 112.472C48.5964 112.782 48.8558 113.225 48.9699 113.8L48.0039 113.945C47.9119 113.563 47.7482 113.275 47.5127 113.082C47.2809 112.889 46.9994 112.793 46.6682 112.793C46.1678 112.793 45.7611 112.968 45.4484 113.318C45.1356 113.665 44.9792 114.215 44.9792 114.969C44.9792 115.733 45.1301 116.288 45.4318 116.635C45.7335 116.981 46.1273 117.155 46.613 117.155C47.0031 117.155 47.3287 117.039 47.59 116.806C47.8512 116.574 48.0168 116.217 48.0867 115.735Z" fill="white"/>
<path d="M40.1109 115.461V114.492H43.1633V115.461H40.1109Z" fill="white"/>
<path d="M33.8351 114.974C33.8351 113.92 34.1369 113.14 34.7403 112.632C35.2445 112.211 35.859 112 36.5839 112C37.3898 112 38.0484 112.257 38.5599 112.772C39.0714 113.282 39.3271 113.99 39.3271 114.894C39.3271 115.626 39.2131 116.203 38.9849 116.624C38.7605 117.042 38.4311 117.367 37.9969 117.599C37.5664 117.832 37.0954 117.948 36.5839 117.948C35.7633 117.948 35.0991 117.692 34.5913 117.182C34.0872 116.671 33.8351 115.935 33.8351 114.974ZM34.8563 114.974C34.8563 115.703 35.02 116.249 35.3475 116.614C35.675 116.974 36.0871 117.155 36.5839 117.155C37.077 117.155 37.4873 116.973 37.8148 116.608C38.1423 116.244 38.306 115.688 38.306 114.942C38.306 114.238 38.1404 113.706 37.8092 113.345C37.4818 112.981 37.0733 112.798 36.5839 112.798C36.0871 112.798 35.675 112.979 35.3475 113.34C35.02 113.7 34.8563 114.245 34.8563 114.974Z" fill="white"/>
<path d="M28.3376 112.129H30.6282C31.1912 112.129 31.6089 112.175 31.8812 112.268C32.1572 112.357 32.3927 112.523 32.5877 112.766C32.7864 113.009 32.8858 113.3 32.8858 113.64C32.8858 113.911 32.8269 114.149 32.7091 114.352C32.5951 114.552 32.4221 114.72 32.1903 114.856C32.4663 114.945 32.6944 115.113 32.8747 115.36C33.0587 115.603 33.1507 115.892 33.1507 116.228C33.1139 116.767 32.9152 117.167 32.5546 117.428C32.194 117.689 31.6696 117.819 30.9815 117.819H28.3376V112.129ZM29.3311 114.524H30.3909C30.8141 114.524 31.1048 114.502 31.263 114.459C31.4212 114.417 31.5629 114.331 31.688 114.202C31.8131 114.07 31.8757 113.913 31.8757 113.731C31.8757 113.431 31.7653 113.222 31.5445 113.104C31.3274 112.986 30.9539 112.927 30.424 112.927H29.3311V114.524ZM29.3311 117.026H30.6393C31.2023 117.026 31.5887 116.964 31.7984 116.839C32.0081 116.71 32.1185 116.49 32.1296 116.18C32.1296 115.997 32.0689 115.829 31.9474 115.676C31.826 115.519 31.6678 115.42 31.4727 115.381C31.2777 115.338 30.9649 115.317 30.5344 115.317H29.3311V117.026Z" fill="white"/>
<path d="M21.6699 114.974C21.6699 113.92 21.9717 113.14 22.5752 112.632C23.0793 112.211 23.6938 112 24.4187 112C25.2246 112 25.8832 112.257 26.3947 112.772C26.9062 113.282 27.1619 113.99 27.1619 114.894C27.1619 115.626 27.0479 116.203 26.8197 116.624C26.5953 117.042 26.2659 117.367 25.8317 117.599C25.4012 117.832 24.9302 117.948 24.4187 117.948C23.5981 117.948 22.9339 117.692 22.4261 117.182C21.922 116.671 21.6699 115.935 21.6699 114.974ZM22.6911 114.974C22.6911 115.703 22.8548 116.249 23.1823 116.614C23.5098 116.974 23.9219 117.155 24.4187 117.155C24.9118 117.155 25.3221 116.973 25.6496 116.608C25.9771 116.244 26.1408 115.688 26.1408 114.942C26.1408 114.238 25.9752 113.706 25.6441 113.345C25.3166 112.981 24.9081 112.798 24.4187 112.798C23.9219 112.798 23.5098 112.979 23.1823 113.34C22.8548 113.7 22.6911 114.245 22.6911 114.974Z" fill="white"/>
<path d="M18.1705 112.129H21.543V112.927H19.164V117.819H18.1705V112.129Z" fill="white"/>
<path d="M11.8727 120V112.129H12.7779V112.868C12.9913 112.579 13.2323 112.363 13.5009 112.22C13.7696 112.073 14.0952 112 14.4779 112C14.9783 112 15.4199 112.125 15.8026 112.375C16.1853 112.625 16.4742 112.979 16.6692 113.436C16.8642 113.89 16.9617 114.388 16.9617 114.931C16.9617 115.513 16.8532 116.038 16.6361 116.506C16.4226 116.971 16.1099 117.328 15.6977 117.578C15.2893 117.825 14.8588 117.948 14.4062 117.948C14.075 117.948 13.7769 117.88 13.512 117.744C13.2507 117.608 13.0354 117.437 12.8662 117.23V120H11.8727ZM12.7723 115.006C12.7723 115.738 12.9251 116.28 13.2305 116.63C13.5359 116.98 13.9057 117.155 14.3399 117.155C14.7815 117.155 15.1587 116.974 15.4714 116.614C15.7879 116.249 15.9461 115.687 15.9461 114.926C15.9461 114.2 15.7916 113.658 15.4825 113.297C15.1771 112.936 14.8109 112.756 14.3841 112.756C13.9609 112.756 13.5856 112.948 13.2581 113.334C12.9343 113.716 12.7723 114.274 12.7723 115.006Z" fill="white"/>
<path d="M5.2105 114.974C5.2105 113.92 5.51224 113.14 6.11571 112.632C6.61984 112.211 7.23435 112 7.95926 112C8.76512 112 9.42379 112.257 9.93528 112.772C10.4468 113.282 10.7025 113.99 10.7025 114.894C10.7025 115.626 10.5884 116.203 10.3603 116.624C10.1358 117.042 9.80649 117.367 9.37228 117.599C8.94175 117.832 8.47074 117.948 7.95926 117.948C7.13868 117.948 6.47449 117.692 5.96669 117.182C5.46256 116.671 5.2105 115.935 5.2105 114.974ZM6.23163 114.974C6.23163 115.703 6.39537 116.249 6.72287 116.614C7.05037 116.974 7.4625 117.155 7.95926 117.155C8.45234 117.155 8.86263 116.973 9.19013 116.608C9.51763 116.244 9.68137 115.688 9.68137 114.942C9.68137 114.238 9.51579 113.706 9.18461 113.345C8.85711 112.981 8.44866 112.798 7.95926 112.798C7.4625 112.798 7.05037 112.979 6.72287 113.34C6.39537 113.7 6.23163 114.245 6.23163 114.974Z" fill="white"/>
<path d="M0 112.129H4.76341V112.927H2.87571V117.819H1.8877V112.927H0V112.129Z" fill="white"/>
<path d="M164.724 96.83H155.404V93.8099H164.724V96.83ZM168 99.6573H164.015L159.543 86.9987H160.473L156.001 99.6573H152.171L158.016 84.3427H162.133L168 99.6573Z" fill="white"/>
<path d="M138.578 99.6573V84.3427H145.33C146.334 84.3427 147.204 84.5069 147.942 84.8353C148.695 85.1638 149.278 85.6279 149.691 86.2276C150.104 86.813 150.311 87.5056 150.311 88.3052C150.311 89.062 150.104 89.7332 149.691 90.3186C149.278 90.9041 148.695 91.361 147.942 91.6894C147.204 92.0179 146.334 92.1821 145.33 92.1821H142.452V91.0469H145.308C146.429 91.0469 147.411 91.2182 148.252 91.5609C149.093 91.8893 149.75 92.3606 150.222 92.9746C150.695 93.5886 150.931 94.3168 150.931 95.1593C150.931 96.0589 150.695 96.8514 150.222 97.5368C149.75 98.208 149.093 98.7291 148.252 99.1004C147.411 99.4717 146.429 99.6573 145.308 99.6573H138.578ZM142.253 96.6801H145.33C145.92 96.6801 146.385 96.5301 146.725 96.2303C147.064 95.9161 147.234 95.4806 147.234 94.9237C147.234 94.4096 147.064 94.0098 146.725 93.7242C146.385 93.4244 145.92 93.2744 145.33 93.2744H142.031V90.3829H145.064C145.551 90.3829 145.928 90.2401 146.193 89.9545C146.474 89.6689 146.614 89.2762 146.614 88.7764C146.614 88.3195 146.474 87.9625 146.193 87.7055C145.928 87.4485 145.551 87.32 145.064 87.32H142.253V96.6801Z" fill="white"/>
<path d="M121.715 99.6573V84.3427H125.39V95.7805L124.549 95.3307L131.279 84.3427H135.086V99.6573H131.411V88.498L132.208 88.6051L125.545 99.6573H121.715Z" fill="white"/>
<path d="M114.874 99.6573H111.222V87.1914H114.874V99.6573ZM119.324 87.4056H106.772V84.3427H119.324V87.4056Z" fill="white"/>
<path d="M94.8207 99.6573H91.1458V84.3427H94.8207V99.6573ZM105.69 99.6573H100.931L94.2894 91.7109H94.6214L100.399 84.3427H104.827L98.6062 92.0321V91.3896L105.69 99.6573Z" fill="white"/>
<path d="M88.4392 99.6573H77.5474V84.3427H88.4392V87.3628H81.2223V96.6372H88.4392V99.6573ZM88.0408 93.4672H81.0009V90.4471H88.0408V93.4672Z" fill="white"/>
<path d="M60.8792 99.6573V84.3427H74.0512V99.6573H70.3763V85.0924L72.1695 87.4056H62.5616L64.554 85.1138V99.6573H60.8792Z" fill="white"/>
<path d="M55.9969 94.7738L58.3435 97.1513C57.6203 98.0509 56.7127 98.7506 55.6205 99.2503C54.5432 99.7501 53.392 100 52.167 100C50.9863 100 49.9016 99.8072 48.9128 99.4217C47.9239 99.0219 47.0679 98.4721 46.3448 97.7724C45.6216 97.0585 45.0608 96.2088 44.6623 95.2236C44.2786 94.2383 44.0867 93.1602 44.0867 91.9893C44.0867 90.8184 44.2859 89.7474 44.6844 88.7764C45.0829 87.7912 45.6437 86.9487 46.3669 86.249C47.0901 85.535 47.9535 84.9853 48.957 84.5997C49.9606 84.1999 51.0601 84 52.2556 84C53.4805 84 54.617 84.2499 55.6648 84.7497C56.7274 85.2352 57.6203 85.9348 58.3435 86.8487L55.9969 89.2262C55.5541 88.5837 55.0007 88.0839 54.3365 87.7269C53.6872 87.3556 52.9935 87.17 52.2556 87.17C51.4143 87.17 50.669 87.3771 50.0197 87.7912C49.3703 88.191 48.8611 88.755 48.4921 89.4833C48.1379 90.1972 47.9608 91.0326 47.9608 91.9893C47.9608 92.946 48.1379 93.7885 48.4921 94.5167C48.8611 95.245 49.3629 95.8162 49.9975 96.2303C50.6469 96.6301 51.3996 96.83 52.2556 96.83C52.9935 96.83 53.6872 96.6515 54.3365 96.2945C55.0007 95.9232 55.5541 95.4163 55.9969 94.7738Z" fill="white"/>
<path d="M33.9415 99.6573H30.2666V84.3427H36.5095C37.6164 84.3427 38.5905 84.5498 39.4317 84.9639C40.2877 85.378 40.9518 85.9563 41.4241 86.6988C41.8964 87.427 42.1325 88.2767 42.1325 89.2477C42.1325 90.2187 41.8964 91.0754 41.4241 91.8179C40.9518 92.5605 40.2877 93.1388 39.4317 93.5529C38.5905 93.9527 37.6164 94.1526 36.5095 94.1526H33.7201V91.1325H36.5095C37.0998 91.1325 37.5647 90.9612 37.9042 90.6185C38.2584 90.2758 38.4355 89.8188 38.4355 89.2477C38.4355 88.6622 38.2584 88.2053 37.9042 87.8768C37.5647 87.5341 37.0998 87.3628 36.5095 87.3628H33.9415V99.6573Z" fill="white"/>
<path d="M27.5601 99.6573H16.6683V84.3427H27.5601V87.3628H20.3431V96.6372H27.5601V99.6573ZM27.1616 93.4672H20.1218V90.4471H27.1616V93.4672Z" fill="white"/>
<path d="M0 99.6573V84.3427H13.172V99.6573H9.49715V85.0924L11.2903 87.4056H1.68248L3.67489 85.1138V99.6573H0Z" fill="white"/>
</svg>
