<svg width="40" height="40" viewBox="0 0 40 40" fill="none" xmlns="http://www.w3.org/2000/svg"><rect width="40" height="40" rx="6" fill="#B81618"/><path d="M27.551 11.776a1.34 1.34 0 00-1.344-1.336H13.793a1.34 1.34 0 00-1.344 1.336v16.448a1.34 1.34 0 001.344 1.336h12.414a1.34 1.34 0 001.344-1.336V11.776zM15.872 25.448c.4 0 .725.323.725.72 0 .398-.325.72-.725.72h-.01a.722.722 0 01-.724-.72c0-.397.324-.72.724-.72h.01zm4.138 0c.4 0 .724.323.724.72 0 .398-.324.72-.724.72H20a.722.722 0 01-.724-.72c0-.397.324-.72.724-.72h.01zm3.403.72v-4.112c0-.397.325-.72.725-.72.4 0 .724.323.724.72v4.112c0 .398-.324.72-.724.72a.722.722 0 01-.725-.72zm-7.54-4.832c.4 0 .724.323.724.72 0 .397-.325.72-.725.72h-.01a.722.722 0 01-.724-.72c0-.397.324-.72.724-.72h.01zm4.137 0c.4 0 .724.323.724.72 0 .397-.324.72-.724.72H20a.722.722 0 01-.724-.72c0-.397.324-.72.724-.72h.01zm-4.138-4.112c.4 0 .725.323.725.72 0 .397-.325.72-.725.72h-.01a.722.722 0 01-.724-.72c0-.397.324-.72.724-.72h.01zm4.138 0c.4 0 .724.323.724.72 0 .397-.324.72-.724.72H20a.722.722 0 01-.724-.72c0-.397.324-.72.724-.72h.01zm4.138 0c.4 0 .724.323.724.72 0 .397-.324.72-.724.72h-.01a.722.722 0 01-.725-.72c0-.397.325-.72.725-.72h.01zm-.01-4.112c.4 0 .724.322.724.72 0 .397-.324.72-.724.72h-8.276a.722.722 0 01-.724-.72c0-.398.324-.72.724-.72h8.276zM29 28.224A2.785 2.785 0 0126.207 31H13.793A2.785 2.785 0 0111 28.224V11.776A2.785 2.785 0 0113.793 9h12.414A2.785 2.785 0 0129 11.776v16.448z" fill="#fff"/></svg>