<svg width="80" height="80" viewBox="0 0 80 80" fill="none" xmlns="http://www.w3.org/2000/svg">
<path d="M73.1278 2.42432H33.2248C31.8915 2.42432 30.8006 3.51523 30.8006 4.84856V6.55765C30.8006 7.89098 31.8915 8.98189 33.2248 8.98189C34.5581 8.98189 35.6369 10.0607 35.6369 11.394V12.3152C34.6551 13.1758 34.0248 14.4243 34.0248 15.8304C34.0248 16.1698 34.0733 16.5092 34.146 16.8364C33.3703 17.0546 32.6915 17.5637 32.2915 18.2789L29.0915 23.8425C28.5339 24.8001 28.5339 25.988 29.0915 26.9455L31.1763 30.5455C31.2937 30.7513 31.4879 30.902 31.7164 30.9645C31.9448 31.027 32.1888 30.9962 32.3945 30.8789C32.6002 30.7615 32.751 30.5673 32.8135 30.3388C32.876 30.1104 32.8452 29.8664 32.7278 29.6607L30.643 26.0607C30.4006 25.6486 30.4006 25.1395 30.643 24.7273L33.8551 19.1637C34.0854 18.7516 34.5339 18.497 35.0066 18.497H42.5218C42.9945 18.497 43.443 18.7516 43.6733 19.1637L46.8854 24.7273C47.1278 25.1273 47.1157 25.6364 46.8854 26.0486L44.8127 29.6486C44.5703 30.0728 44.7157 30.6183 45.14 30.8607C45.5642 31.1031 46.1097 30.9577 46.3521 30.5334L48.4248 26.9334C48.9824 25.9637 48.9824 24.7758 48.4248 23.8304L45.2248 18.2667C44.8166 17.564 44.1518 17.047 43.3703 16.8243C43.443 16.497 43.4915 16.1576 43.4915 15.8183C43.4915 14.4122 42.8612 13.1637 41.8793 12.3031V11.394C41.8793 10.0607 42.9581 8.98189 44.2915 8.98189H59.2491C60.0369 8.98189 60.7521 9.34553 61.2127 9.98795C61.6733 10.6304 61.7824 11.4304 61.5278 12.1698L59.9884 16.6546C59.9521 16.7152 59.9157 16.7758 59.8915 16.8486L58.2672 21.697L55.443 29.9152L54.9824 31.2486L54.2309 33.4304C54.0733 33.891 54.3157 34.4001 54.7763 34.5577C55.2369 34.7152 55.746 34.4728 55.9036 34.0122L56.449 32.4243H66.6794C67.8187 32.4243 68.7521 31.491 68.7521 30.3516V27.8789C68.7521 26.7395 67.8187 25.8061 66.6794 25.8061H58.7278L59.7339 22.8728H66.6794C67.8187 22.8728 68.7521 21.9395 68.7521 20.8001V18.3152C68.7521 17.1758 67.8187 16.2425 66.6794 16.2425H62.0006L63.2006 12.7395C63.649 11.4425 63.443 10.0607 62.643 8.94553C61.843 7.83038 60.6066 7.18795 59.2369 7.18795H44.243C41.9642 7.18795 40.0975 9.03038 40.0612 11.297C39.9763 11.2728 39.8915 11.2607 39.8066 11.2486C39.7339 11.2364 39.6491 11.2122 39.5763 11.2001C39.3097 11.1516 39.0551 11.1273 38.7884 11.1152H38.74C38.7036 11.1152 38.6672 11.1273 38.6309 11.1273C38.3884 11.1273 38.1581 11.1637 37.9278 11.2001C37.8309 11.2122 37.7339 11.2364 37.649 11.2607C37.5763 11.2728 37.5036 11.2849 37.4309 11.3092C37.4108 10.2109 36.9599 9.16459 36.1753 8.39587C35.3907 7.62715 34.3353 7.19766 33.2369 7.20007C32.8733 7.20007 32.5824 6.90917 32.5824 6.54553V4.84856C32.5824 4.48492 32.8733 4.19401 33.2369 4.19401H73.14C74.6066 4.19401 75.8066 5.39401 75.8066 6.86068V43.4183H67.9763C67.4915 43.4183 67.0915 43.8183 67.0915 44.3031C67.0915 44.788 67.4915 45.188 67.9763 45.188H75.8066V48.2425H67.9763C67.4915 48.2425 67.0915 48.6425 67.0915 49.1273C67.0915 49.6122 67.4915 50.0122 67.9763 50.0122H75.8066V58.194C75.5884 57.8667 75.3339 57.5637 75.0794 57.2728L75.0551 57.2486C74.8006 56.9576 74.5339 56.691 74.243 56.4364L74.2187 56.4122C73.3421 55.635 72.3373 55.0157 71.249 54.5819C71.2006 54.5577 71.1521 54.5455 71.1036 54.5334C70.7136 54.3936 70.3172 54.2722 69.9157 54.1698C69.6369 54.097 69.346 54.0486 69.0551 54.0122C68.9581 54.0001 68.8612 53.9758 68.7521 53.9637C68.3763 53.9152 67.9884 53.891 67.6006 53.891H53.043C53.3218 53.394 53.5036 52.8243 53.5036 52.2061V39.1152C53.5036 37.2122 51.9521 35.6607 50.049 35.6607H36.946C35.043 35.6607 33.4915 37.2122 33.4915 39.1152V52.2183C33.4915 52.8364 33.6612 53.4061 33.9521 53.9031H29.6733C29.9521 53.4061 30.1339 52.8364 30.1339 52.2183V39.1152C30.1339 37.2122 28.5824 35.6607 26.6794 35.6607H13.5763C11.6733 35.6607 10.1218 37.2122 10.1218 39.1152V52.2183C10.1218 52.897 10.3278 53.5273 10.6672 54.0728C5.97632 54.9092 2.4248 58.9819 2.4248 63.8667C2.4248 68.994 6.31571 73.2122 11.2854 73.7698V76.691C11.2854 77.1758 11.6854 77.5758 12.1703 77.5758C12.6551 77.5758 13.0551 77.1758 13.0551 76.691V73.8425H66.9097V76.691C66.9097 77.1758 67.3097 77.5758 67.7945 77.5758C68.2794 77.5758 68.6794 77.1758 68.6794 76.691V73.7698C71.1157 73.4978 73.3664 72.3375 75.001 70.5105C76.6357 68.6836 77.5396 66.3182 77.54 63.8667C77.54 63.6728 77.5278 63.491 77.5157 63.297C77.5278 63.2486 77.54 63.2001 77.54 63.1516V6.86068C77.5763 4.4122 75.5763 2.42432 73.1278 2.42432ZM66.9339 27.8789V30.3637C66.9339 30.5213 66.8006 30.6546 66.643 30.6546H57.0309L58.0854 27.5758H66.6551C66.8006 27.588 66.9339 27.7213 66.9339 27.8789ZM66.6309 18.0364C66.7884 18.0364 66.9218 18.1698 66.9218 18.3273V20.8122C66.9218 20.9698 66.7884 21.1031 66.6309 21.1031H60.2915L61.346 18.0243H66.6309V18.0364ZM37.7945 13.0667C37.8309 13.0546 37.8551 13.0425 37.8915 13.0425C38.4369 12.8849 39.0309 12.8849 39.5884 13.0546C39.6127 13.0667 39.6248 13.0667 39.649 13.0789C39.9278 13.1637 40.1824 13.2849 40.4127 13.4546C40.7965 13.7239 41.1101 14.0813 41.3273 14.4967C41.5446 14.9122 41.659 15.3737 41.6612 15.8425C41.6612 16.1455 41.6127 16.4486 41.5157 16.7395H39.6127V15.5637C39.6127 15.0789 39.2127 14.6789 38.7278 14.6789C38.243 14.6789 37.843 15.0789 37.843 15.5637V16.7395H35.94C35.8475 16.4496 35.8025 16.1467 35.8066 15.8425C35.8066 14.8486 36.3036 13.9637 37.0672 13.4425C37.2854 13.2728 37.54 13.1516 37.7945 13.0667ZM45.5763 37.4304V42.0728L44.449 40.8486C44.2066 40.5819 43.8551 40.4243 43.4794 40.4243C43.1157 40.4243 42.7642 40.5819 42.5097 40.8486L41.3824 42.0728V37.4304H45.5763ZM35.249 52.2183V39.1152C35.249 38.1819 36.0006 37.4304 36.9339 37.4304H39.6127V43.2486C39.6127 43.794 39.94 44.2789 40.449 44.4728C40.9581 44.6667 41.5278 44.5455 41.8915 44.1334L43.4794 42.4122L45.0672 44.1334C45.2472 44.3301 45.4831 44.4669 45.7431 44.5254C46.0032 44.5839 46.2749 44.5613 46.5218 44.4607C47.0309 44.2667 47.3581 43.7819 47.3581 43.2364V37.4183H50.0369C50.9703 37.4183 51.7218 38.1698 51.7218 39.1031V52.2061C51.7218 53.1395 50.9703 53.891 50.0369 53.891H36.9218C36.7017 53.8926 36.4834 53.8504 36.2797 53.7669C36.0761 53.6834 35.891 53.5603 35.7354 53.4046C35.5797 53.249 35.4566 53.064 35.3731 52.8603C35.2896 52.6566 35.2474 52.4384 35.249 52.2183ZM22.1824 37.4304V42.0728L21.0551 40.8486C20.5581 40.3031 19.6248 40.3152 19.1157 40.8486L17.9884 42.0728V37.4304H22.1824ZM11.843 39.1152C11.843 38.1819 12.5945 37.4304 13.5278 37.4304H16.2066V43.2486C16.2066 43.794 16.5339 44.2789 17.043 44.4728C17.5521 44.6667 18.1218 44.5455 18.4854 44.1334L20.0733 42.4122L21.6612 44.1334C21.8411 44.3301 22.077 44.4669 22.3371 44.5254C22.5971 44.5839 22.8689 44.5613 23.1157 44.4607C23.6248 44.2667 23.9521 43.7819 23.9521 43.2364V37.4183H26.6309C27.5642 37.4183 28.3157 38.1698 28.3157 39.1031V52.2061C28.3157 53.1395 27.5642 53.891 26.6309 53.891H13.5278C12.5945 53.891 11.843 53.1395 11.843 52.2061V39.1152ZM67.6006 72.0607H12.4006C7.87935 72.0607 4.20662 68.388 4.20662 63.8667C4.20662 59.3455 7.87935 55.6728 12.4006 55.6728H67.6248C67.8915 55.6728 68.1703 55.6849 68.4369 55.7092C68.5824 55.7213 68.7278 55.7455 68.8733 55.7698C68.9945 55.7819 69.1036 55.8061 69.2248 55.8183C69.4066 55.8546 69.6006 55.9031 69.7824 55.9516C69.843 55.9637 69.9157 55.988 69.9763 56.0001C70.1824 56.0607 70.3884 56.1334 70.5824 56.2183L70.6915 56.2546C70.9097 56.3395 71.1157 56.4364 71.3218 56.5455C71.3339 56.5577 71.3581 56.5576 71.3703 56.5698C71.5763 56.6789 71.7945 56.8001 71.9884 56.9213C72.0006 56.9334 72.0127 56.9334 72.0127 56.9455C72.2187 57.0789 72.4127 57.2122 72.6066 57.3577L72.6309 57.3819C72.8127 57.5273 72.9945 57.6849 73.1763 57.8425L73.2127 57.8789C73.3824 58.0364 73.54 58.194 73.6975 58.3637C73.7097 58.388 73.7339 58.4001 73.746 58.4243C73.8915 58.594 74.0369 58.7637 74.1703 58.9334C74.1945 58.9576 74.2188 58.994 74.2309 59.0183C74.3521 59.188 74.4733 59.3577 74.5824 59.5395C74.6066 59.5758 74.6309 59.6243 74.6551 59.6607C74.7642 59.8304 74.8612 60.0122 74.946 60.194C74.9703 60.2425 74.9945 60.291 75.0187 60.3516C75.1036 60.5334 75.1884 60.7152 75.2612 60.897C75.2854 60.9577 75.2975 61.0061 75.3218 61.0667C75.3945 61.2486 75.4551 61.4425 75.5036 61.6364L75.54 61.794C75.5884 62.0001 75.6369 62.194 75.6733 62.4122C75.6854 62.4486 75.6854 62.4849 75.6854 62.5213C75.7218 62.7516 75.7581 62.9819 75.7703 63.2243C75.7824 63.4425 75.8066 63.6486 75.8066 63.8667C75.7945 68.388 72.1218 72.0607 67.6006 72.0607Z" fill="#161A1F"/>
<path d="M12.933 59.5032C10.5209 59.5032 8.56934 61.4668 8.56934 63.8668C8.56934 66.279 10.533 68.2305 12.933 68.2305C15.3451 68.2305 17.2966 66.2668 17.2966 63.8668C17.2966 61.4668 15.333 59.5032 12.933 59.5032ZM12.933 66.4608C11.5027 66.4608 10.339 65.2971 10.339 63.8668C10.339 62.4365 11.5027 61.2729 12.933 61.2729C14.3633 61.2729 15.5269 62.4365 15.5269 63.8668C15.5148 65.2971 14.3512 66.4608 12.933 66.4608ZM26.4602 59.5032C24.0481 59.5032 22.0966 61.4668 22.0966 63.8668C22.0966 66.279 24.0602 68.2305 26.4602 68.2305C28.8724 68.2305 30.8239 66.2668 30.8239 63.8668C30.836 61.4668 28.8724 59.5032 26.4602 59.5032ZM26.4602 66.4608C25.0299 66.4608 23.8663 65.2971 23.8663 63.8668C23.8663 62.4365 25.0299 61.2729 26.4602 61.2729C27.8906 61.2729 29.0542 62.4365 29.0542 63.8668C29.0542 65.2971 27.8906 66.4608 26.4602 66.4608ZM39.9996 59.5032C37.5875 59.5032 35.636 61.4668 35.636 63.8668C35.636 66.279 37.5996 68.2305 39.9996 68.2305C42.4118 68.2305 44.3633 66.2668 44.3633 63.8668C44.3633 61.4668 42.4118 59.5032 39.9996 59.5032ZM39.9996 66.4608C38.5693 66.4608 37.4057 65.2971 37.4057 63.8668C37.4057 62.4365 38.5693 61.2729 39.9996 61.2729C41.4299 61.2729 42.5936 62.4365 42.5936 63.8668C42.5936 65.2971 41.4299 66.4608 39.9996 66.4608ZM53.539 59.5032C51.1269 59.5032 49.1754 61.4668 49.1754 63.8668C49.1754 66.279 51.139 68.2305 53.539 68.2305C55.9512 68.2305 57.9027 66.2668 57.9027 63.8668C57.9027 61.4668 55.939 59.5032 53.539 59.5032ZM53.539 66.4608C52.1087 66.4608 50.9451 65.2971 50.9451 63.8668C50.9451 62.4365 52.1087 61.2729 53.539 61.2729C54.9693 61.2729 56.133 62.4365 56.133 63.8668C56.133 65.2971 54.9693 66.4608 53.539 66.4608ZM67.0663 59.5032C64.6542 59.5032 62.7027 61.4668 62.7027 63.8668C62.7027 66.279 64.6663 68.2305 67.0663 68.2305C69.4784 68.2305 71.4299 66.2668 71.4299 63.8668C71.4421 61.4668 69.4784 59.5032 67.0663 59.5032ZM67.0663 66.4608C65.636 66.4608 64.4724 65.2971 64.4724 63.8668C64.4724 62.4365 65.636 61.2729 67.0663 61.2729C68.4966 61.2729 69.6603 62.4365 69.6603 63.8668C69.6603 65.2971 68.4966 66.4608 67.0663 66.4608Z" fill="#C42539"/>
<path d="M42.4602 50.0244H38.2421C37.7572 50.0244 37.3572 50.4244 37.3572 50.9093C37.3572 51.3941 37.7572 51.7941 38.2421 51.7941H42.4602C42.9451 51.7941 43.3451 51.3941 43.3451 50.9093C43.3451 50.4244 42.9451 50.0244 42.4602 50.0244ZM14.8481 51.7941H19.0663C19.5512 51.7941 19.9512 51.3941 19.9512 50.9093C19.9512 50.4244 19.5512 50.0244 19.0663 50.0244H14.8481C14.3633 50.0244 13.9633 50.4244 13.9633 50.9093C13.9633 51.3941 14.3633 51.7941 14.8481 51.7941Z" fill="#C42539"/>
</svg>
