<svg width="80" height="80" viewBox="0 0 80 80" fill="none" xmlns="http://www.w3.org/2000/svg">
<path d="M64.5701 41.8303H55.1034C54.5337 41.8303 54.0246 42.1697 53.7943 42.6788C53.564 43.2 53.6489 43.794 54.0368 44.2182C54.8125 45.0788 55.6368 45.7212 56.4974 46.1091C57.5034 46.5697 58.3519 47.3091 58.9701 48.2061V54.8243C58.3577 55.7356 57.5064 56.4611 56.5095 56.9212C54.7519 57.7334 53.1034 59.6 51.9883 62.0364C51.7095 62.6425 51.758 63.3455 52.1337 63.9152C52.5095 64.497 53.1277 64.8364 53.8065 64.8364H65.9155C66.5943 64.8364 67.2246 64.497 67.5883 63.9152C67.9519 63.3455 68.0004 62.6425 67.7337 62.0364C66.6186 59.6 64.9701 57.7334 63.2125 56.9212C62.2156 56.4611 61.3643 55.7356 60.7519 54.8243V48.2061C61.3643 47.2947 62.2156 46.5693 63.2125 46.1091C64.0731 45.7091 64.8974 45.0667 65.661 44.2182C66.0489 43.794 66.1337 43.2 65.9034 42.6788C65.6489 42.1576 65.1398 41.8303 64.5701 41.8303ZM62.4489 58.5455C63.8307 59.1879 65.164 60.7394 66.0974 62.7879C66.1337 62.8606 66.1095 62.9334 66.0852 62.9697C66.061 63.0061 66.0004 63.0788 65.9034 63.0788H53.7943C53.6852 63.0788 53.6368 63.0182 53.6125 62.9697C53.5883 62.9212 53.564 62.8606 53.6004 62.7879C54.5337 60.7273 55.8671 59.1879 57.261 58.5455C58.2671 58.0849 59.1519 57.4182 59.8671 56.594C60.5773 57.4226 61.4579 58.0882 62.4489 58.5455ZM62.4489 44.5091C61.4549 44.9697 60.5701 45.6364 59.8549 46.4485C59.1279 45.6224 58.2361 44.9577 57.2368 44.497C56.8004 44.2909 56.3519 43.9879 55.9034 43.5879H63.7701C63.3337 44 62.8852 44.3031 62.4489 44.5091ZM15.0428 27.6243C15.0428 26.1576 13.8549 24.9697 12.3883 24.9697H9.05494C7.58827 24.9697 6.40039 26.1576 6.40039 27.6243V30.9576C6.40039 32.4243 7.58827 33.6122 9.05494 33.6122H12.3883C13.8549 33.6122 15.0428 32.4243 15.0428 30.9576V27.6243ZM13.2731 30.9576C13.2731 31.4425 12.8731 31.8425 12.3883 31.8425H9.05494C8.57009 31.8425 8.17009 31.4425 8.17009 30.9576V27.6243C8.17009 27.1394 8.57009 26.7394 9.05494 26.7394H12.3883C12.8731 26.7394 13.2731 27.1394 13.2731 27.6243V30.9576ZM15.0428 39.7334C15.0428 38.2667 13.8549 37.0788 12.3883 37.0788H9.05494C7.58827 37.0788 6.40039 38.2667 6.40039 39.7334V43.0667C6.40039 44.5334 7.58827 45.7212 9.05494 45.7212H12.3883C13.8549 45.7212 15.0428 44.5334 15.0428 43.0667V39.7334ZM13.2731 43.0667C13.2731 43.5515 12.8731 43.9515 12.3883 43.9515H9.05494C8.57009 43.9515 8.17009 43.5515 8.17009 43.0667V39.7334C8.17009 39.2485 8.57009 38.8485 9.05494 38.8485H12.3883C12.8731 38.8485 13.2731 39.2485 13.2731 39.7334V43.0667ZM12.3883 49.1879H9.05494C7.58827 49.1879 6.40039 50.3758 6.40039 51.8425V55.1758C6.40039 56.6425 7.58827 57.8303 9.05494 57.8303H12.3883C13.8549 57.8303 15.0428 56.6425 15.0428 55.1758V51.8425C15.0428 50.3758 13.8428 49.1879 12.3883 49.1879ZM13.2731 55.1758C13.2731 55.6606 12.8731 56.0606 12.3883 56.0606H9.05494C8.57009 56.0606 8.17009 55.6606 8.17009 55.1758V51.8425C8.17009 51.3576 8.57009 50.9576 9.05494 50.9576H12.3883C12.8731 50.9576 13.2731 51.3576 13.2731 51.8425V55.1758ZM28.1943 27.6243C28.1943 26.1576 27.0065 24.9697 25.5398 24.9697H22.2065C20.7398 24.9697 19.5519 26.1576 19.5519 27.6243V30.9576C19.5519 32.4243 20.7398 33.6122 22.2065 33.6122H25.5398C27.0065 33.6122 28.1943 32.4243 28.1943 30.9576V27.6243ZM26.4246 30.9576C26.4246 31.4425 26.0246 31.8425 25.5398 31.8425H22.2065C21.7216 31.8425 21.3216 31.4425 21.3216 30.9576V27.6243C21.3216 27.1394 21.7216 26.7394 22.2065 26.7394H25.5398C26.0246 26.7394 26.4246 27.1394 26.4246 27.6243V30.9576ZM28.1943 39.7334C28.1943 38.2667 27.0065 37.0788 25.5398 37.0788H22.2065C20.7398 37.0788 19.5519 38.2667 19.5519 39.7334V43.0667C19.5519 44.5334 20.7398 45.7212 22.2065 45.7212H25.5398C27.0065 45.7212 28.1943 44.5334 28.1943 43.0667V39.7334ZM26.4246 43.0667C26.4246 43.5515 26.0246 43.9515 25.5398 43.9515H22.2065C21.7216 43.9515 21.3216 43.5515 21.3216 43.0667V39.7334C21.3216 39.2485 21.7216 38.8485 22.2065 38.8485H25.5398C26.0246 38.8485 26.4246 39.2485 26.4246 39.7334V43.0667ZM25.5398 49.1879H22.2065C20.7398 49.1879 19.5519 50.3758 19.5519 51.8425V55.1758C19.5519 56.6425 20.7398 57.8303 22.2065 57.8303H25.5398C27.0065 57.8303 28.1943 56.6425 28.1943 55.1758V51.8425C28.1943 50.3758 26.9943 49.1879 25.5398 49.1879ZM26.4246 55.1758C26.4246 55.6606 26.0246 56.0606 25.5398 56.0606H22.2065C21.7216 56.0606 21.3216 55.6606 21.3216 55.1758V51.8425C21.3216 51.3576 21.7216 50.9576 22.2065 50.9576H25.5398C26.0246 50.9576 26.4246 51.3576 26.4246 51.8425V55.1758ZM41.3458 27.6243C41.3458 26.1576 40.158 24.9697 38.6913 24.9697H35.358C33.8913 24.9697 32.7034 26.1576 32.7034 27.6243V30.9576C32.7034 32.4243 33.8913 33.6122 35.358 33.6122H38.6913C40.158 33.6122 41.3458 32.4243 41.3458 30.9576V27.6243ZM39.5761 30.9576C39.5761 31.4425 39.1761 31.8425 38.6913 31.8425H35.358C34.8731 31.8425 34.4731 31.4425 34.4731 30.9576V27.6243C34.4731 27.1394 34.8731 26.7394 35.358 26.7394H38.6913C39.1761 26.7394 39.5761 27.1394 39.5761 27.6243V30.9576ZM41.3458 39.7334C41.3458 38.2667 40.158 37.0788 38.6913 37.0788H35.358C33.8913 37.0788 32.7034 38.2667 32.7034 39.7334V43.0667C32.7034 44.5334 33.8913 45.7212 35.358 45.7212H38.6913C40.158 45.7212 41.3458 44.5334 41.3458 43.0667V39.7334ZM39.5761 43.0667C39.5761 43.5515 39.1761 43.9515 38.6913 43.9515H35.358C34.8731 43.9515 34.4731 43.5515 34.4731 43.0667V39.7334C34.4731 39.2485 34.8731 38.8485 35.358 38.8485H38.6913C39.1761 38.8485 39.5761 39.2485 39.5761 39.7334V43.0667ZM38.6913 49.1879H35.358C33.8913 49.1879 32.7034 50.3758 32.7034 51.8425V55.1758C32.7034 56.6425 33.8913 57.8303 35.358 57.8303H38.6913C40.158 57.8303 41.3458 56.6425 41.3458 55.1758V51.8425C41.3458 50.3758 40.1458 49.1879 38.6913 49.1879ZM39.5761 55.1758C39.5761 55.6606 39.1761 56.0606 38.6913 56.0606H35.358C34.8731 56.0606 34.4731 55.6606 34.4731 55.1758V51.8425C34.4731 51.3576 34.8731 50.9576 35.358 50.9576H38.6913C39.1761 50.9576 39.5761 51.3576 39.5761 51.8425V55.1758ZM46.7277 55.6606C47.2125 55.6606 47.6125 55.2606 47.6125 54.7758V51.8425C47.6125 51.394 47.9277 51.0303 48.3762 50.9697C48.861 50.897 49.2004 50.4606 49.1398 49.9758C49.107 49.7446 48.9841 49.5358 48.7978 49.395C48.6116 49.2542 48.3772 49.1928 48.1458 49.2243C47.5113 49.3136 46.9304 49.6287 46.5095 50.1119C46.0887 50.5951 45.8563 51.2138 45.8549 51.8546V54.7879C45.8428 55.2606 46.2428 55.6606 46.7277 55.6606Z" fill="#C42539"/>
<path d="M65.042 50.1092C69.9995 47.8061 73.3813 41.5637 73.6238 34.4122C74.7147 34.1213 75.5147 33.1395 75.5147 31.9758V30.0243C75.5147 28.6304 74.3753 27.491 72.9813 27.491H46.7147C45.3207 27.491 44.1813 28.6304 44.1813 30.0243V31.9758C44.1813 33.1516 44.9813 34.1213 46.0601 34.4122C46.2904 41.5637 49.6844 47.8183 54.642 50.1092C55.2359 50.388 55.5995 50.9213 55.5995 51.5274C55.5995 52.1334 55.2359 52.6667 54.642 52.9455C49.6723 55.2486 46.2904 61.491 46.048 68.6425C44.9692 68.9334 44.1692 69.9152 44.1692 71.0789V73.0304C44.1692 74.4243 45.3086 75.5637 46.7026 75.5637H72.9692C74.3632 75.5637 75.5026 74.4243 75.5026 73.0304V71.091C75.5026 69.9152 74.6904 68.9334 73.6116 68.6546C73.3813 61.5031 69.9995 55.2486 65.0298 52.9577C64.4359 52.6789 64.0723 52.1455 64.0723 51.5274C64.0844 50.9213 64.448 50.3758 65.042 50.1092ZM46.9086 32.7395H46.7026C46.2783 32.7395 45.9389 32.4001 45.9389 31.9758V30.0243C45.9389 29.6001 46.2783 29.2607 46.7026 29.2607H72.9692C73.3935 29.2607 73.7329 29.6001 73.7329 30.0243V31.9758C73.7329 32.4001 73.3935 32.7395 72.9692 32.7395H46.9086C46.9207 32.7395 46.9207 32.7273 46.9086 32.7395ZM73.745 71.091V73.0425C73.745 73.4667 73.4056 73.8061 72.9813 73.8061H46.7147C46.2904 73.8061 45.951 73.4667 45.951 73.0425V71.091C45.951 70.6667 46.2904 70.3273 46.7147 70.3273H72.9813C73.4056 70.3273 73.745 70.6667 73.745 71.091ZM62.3147 51.5274C62.3147 52.8243 63.0783 53.988 64.3026 54.5577C68.6298 56.5698 71.6116 62.1213 71.8541 68.5576H47.8298C48.0844 62.1334 51.0541 56.5698 55.3935 54.5577C56.6177 53.988 57.3813 52.8243 57.3813 51.5274C57.3813 50.2304 56.6177 49.0667 55.3935 48.497C51.0541 46.497 48.0844 40.9334 47.8298 34.5092H71.8662C71.6116 40.9334 68.642 46.4849 64.3026 48.497C63.0662 49.0667 62.3147 50.2304 62.3147 51.5274Z" fill="#161A1F"/>
<path d="M43.0056 61.9758H5.34498C3.64801 61.9758 2.26619 60.594 2.26619 58.897V20.8364H62.048V23.6486C62.048 24.1334 62.448 24.5334 62.9329 24.5334C63.4177 24.5334 63.8177 24.1334 63.8177 23.6486V11.2122C63.8177 8.53341 61.6359 6.35159 58.9571 6.35159H57.4056C57.0662 3.01826 54.9329 0.424316 52.3389 0.424316C50.5813 0.424316 49.0177 1.61219 48.0965 3.41826C47.1753 1.61219 45.6238 0.424316 43.8783 0.424316C41.2723 0.424316 39.1268 3.01826 38.7995 6.36371H25.5026C25.1632 3.01826 23.0298 0.424316 20.4359 0.424316C18.6783 0.424316 17.1147 1.61219 16.1935 3.41826C15.2723 1.61219 13.7207 0.424316 11.9753 0.424316C9.36922 0.424316 7.22377 3.01826 6.88438 6.36371H5.34498C2.66619 6.36371 0.484375 8.54553 0.484375 11.2243V58.897C0.484375 61.5758 2.66619 63.7577 5.34498 63.7577H43.0177C43.5026 63.7577 43.9026 63.3577 43.9026 62.8728C43.9026 62.388 43.5026 61.9758 43.0056 61.9758ZM52.3389 2.19401C53.951 2.19401 55.3207 4.02432 55.6116 6.36371H49.042C49.3329 4.02432 50.7268 2.19401 52.3389 2.19401ZM43.8783 2.19401C45.4904 2.19401 46.8601 4.02432 47.151 6.36371H40.5813C40.8723 4.02432 42.2541 2.19401 43.8783 2.19401ZM20.4359 2.19401C22.048 2.19401 23.4177 4.02432 23.7086 6.36371H17.1389C17.4298 4.02432 18.8238 2.19401 20.4359 2.19401ZM11.9753 2.19401C13.5874 2.19401 14.9571 4.02432 15.248 6.36371H8.67832C8.96922 4.02432 10.351 2.19401 11.9753 2.19401ZM2.25407 11.2243C2.25407 9.52735 3.63589 8.14553 5.33286 8.14553H6.87225C7.04195 9.91523 7.72074 11.4789 8.7268 12.5577C8.61771 12.897 8.54498 13.2486 8.54498 13.6122C8.54498 15.491 10.0844 17.0183 11.9632 17.0183C13.842 17.0183 15.3692 15.491 15.3692 13.6122C15.3692 11.7334 13.842 10.194 11.9632 10.194C11.1268 10.194 10.3632 10.5092 9.76922 11.0183C9.21165 10.2667 8.81165 9.26068 8.66619 8.13341H15.345C15.5147 9.9031 16.1935 11.4667 17.1874 12.5455C17.0783 12.8849 17.0056 13.2364 17.0056 13.6122C17.0056 15.491 18.545 17.0183 20.4238 17.0183C22.3026 17.0183 23.8298 15.491 23.8298 13.6122C23.8298 11.7334 22.3026 10.194 20.4238 10.194C19.5874 10.194 18.8238 10.5092 18.2298 11.0183C17.6723 10.2789 17.2723 9.2728 17.1389 8.14553H24.5813C24.6056 8.14553 24.6298 8.15765 24.6541 8.15765C24.6783 8.15765 24.7026 8.14553 24.7268 8.14553H38.7753C38.945 9.91523 39.6238 11.4789 40.6298 12.5577C40.5207 12.897 40.448 13.2486 40.448 13.6122C40.448 15.491 41.9874 17.0183 43.8662 17.0183C45.745 17.0183 47.2723 15.491 47.2723 13.6122C47.2723 11.7334 45.745 10.194 43.8662 10.194C43.0298 10.194 42.2662 10.5092 41.6723 11.0183C41.1147 10.2789 40.7147 9.2728 40.5692 8.14553H47.248C47.4177 9.91523 48.0965 11.4789 49.0904 12.5577C48.9813 12.897 48.9086 13.2486 48.9086 13.6243C48.9086 15.5031 50.448 17.0304 52.3268 17.0304C54.2056 17.0304 55.7329 15.5031 55.7329 13.6243C55.7329 11.7455 54.2056 10.2061 52.3268 10.2061C51.4904 10.2061 50.7268 10.5213 50.1329 11.0304C49.5753 10.291 49.1753 9.28492 49.042 8.15765H56.4844C56.5086 8.15765 56.5329 8.16977 56.5571 8.16977C56.5813 8.16977 56.6056 8.15765 56.6298 8.15765H58.9329C60.6298 8.15765 62.0117 9.53947 62.0117 11.2364V19.0667H2.25407V11.2243ZM11.9753 14.0728C12.5329 14.0728 13.0783 13.9395 13.5874 13.7213C13.5268 14.5698 12.8238 15.2364 11.9632 15.2364C11.0904 15.2364 10.3874 14.5577 10.3268 13.7092C10.848 13.9395 11.3935 14.0728 11.9753 14.0728ZM11.2116 12.1455C11.4419 12.0243 11.6965 11.9516 11.9753 11.9516C12.2541 11.9516 12.5086 12.0243 12.7389 12.1576C12.4844 12.2425 12.2298 12.3031 11.9753 12.3031C11.7086 12.3031 11.4541 12.2425 11.2116 12.1455ZM20.4359 14.0728C20.9935 14.0728 21.5389 13.9395 22.048 13.7213C21.9874 14.5698 21.2844 15.2364 20.4238 15.2364C19.551 15.2364 18.848 14.5577 18.7874 13.7092C19.3207 13.9395 19.8662 14.0728 20.4359 14.0728ZM19.6723 12.1455C19.9026 12.0243 20.1571 11.9516 20.4359 11.9516C20.7147 11.9516 20.9692 12.0243 21.1995 12.1576C20.945 12.2425 20.6904 12.3031 20.4359 12.3031C20.1813 12.3031 19.9268 12.2425 19.6723 12.1455ZM43.8783 14.0728C44.4359 14.0728 44.9813 13.9395 45.4904 13.7213C45.4298 14.5698 44.7268 15.2364 43.8662 15.2364C42.9935 15.2364 42.2904 14.5577 42.2298 13.7092C42.751 13.9395 43.2965 14.0728 43.8783 14.0728ZM43.1147 12.1455C43.345 12.0243 43.5995 11.9516 43.8783 11.9516C44.1571 11.9516 44.4116 12.0243 44.642 12.1576C44.3874 12.2425 44.1329 12.3031 43.8783 12.3031C43.6116 12.3031 43.3571 12.2425 43.1147 12.1455ZM52.3389 14.0728C52.8965 14.0728 53.442 13.9395 53.951 13.7213C53.8904 14.5698 53.1874 15.2364 52.3268 15.2364C51.4541 15.2364 50.751 14.5577 50.6904 13.7092C51.2238 13.9395 51.7692 14.0728 52.3389 14.0728ZM51.5753 12.1455C51.8056 12.0243 52.0601 11.9516 52.3389 11.9516C52.6177 11.9516 52.8723 12.0243 53.1026 12.1576C52.848 12.2425 52.5935 12.3031 52.3389 12.3031C52.0844 12.3031 51.8298 12.2425 51.5753 12.1455Z" fill="#161A1F"/>
</svg>
