<svg width="80" height="80" viewBox="0 0 80 80" fill="none" xmlns="http://www.w3.org/2000/svg">
<g clip-path="url(#clip0_2402_2160)">
<path d="M73.9938 45.6057L67.8968 34.2845C67.6833 33.8922 67.368 33.5646 66.984 33.3364C66.6001 33.1082 66.1617 32.9876 65.715 32.9875H55.3756C55.909 31.8724 56.3453 30.6966 56.6605 29.4966L60.3453 28.9269C61.5574 28.7451 62.4302 27.7148 62.4302 26.4905V22.4784C62.4302 21.2542 61.5453 20.2239 60.3453 20.0421L56.6605 19.4724C56.1999 17.7269 55.509 16.0542 54.5999 14.4905L56.8059 11.4845C57.5332 10.5027 57.4241 9.15722 56.5514 8.28449L53.715 5.44812C52.8544 4.58752 51.509 4.47843 50.515 5.2057L47.509 7.39964C45.9574 6.49055 44.2847 5.79964 42.5271 5.33903L41.9574 1.65418C41.7756 0.442063 40.7453 -0.430664 39.5211 -0.430664H35.509C34.2847 -0.430664 33.2544 0.442063 33.0726 1.65418L32.5029 5.33903C30.7574 5.79964 29.0847 6.49055 27.5211 7.39964L24.515 5.19358C23.5332 4.46631 22.1877 4.5754 21.315 5.436L18.4787 8.27237C17.6181 9.13297 17.509 10.4905 18.2362 11.4724L20.4302 14.4784C19.5211 16.0421 18.8302 17.7027 18.3696 19.4602L14.6968 20.0299C13.4847 20.2118 12.612 21.2421 12.612 22.4663V26.4784C12.612 27.7027 13.4968 28.733 14.6968 28.9148L18.3817 29.4845C18.6968 30.6966 19.1332 31.8602 19.6665 32.9754H8.28472C7.37563 32.9754 6.53926 33.4724 6.1029 34.2724L0.00592975 45.6057C-0.309222 46.1996 -0.297101 46.8905 0.0422934 47.4724C0.381687 48.0542 0.999869 48.3936 1.66654 48.3936H6.5029V71.3754C6.5029 73.0602 7.8726 74.4299 9.55744 74.4299H64.4302C66.115 74.4299 67.4847 73.0602 67.4847 71.3754V48.4057H72.3211C72.9877 48.4057 73.6059 48.0663 73.9453 47.4845C74.2968 46.9027 74.309 46.1996 73.9938 45.6057ZM19.6665 28.6845C19.633 28.5436 19.5589 28.4156 19.4533 28.3165C19.3477 28.2174 19.2153 28.1515 19.0726 28.1269L14.915 27.4845C14.6761 27.4498 14.4576 27.3303 14.2996 27.1478C14.1416 26.9653 14.0545 26.732 14.0544 26.4905V22.4784C14.0544 21.9815 14.4181 21.5572 14.915 21.4845L19.0726 20.8421C19.3635 20.7936 19.6059 20.5754 19.6665 20.2845C20.115 18.3572 20.8787 16.5269 21.9211 14.8421C22.0787 14.5875 22.0665 14.2724 21.8847 14.0299L19.3999 10.636C19.2578 10.4419 19.1896 10.2035 19.2074 9.96361C19.2251 9.72372 19.3277 9.498 19.4968 9.32691L22.3332 6.49055C22.6847 6.13903 23.2423 6.09055 23.6423 6.39358L27.0362 8.87843C27.2787 9.04812 27.5938 9.06025 27.8484 8.91479C29.5332 7.87237 31.3635 7.10873 33.2908 6.66024C33.4317 6.62673 33.5596 6.55258 33.6587 6.44699C33.7579 6.3414 33.8238 6.20903 33.8484 6.06631L34.4908 1.90873C34.5635 1.41176 34.9877 1.04812 35.4847 1.04812H39.4968C39.9938 1.04812 40.4181 1.41176 40.4908 1.89661L41.1332 6.05418C41.1817 6.34509 41.3999 6.58752 41.6908 6.64812C43.6181 7.09661 45.4605 7.86024 47.1332 8.90267C47.3878 9.06025 47.7029 9.04812 47.9453 8.86631L51.3393 6.38146C51.7514 6.07843 52.2968 6.12691 52.6484 6.47843L55.4847 9.31479C55.8362 9.66631 55.8847 10.2239 55.5938 10.6239L53.109 14.0178C52.9393 14.2602 52.9271 14.5754 53.0726 14.8299C54.115 16.5148 54.8787 18.3451 55.3271 20.2724C55.3999 20.5633 55.6302 20.7815 55.9211 20.8299L60.0787 21.4724C60.5756 21.5451 60.9393 21.9693 60.9393 22.4663V26.4784C60.9393 26.9754 60.5756 27.3996 60.0787 27.4724L55.9211 28.1148C55.6302 28.1633 55.3877 28.3815 55.3271 28.6724C54.9756 30.1754 54.4181 31.6178 53.7029 32.9754H47.0726C49.0847 30.7087 50.3211 27.739 50.3211 24.4663C50.3211 17.3875 44.5635 11.6299 37.4847 11.6299C30.4059 11.6299 24.6484 17.3875 24.6484 24.4663C24.6484 27.7269 25.8847 30.7087 27.8968 32.9754H21.2665C20.5756 31.6178 20.0181 30.1875 19.6665 28.6845ZM36.9999 32.9875H29.9696C28.7642 31.9219 27.7993 30.6122 27.1389 29.1451C26.4785 27.678 26.1378 26.0873 26.1393 24.4784C26.1393 18.1996 31.2423 13.0966 37.5211 13.0966C43.7999 13.0966 48.9029 18.1996 48.9029 24.4784C48.9029 27.8602 47.412 30.9027 45.0726 32.9875H36.9999ZM1.66654 46.939C1.44835 46.939 1.32714 46.7936 1.29078 46.7209C1.25014 46.6558 1.2276 46.581 1.22547 46.5043C1.22334 46.4276 1.2417 46.3517 1.27866 46.2845L7.37563 34.9512C7.55745 34.6239 7.89684 34.4178 8.2726 34.4178H35.7635L29.1574 46.6966C29.0847 46.8421 28.9393 46.9269 28.7696 46.9269H7.96957V46.7572H6.51502V46.9269H1.66654V46.939ZM7.96957 71.3754V48.4057H28.7938C29.4968 48.4057 30.1271 48.0299 30.4544 47.4118L36.2726 36.5996V72.9875H9.56957C8.68472 72.9754 7.96957 72.2602 7.96957 71.3754ZM66.0302 71.3754C66.0302 72.2602 65.315 72.9754 64.4302 72.9754H37.7271V36.5996L43.5453 47.4118C43.8726 48.0299 44.515 48.4057 45.2059 48.4057H66.0302V71.3754ZM72.6968 46.733C72.6605 46.7936 72.5514 46.9512 72.3211 46.9512H45.2059C45.1267 46.9505 45.0491 46.9288 44.9809 46.8883C44.9128 46.8479 44.8566 46.7901 44.8181 46.7209L38.212 34.4421H65.715C66.0908 34.4421 66.4302 34.6481 66.612 34.9754L72.709 46.2966C72.8181 46.5027 72.7453 46.6724 72.6968 46.733Z" fill="#161A1F"/>
<path d="M59.364 68.7699H44.4064C44.0064 68.7699 43.6791 69.0971 43.6791 69.4971C43.6791 69.8971 44.0064 70.2244 44.4064 70.2244H59.364C59.764 70.2244 60.0912 69.8971 60.0912 69.4971C60.0912 69.0971 59.764 68.7699 59.364 68.7699ZM43.6791 65.279C43.6791 65.679 44.0064 66.0062 44.4064 66.0062H59.364C59.764 66.0062 60.0912 65.679 60.0912 65.279C60.0912 64.879 59.764 64.5517 59.364 64.5517H44.4064C44.0064 64.5517 43.6791 64.879 43.6791 65.279Z" fill="#C42539"/>
<path d="M13.2791 57.3153C13.267 57.3032 13.2427 57.2911 13.2306 57.2668L13.1821 57.2184C13.0922 57.1398 12.9837 57.0856 12.867 57.0608C12.8185 57.0487 12.7579 57.0244 12.7094 57.0244C12.6488 57.0244 12.6003 57.0487 12.5518 57.0608C12.4351 57.0856 12.3266 57.1398 12.2367 57.2184L12.1882 57.2668C12.1761 57.279 12.1518 57.2911 12.1397 57.3153L9.76395 60.4184C9.52153 60.7335 9.58213 61.1941 9.89729 61.4365C10.2124 61.679 10.673 61.6184 10.9155 61.3032L11.9821 59.9093V69.1456C11.9821 69.5456 12.3094 69.8729 12.7094 69.8729C13.1094 69.8729 13.4367 69.5456 13.4367 69.1456V59.9093L14.5033 61.3032C14.6488 61.485 14.867 61.5941 15.0852 61.5941C15.2427 61.5941 15.4003 61.5456 15.5215 61.4487C15.8367 61.2062 15.8973 60.7456 15.6549 60.4305L13.2791 57.3153ZM20.3215 60.7577C20.3094 60.7335 20.2852 60.7214 20.273 60.7093L20.2367 60.6729C20.1778 60.6149 20.1077 60.5695 20.0306 60.5396C20.0185 60.5396 20.0064 60.5274 19.9943 60.5274C19.9094 60.4911 19.8246 60.479 19.7397 60.479C19.6549 60.479 19.57 60.5032 19.4852 60.5274C19.473 60.5274 19.4609 60.5396 19.4488 60.5396C19.3761 60.5759 19.3033 60.6123 19.2549 60.6729L19.17 60.7577L16.7943 63.8608C16.5518 64.1759 16.6124 64.6365 16.9276 64.879C17.0038 64.9369 17.0907 64.9791 17.1833 65.0032C17.2759 65.0272 17.3724 65.0326 17.4671 65.0191C17.5618 65.0056 17.6529 64.9734 17.7351 64.9243C17.8173 64.8753 17.8889 64.8104 17.9458 64.7335L19.0124 63.3396V69.1335C19.0124 69.5335 19.3397 69.8608 19.7397 69.8608C20.1397 69.8608 20.467 69.5335 20.467 69.1335V63.3396L21.5336 64.7335C21.7761 65.0487 22.2367 65.1093 22.5518 64.8668C22.867 64.6244 22.9276 64.1638 22.6852 63.8487L20.3215 60.7577Z" fill="#C42539"/>
</g>
<defs>
<clipPath id="clip0_2402_2160">
<rect width="80" height="80" fill="white"/>
</clipPath>
</defs>
</svg>
