<svg width="80" height="80" viewBox="0 0 80 80" fill="none" xmlns="http://www.w3.org/2000/svg">
<g clip-path="url(#clip0_2402_2166)">
<path d="M53.315 5.59997H53.218C53.0968 2.69088 52.0786 -0.0727539 50.2362 -0.0727539C48.3938 -0.0727539 47.3756 2.703 47.2544 5.59997H43.1332C43.012 2.69088 41.9938 -0.0727539 40.1514 -0.0727539C38.3089 -0.0727539 37.2908 2.703 37.1695 5.59997H33.0483C32.9271 2.69088 31.9089 -0.0727539 30.0665 -0.0727539C28.2241 -0.0727539 27.2059 2.703 27.0847 5.59997H22.9635C22.8423 2.69088 21.8241 -0.0727539 19.9817 -0.0727539C18.1392 -0.0727539 17.1211 2.703 16.9998 5.59997H16.9029C12.8423 5.59997 9.5453 8.89694 9.5453 12.9575V35.5394C9.5453 35.9394 9.87257 36.2666 10.2726 36.2666C10.6726 36.2666 10.9998 35.9394 10.9998 35.5394V17.7212H14.1271V40.1454C14.1271 40.5454 14.4544 40.8727 14.8544 40.8727C15.2544 40.8727 15.5817 40.5454 15.5817 40.1454V17.7212H54.6241V49.6363H46.7453C45.0726 49.6363 43.7029 50.9939 43.7029 52.6788V60.5576H35.9938C35.5938 60.5576 35.2665 60.8848 35.2665 61.2848C35.2665 61.6848 35.5938 62.0121 35.9938 62.0121H44.4302C44.5271 62.0121 44.6241 61.9879 44.7211 61.9515C44.7453 61.9394 44.7695 61.9151 44.7817 61.903C44.8423 61.8666 44.9029 61.8424 44.9514 61.7939L55.8726 50.8727C55.9332 50.8121 55.9695 50.7515 56.0059 50.6788C56.018 50.6666 56.018 50.6545 56.0302 50.6424C56.0665 50.5575 56.0908 50.4606 56.0908 50.3515V17.7212H59.218V59.2363C59.218 62.4848 56.5756 65.1273 53.3271 65.1273H40.5877C40.1877 65.1273 39.8605 65.4545 39.8605 65.8545C39.8605 66.2545 40.1877 66.5818 40.5877 66.5818H53.3271C57.3877 66.5818 60.6847 63.2848 60.6847 59.2242V12.9697C60.6726 8.90907 57.3756 5.59997 53.315 5.59997ZM46.7453 51.0909H53.5938L45.1695 59.5151V52.6666C45.1695 51.7939 45.8726 51.0909 46.7453 51.0909ZM50.2362 1.38179C50.7453 1.38179 51.6423 2.96967 51.7635 5.59997H48.7211C48.8302 2.96967 49.7271 1.38179 50.2362 1.38179ZM48.3211 11.0545C48.8059 11.8666 49.4483 12.3879 50.2362 12.3879C50.6362 12.3879 50.9635 12.0606 50.9635 11.6606C50.9635 11.2606 50.6362 10.9333 50.2362 10.9333C49.9938 10.9333 49.6423 10.5454 49.3514 9.85452C49.618 9.72119 49.9211 9.63634 50.2362 9.63634C51.3514 9.63634 52.2605 10.5454 52.2605 11.6606C52.2605 12.7757 51.3514 13.6848 50.2362 13.6848C49.1211 13.6848 48.212 12.7757 48.212 11.6606C48.212 11.4424 48.2605 11.2485 48.3211 11.0545ZM40.1514 1.38179C40.6604 1.38179 41.5574 2.96967 41.6786 5.59997H38.6362C38.7453 2.96967 39.6423 1.38179 40.1514 1.38179ZM38.2362 11.0545C38.7211 11.8666 39.3635 12.3879 40.1514 12.3879C40.5514 12.3879 40.8786 12.0606 40.8786 11.6606C40.8786 11.2606 40.5514 10.9333 40.1514 10.9333C39.9089 10.9333 39.5574 10.5454 39.2665 9.85452C39.5332 9.72119 39.8362 9.63634 40.1514 9.63634C41.2665 9.63634 42.1756 10.5454 42.1756 11.6606C42.1756 12.7757 41.2665 13.6848 40.1514 13.6848C39.0362 13.6848 38.1271 12.7757 38.1271 11.6606C38.1271 11.4424 38.1756 11.2485 38.2362 11.0545ZM30.0665 1.38179C30.5756 1.38179 31.4726 2.96967 31.5938 5.59997H28.5514C28.6605 2.96967 29.5574 1.38179 30.0665 1.38179ZM28.1514 11.0545C28.6362 11.8666 29.2786 12.3879 30.0665 12.3879C30.4665 12.3879 30.7938 12.0606 30.7938 11.6606C30.7938 11.2606 30.4665 10.9333 30.0665 10.9333C29.8241 10.9333 29.4726 10.5454 29.1817 9.85452C29.4483 9.72119 29.7514 9.63634 30.0665 9.63634C31.1817 9.63634 32.0908 10.5454 32.0908 11.6606C32.0908 12.7757 31.1817 13.6848 30.0665 13.6848C28.9514 13.6848 28.0423 12.7757 28.0423 11.6606C28.0423 11.4424 28.0908 11.2485 28.1514 11.0545ZM19.9817 1.38179C20.4908 1.38179 21.3877 2.96967 21.5089 5.59997H18.4665C18.5756 2.96967 19.4726 1.38179 19.9817 1.38179ZM18.0665 11.0545C18.5514 11.8666 19.1938 12.3879 19.9817 12.3879C20.3817 12.3879 20.7089 12.0606 20.7089 11.6606C20.7089 11.2606 20.3817 10.9333 19.9817 10.9333C19.7392 10.9333 19.3877 10.5454 19.0968 9.85452C19.3635 9.72119 19.6665 9.63634 19.9817 9.63634C21.0968 9.63634 22.0059 10.5454 22.0059 11.6606C22.0059 12.7757 21.0968 13.6848 19.9817 13.6848C18.8665 13.6848 17.9574 12.7757 17.9574 11.6606C17.9574 11.4424 18.0059 11.2485 18.0665 11.0545ZM59.218 15.8545V16.2666H10.9998V12.9697C10.9998 9.72119 13.6423 7.06664 16.9029 7.06664H17.0241C17.0726 7.86664 17.1938 8.65452 17.3877 9.35755C16.8203 9.99075 16.5054 10.8104 16.5029 11.6606C16.5029 13.5757 18.0665 15.1394 19.9817 15.1394C21.8968 15.1394 23.4605 13.5757 23.4605 11.6606C23.4605 9.74543 21.8968 8.18179 19.9817 8.18179C19.5211 8.18179 19.0726 8.27876 18.6726 8.43634C18.5877 8.02422 18.5271 7.56361 18.4908 7.05452H27.1211C27.1695 7.85452 27.2908 8.6424 27.4847 9.34543C26.9173 9.97862 26.6024 10.7982 26.5998 11.6485C26.5998 13.5636 28.1635 15.1272 30.0786 15.1272C31.9938 15.1272 33.5574 13.5636 33.5574 11.6485C33.5574 9.73331 31.9938 8.16967 30.0786 8.16967C29.618 8.16967 29.1695 8.26664 28.7695 8.42422C28.6847 8.0121 28.6241 7.55149 28.5877 7.0424H37.218C37.2665 7.8424 37.3877 8.63028 37.5817 9.33331C37.0143 9.9665 36.6994 10.7861 36.6968 11.6363C36.6968 13.5515 38.2605 15.1151 40.1756 15.1151C42.0908 15.1151 43.6544 13.5515 43.6544 11.6363C43.6544 9.72119 42.0908 8.15755 40.1756 8.15755C39.715 8.15755 39.2665 8.25452 38.8665 8.4121C38.7817 7.99997 38.7211 7.53937 38.6847 7.03028H47.3029C47.3514 7.83028 47.4726 8.61816 47.6665 9.32119C47.0991 9.95438 46.7842 10.774 46.7817 11.6242C46.7817 13.5394 48.3453 15.103 50.2604 15.103C52.1756 15.103 53.7392 13.5394 53.7392 11.6242C53.7392 9.70906 52.1756 8.14543 50.2604 8.14543C49.7998 8.14543 49.3514 8.2424 48.9514 8.39997C48.8665 7.98785 48.8059 7.52725 48.7695 7.01816H53.3392C56.5877 7.01816 59.2423 9.66058 59.2423 12.9212V15.8545H59.218Z" fill="#161A1F"/>
<path d="M35.8847 43.2242C35.0605 42.9818 34.1877 43.1515 33.4968 43.6606L25.8241 49.4303C24.9877 50.0606 24.5877 51.0788 24.7817 52.1091C24.9756 53.1272 25.715 53.9515 26.7089 54.2303L37.8362 57.4182C38.3233 57.5604 38.8405 57.5631 39.3291 57.426C39.8177 57.2888 40.2579 57.0174 40.5998 56.6424C41.3029 55.8788 41.5089 54.7879 41.1332 53.8182L37.6786 44.8606C37.3756 44.0485 36.7211 43.4545 35.8847 43.2242ZM39.5211 55.6606C39.1938 56.0242 38.7089 56.1576 38.2362 56.0242L27.1089 52.8363C26.6362 52.703 26.2968 52.3272 26.212 51.8424C26.1271 51.3575 26.3089 50.8969 26.6968 50.5939L34.3695 44.8242C34.5877 44.6545 34.8544 44.5697 35.1332 44.5697C35.3906 44.5666 35.6427 44.643 35.8553 44.7883C36.0678 44.9336 36.2304 45.1408 36.3211 45.3818L39.7756 54.3394C39.9453 54.8 39.8605 55.2969 39.5211 55.6606ZM3.48469 34.3394C2.96348 33.806 2.1756 33.6606 1.48469 33.9394C0.793786 34.2182 0.357422 34.8848 0.357422 35.6363V74.2424C0.357422 75.2485 1.18166 76.0727 2.18773 76.0727H40.7817C41.5211 76.0727 42.1877 75.6242 42.4786 74.9454C42.7695 74.2545 42.612 73.4666 42.0786 72.9454L3.48469 34.3394ZM41.1332 74.3879C41.1089 74.4606 41.012 74.6182 40.7817 74.6182H37.0483V73.6C37.0483 73.2 36.7211 72.8727 36.3211 72.8727C35.9211 72.8727 35.5938 73.2 35.5938 73.6V74.6182H31.8362V72.9454C31.8362 72.5454 31.5089 72.2182 31.1089 72.2182C30.7089 72.2182 30.3817 72.5454 30.3817 72.9454V74.6182H26.6362V73.9272C26.6362 73.5272 26.3089 73.2 25.9089 73.2C25.5089 73.2 25.1817 73.5272 25.1817 73.9272V74.6182H21.4241V73.2727C21.4241 72.8727 21.0968 72.5454 20.6968 72.5454C20.2968 72.5454 19.9695 72.8727 19.9695 73.2727V74.6182H16.212V73.6C16.212 73.2 15.8847 72.8727 15.4847 72.8727C15.0847 72.8727 14.7574 73.2 14.7574 73.6V74.6182H10.9998V72.9454C10.9998 72.5454 10.6726 72.2182 10.2726 72.2182C9.87257 72.2182 9.5453 72.5454 9.5453 72.9454V74.6182H5.78772V74.2545C5.78772 73.8545 5.46045 73.5272 5.06045 73.5272C4.66045 73.5272 4.33318 73.8545 4.33318 74.2545V74.6182H2.18773C1.98166 74.6182 1.81197 74.4485 1.81197 74.2424V71.3818H3.12106C3.52106 71.3818 3.84833 71.0545 3.84833 70.6545C3.84833 70.2545 3.52106 69.9272 3.12106 69.9272H1.81197V66.1818H3.88469C4.28469 66.1818 4.61197 65.8545 4.61197 65.4545C4.61197 65.0545 4.28469 64.7272 3.88469 64.7272H1.81197V60.9818H3.12106C3.52106 60.9818 3.84833 60.6545 3.84833 60.2545C3.84833 59.8545 3.52106 59.5272 3.12106 59.5272H1.81197V55.7818H3.88469C4.28469 55.7818 4.61197 55.4545 4.61197 55.0545C4.61197 54.6545 4.28469 54.3273 3.88469 54.3273H1.81197V50.5818H3.12106C3.52106 50.5818 3.84833 50.2545 3.84833 49.8545C3.84833 49.4545 3.52106 49.1272 3.12106 49.1272H1.81197V45.3818H3.88469C4.28469 45.3818 4.61197 45.0545 4.61197 44.6545C4.61197 44.2545 4.28469 43.9272 3.88469 43.9272H1.81197V40.1818H3.12106C3.52106 40.1818 3.84833 39.8545 3.84833 39.4545C3.84833 39.0545 3.52106 38.7272 3.12106 38.7272H1.81197V35.6848C1.81197 35.4545 1.96954 35.3697 2.04227 35.3333C2.07863 35.3212 2.12712 35.3091 2.18773 35.3091C2.26045 35.3091 2.35742 35.3333 2.44227 35.4182L41.0362 74.0121C41.218 74.1333 41.1574 74.3151 41.1332 74.3879Z" fill="#161A1F"/>
<path d="M49.8485 35.5154C50.0522 35.3141 50.2138 35.0743 50.3241 34.8101C50.4345 34.5459 50.4913 34.2624 50.4913 33.976C50.4913 33.6897 50.4345 33.4062 50.3241 33.1419C50.2138 32.8777 50.0522 32.6379 49.8485 32.4366L42.5031 25.0912C41.6788 24.2669 40.2485 24.2669 39.4243 25.0912L37.5455 26.9699C36.6844 25.1067 35.3081 23.5289 33.579 22.4227C31.85 21.3166 29.8405 20.7283 27.7879 20.7275C21.8607 20.7275 17.0243 25.5518 17.0243 31.4912C17.0243 37.4184 21.8485 42.2548 27.7879 42.2548C30.7334 42.2548 33.5091 41.0548 35.5334 38.9578L39.4243 42.8609C39.6256 43.0645 39.8654 43.2261 40.1296 43.3365C40.3938 43.4468 40.6773 43.5036 40.9637 43.5036C41.25 43.5036 41.5335 43.4468 41.7978 43.3365C42.062 43.2261 42.3018 43.0645 42.5031 42.8609L49.8485 35.5154ZM27.7879 40.8003C22.6607 40.8003 18.491 36.6306 18.491 31.5033C18.491 26.376 22.6607 22.2063 27.7879 22.2063C31.6304 22.2063 35.0485 24.5578 36.4304 28.0972L32.0788 32.4487C31.2304 33.2972 31.2304 34.679 32.0788 35.5275L34.4788 37.9275C33.6167 38.8351 32.5789 39.5578 31.4287 40.0516C30.2784 40.5455 29.0397 40.8002 27.7879 40.8003ZM40.4546 41.8306L33.1213 34.4851C33.0549 34.4192 33.0023 34.3408 32.9664 34.2545C32.9304 34.1682 32.9119 34.0756 32.9119 33.9821C32.9119 33.8886 32.9304 33.796 32.9664 33.7096C33.0023 33.6233 33.0549 33.5449 33.1213 33.479L40.4667 26.1336C40.6001 26.0002 40.7819 25.9275 40.9758 25.9275C41.1697 25.9275 41.3516 26.0002 41.4849 26.1336L48.8304 33.479C48.9637 33.6124 49.0364 33.7942 49.0364 33.9881C49.0364 34.1821 48.9637 34.3639 48.8304 34.4972L41.4849 41.8427C41.3414 41.9671 41.1573 42.0346 40.9674 42.0324C40.7776 42.0301 40.5951 41.9583 40.4546 41.8306Z" fill="#C42539"/>
<path d="M10.6605 50.5093C10.3409 50.1796 9.92819 49.9553 9.47763 49.8665C9.02707 49.7777 8.56013 49.8286 8.13929 50.0123C7.25444 50.376 6.70898 51.2002 6.70898 52.1578V67.4184C6.70898 68.6911 7.75141 69.7336 9.02414 69.7336H24.2847C25.2423 69.7336 26.0666 69.1881 26.4302 68.3033C26.7938 67.4184 26.5999 66.4487 25.9332 65.782L10.6605 50.5093ZM25.0847 67.7336C25.0363 67.8548 24.8302 68.2669 24.2969 68.2669H9.02414C8.55141 68.2669 8.16353 67.879 8.16353 67.4063V52.1457C8.16353 51.6123 8.56353 51.4063 8.69686 51.3578C8.75747 51.3336 8.87868 51.2851 9.03626 51.2851C9.21808 51.2851 9.42414 51.3457 9.6302 51.5396L24.8908 66.8002C25.2666 67.176 25.1332 67.6123 25.0847 67.7336ZM73.6423 16.4366C73.6423 15.1881 72.6241 14.1699 71.3757 14.1699H65.0605C63.812 14.1699 62.7938 15.1881 62.7938 16.4366V59.4063C62.7938 59.4305 62.806 59.4548 62.806 59.479C62.806 59.5275 62.8181 59.576 62.8302 59.6245C62.8423 59.673 62.8544 59.7093 62.8787 59.7457C62.8908 59.7699 62.8908 59.782 62.9029 59.8063L67.606 67.1154C67.7393 67.3214 67.9696 67.4548 68.2241 67.4548C68.4787 67.4548 68.709 67.3336 68.8423 67.1154L73.5454 59.8063C73.5575 59.782 73.5696 59.7578 73.5696 59.7336C73.5817 59.7093 73.5938 59.673 73.606 59.6487C73.6302 59.5881 73.6423 59.5275 73.6423 59.4669C73.6423 59.4548 73.6544 59.4305 73.6544 59.4184V16.4366H73.6423ZM64.2363 23.0669H67.4726V57.8063L67.0241 57.3942C66.3696 56.8123 65.3757 56.8245 64.709 57.3942L64.2363 57.8063V23.0669ZM68.9393 23.0669H72.1757V57.7942L71.7272 57.3942C71.0726 56.8123 70.0787 56.8123 69.412 57.3942L68.9514 57.8063V23.0669H68.9393ZM64.2484 16.4366C64.2484 15.9881 64.612 15.6245 65.0605 15.6245H71.3757C71.8241 15.6245 72.1878 15.9881 72.1878 16.4366V21.6002H64.2484V16.4366ZM68.212 65.382L67.012 63.5154H69.412L68.212 65.382ZM70.3454 62.0487H66.0787L64.4666 59.5396L65.6666 58.4851C65.7757 58.3881 65.9454 58.3881 66.0544 58.4851L67.0484 59.3578C67.3757 59.6366 67.7757 59.782 68.1757 59.782H68.2241C68.6363 59.782 69.0363 59.6366 69.3635 59.3578L70.3575 58.4851C70.4666 58.3881 70.6363 58.3881 70.7454 58.4851L71.9454 59.5396L70.3454 62.0487Z" fill="#C42539"/>
</g>
<defs>
<clipPath id="clip0_2402_2166">
<rect width="80" height="80" fill="white"/>
</clipPath>
</defs>
</svg>
