<svg width="168" height="120" viewBox="0 0 168 120" fill="none" xmlns="http://www.w3.org/2000/svg"><path fill-rule="evenodd" clip-rule="evenodd" d="M82.68 6.063l-25.4 14.589v30.695l13.196 7.58V19.92l12.205 9.516V72L52 54.379V17.62L82.68 0v6.063zm-9.566 36.5v2.626h2.64v-2.625h-2.64zm3.96 0v2.626h2.639v-2.625h-2.64zm-3.96-3.938v2.626h2.64v-2.625h-2.64zm3.96 0v2.626h2.639v-2.625h-2.64zM116 17.621V54.38L85.32 72V25.498l11.548-9.19v42.995l13.853-7.956V20.652L85.32 6.062V0L116 17.621zM87.63 36h2.64v-2.626h-2.64V36zm3.96 0h2.638v-2.626H91.59V36zm-3.96-3.938h2.64v-2.626h-2.64v2.626zm3.96 0h2.638v-2.626H91.59v2.626z" fill="#fff"/><path d="M168 112.129v5.69h-.988v-2.218h-.574c-.35 0-.611.044-.784.134-.169.085-.417.366-.745.841l-.867 1.243h-1.23l1.07-1.532c.328-.468.654-.733.977-.793-.566-.075-.988-.274-1.264-.595a1.668 1.668 0 01-.408-1.109c0-.493.178-.893.535-1.201.361-.307.882-.46 1.562-.46H168zm-.988.798h-1.413c-.592 0-.975.089-1.148.268a.883.883 0 00-.254.627c0 .339.125.589.375.75.254.157.701.236 1.342.236h1.098v-1.881zm-9.941-.798h.994v4.34l2.754-4.34h1.071v5.69h-.994v-4.313l-2.754 4.313h-1.071v-5.69zm-6.242 0h.993v2.368h2.754v-2.368h.994v5.69h-.994v-2.524h-2.754v2.524h-.993v-5.69zm-2.473 4.988c-.368.304-.723.518-1.066.643a3.124 3.124 0 01-1.092.188c-.644 0-1.139-.152-1.485-.456a1.499 1.499 0 01-.519-1.173c0-.279.064-.532.193-.761a1.63 1.63 0 01.513-.557c.214-.14.453-.245.718-.316.195-.05.489-.099.883-.145.802-.093 1.393-.204 1.772-.332.004-.133.005-.216.005-.252 0-.393-.093-.67-.281-.831-.254-.218-.631-.327-1.132-.327-.467 0-.813.081-1.037.242-.221.157-.385.437-.491.841l-.972-.129c.088-.403.234-.729.436-.975.203-.25.495-.441.878-.573.382-.136.826-.204 1.33-.204.5 0 .907.057 1.22.171.313.115.543.259.69.434.147.172.25.39.309.654.033.165.05.461.05.89v1.286c0 .896.02 1.464.06 1.704.044.235.129.462.254.68h-1.038a1.99 1.99 0 01-.198-.702zm-.083-2.154c-.361.143-.902.265-1.623.365-.408.057-.697.121-.866.192a.85.85 0 00-.392.317.79.79 0 00-.138.455c0 .257.099.472.298.643.202.171.497.257.883.257.383 0 .723-.08 1.021-.241.298-.164.517-.387.657-.67.107-.218.16-.539.16-.964v-.354zm-9.864-2.834h4.626v5.69h-.994v-4.892h-2.638v4.892h-.994v-5.69zm-7.749 0h1.545l1.54 4.554 1.711-4.554h1.43v5.69h-.993v-4.581l-1.734 4.581h-.888l-1.64-4.801v4.801h-.971v-5.69zm-6.69 2.845c0-1.054.302-1.834.905-2.342.505-.421 1.119-.632 1.844-.632.806 0 1.464.257 1.976.772.511.51.767 1.218.767 2.122 0 .732-.114 1.309-.342 1.73a2.353 2.353 0 01-.988.975 2.923 2.923 0 01-1.413.349c-.821 0-1.485-.256-1.993-.766-.504-.511-.756-1.247-.756-2.208zm1.021 0c0 .729.164 1.275.492 1.64a1.6 1.6 0 001.236.541c.493 0 .903-.182 1.231-.547.327-.364.491-.92.491-1.666 0-.704-.166-1.236-.497-1.597a1.58 1.58 0 00-1.225-.547c-.497 0-.909.181-1.236.542-.328.36-.492.905-.492 1.634zm-5.735-2.845h.994v2.459c.316 0 .537-.059.662-.177.129-.118.317-.461.563-1.029.195-.45.354-.746.475-.889a.903.903 0 01.419-.289c.159-.05.413-.075.762-.075h.199v.798l-.276-.005c-.261 0-.429.037-.502.112-.078.079-.195.313-.354.702-.15.372-.288.629-.414.772-.125.143-.318.273-.579.391.427.111.846.496 1.258 1.157l1.088 1.763h-1.093l-1.06-1.763c-.217-.353-.407-.586-.568-.696a.977.977 0 00-.58-.172v2.631h-.994v-5.69zm-4.653 0v5.69h-.988v-2.218h-.574c-.349 0-.61.044-.783.134-.17.085-.418.366-.746.841l-.866 1.243h-1.231l1.071-1.532c.327-.468.653-.733.977-.793-.567-.075-.988-.274-1.264-.595a1.664 1.664 0 01-.409-1.109c0-.493.179-.893.536-1.201.36-.307.881-.46 1.562-.46h2.715zm-.988.798h-1.413c-.592 0-.975.089-1.148.268a.883.883 0 00-.254.627c0 .339.126.589.376.75.254.157.701.236 1.341.236h1.098v-1.881zm-6.093 4.19c-.368.304-.723.518-1.066.643a3.124 3.124 0 01-1.092.188c-.644 0-1.139-.152-1.485-.456a1.499 1.499 0 01-.519-1.173c0-.279.064-.532.193-.761a1.63 1.63 0 01.513-.557c.214-.14.453-.245.718-.316.195-.05.489-.099.883-.145.802-.093 1.393-.204 1.772-.332.004-.133.005-.216.005-.252 0-.393-.093-.67-.281-.831-.254-.218-.631-.327-1.132-.327-.467 0-.813.081-1.037.242-.221.157-.385.437-.491.841l-.972-.129c.088-.403.234-.729.436-.975.203-.25.495-.441.878-.573.382-.136.826-.204 1.33-.204.5 0 .907.057 1.22.171.313.115.543.259.69.434.147.172.25.39.309.654.033.165.05.461.05.89v1.286c0 .896.02 1.464.06 1.704.044.235.129.462.254.68h-1.038a1.99 1.99 0 01-.198-.702zm-.083-2.154c-.361.143-.902.265-1.623.365-.408.057-.697.121-.866.192a.85.85 0 00-.392.317.79.79 0 00-.138.455c0 .257.099.472.298.643.202.171.497.257.883.257.383 0 .723-.08 1.021-.241.298-.164.517-.387.657-.67.107-.218.16-.539.16-.964v-.354zm-9.985-2.834h.994v2.368h2.754v-2.368h.993v5.69h-.993v-2.524h-2.754v2.524h-.994v-5.69zm-5.917 0h.993v2.223h1.259c.82 0 1.452.156 1.893.466.445.308.668.733.668 1.276 0 .475-.186.882-.557 1.221-.368.336-.959.504-1.772.504h-2.484v-5.69zm.993 4.897h1.044c.629 0 1.078-.075 1.347-.225.268-.15.402-.384.402-.702a.895.895 0 00-.298-.659c-.198-.193-.638-.289-1.319-.289h-1.175v1.875zm-7.092-4.897h4.614v5.69h-.988v-4.892h-2.633v2.835c0 .66-.022 1.096-.066 1.307a.947.947 0 01-.364.552c-.199.157-.486.236-.861.236a8.81 8.81 0 01-.8-.043v-.804h.435c.207 0 .354-.02.442-.059a.329.329 0 00.177-.198c.03-.089.044-.381.044-.874v-3.75zm-2.39 3.858l1.026.123c-.161.582-.461 1.034-.9 1.356-.437.321-.996.482-1.677.482-.858 0-1.538-.256-2.042-.766-.5-.515-.751-1.235-.751-2.16 0-.957.254-1.7.762-2.229.508-.529 1.166-.793 1.976-.793.783 0 1.424.259 1.92.777.497.518.746 1.247.746 2.186 0 .057-.002.143-.006.257h-4.371c.036.626.219 1.104.546 1.436.328.333.736.499 1.225.499.365 0 .676-.093.933-.279.258-.186.462-.482.613-.889zm-3.262-1.56h3.273c-.044-.478-.17-.837-.375-1.077a1.544 1.544 0 00-1.231-.557c-.457 0-.841.148-1.154.445-.309.296-.48.693-.513 1.189zm-6.331-2.298h4.763v.798H76.33v4.892h-.987v-4.892h-1.888v-.798zm-5.779 0h.993v4.34l2.755-4.34h1.07v5.69h-.993v-4.313l-2.754 4.313h-1.071v-5.69zm-6.662 2.845c0-1.054.301-1.834.905-2.342.504-.421 1.119-.632 1.843-.632.806 0 1.465.257 1.976.772.512.51.768 1.218.768 2.122 0 .732-.114 1.309-.343 1.73a2.348 2.348 0 01-.988.975 2.92 2.92 0 01-1.413.349c-.82 0-1.484-.256-1.992-.766-.504-.511-.756-1.247-.756-2.208zm1.02 0c0 .729.165 1.275.492 1.64a1.6 1.6 0 001.236.541c.493 0 .904-.182 1.231-.547.328-.364.492-.92.492-1.666 0-.704-.166-1.236-.497-1.597a1.581 1.581 0 00-1.226-.547c-.496 0-.909.181-1.236.542-.328.36-.491.905-.491 1.634zM55.091 120v-7.871h.905v.739c.214-.289.455-.505.723-.648.269-.147.595-.22.977-.22.5 0 .942.125 1.325.375s.672.604.867 1.061c.195.454.292.952.292 1.495a3.7 3.7 0 01-.325 1.575 2.378 2.378 0 01-.939 1.072c-.408.247-.839.37-1.291.37a1.93 1.93 0 01-.895-.204 2.033 2.033 0 01-.645-.514V120h-.994zm.9-4.994c0 .732.153 1.274.458 1.624.305.35.675.525 1.11.525.44 0 .818-.181 1.13-.541.317-.365.476-.927.476-1.688 0-.726-.155-1.268-.464-1.629-.306-.361-.672-.541-1.099-.541-.423 0-.798.192-1.125.578-.324.382-.486.94-.486 1.672zm-6.613-2.877h4.764v.798h-1.888v4.892h-.988v-4.892h-1.888v-.798zm-1.291 3.606l.977.123c-.107.654-.381 1.166-.823 1.538-.438.368-.977.552-1.617.552-.802 0-1.448-.254-1.937-.761-.486-.511-.729-1.241-.729-2.192 0-.614.105-1.152.315-1.613.21-.46.528-.805.955-1.034.43-.232.897-.348 1.402-.348.636 0 1.157.157 1.562.472.404.31.664.753.778 1.328l-.966.145c-.092-.382-.256-.67-.491-.863a1.276 1.276 0 00-.845-.289c-.5 0-.907.175-1.22.525-.312.347-.469.897-.469 1.651 0 .764.151 1.319.453 1.666.301.346.695.52 1.181.52.39 0 .716-.116.977-.349.261-.232.427-.589.497-1.071zm-7.977-.274v-.969h3.053v.969h-3.052zm-6.275-.487c0-1.054.302-1.834.905-2.342.505-.421 1.119-.632 1.844-.632.806 0 1.464.257 1.976.772.511.51.767 1.218.767 2.122 0 .732-.114 1.309-.342 1.73a2.348 2.348 0 01-.988.975 2.92 2.92 0 01-1.413.349c-.82 0-1.485-.256-1.993-.766-.504-.511-.756-1.247-.756-2.208zm1.021 0c0 .729.164 1.275.491 1.64.328.36.74.541 1.237.541.493 0 .903-.182 1.23-.547.328-.364.492-.92.492-1.666 0-.704-.166-1.236-.497-1.597a1.581 1.581 0 00-1.225-.547 1.6 1.6 0 00-1.237.542c-.327.36-.49.905-.49 1.634zm-6.518-2.845h2.29c.563 0 .98.046 1.253.139.276.089.512.255.707.498.198.243.298.534.298.874 0 .271-.06.509-.177.712-.114.2-.287.368-.519.504.276.089.504.257.685.504.184.243.276.532.276.868-.037.539-.236.939-.596 1.2-.361.261-.885.391-1.573.391h-2.644v-5.69zm.993 2.395h1.06c.423 0 .714-.022.872-.065a.915.915 0 00.425-.257.661.661 0 00.188-.471c0-.3-.11-.509-.332-.627-.217-.118-.59-.177-1.12-.177h-1.093v1.597zm0 2.502h1.308c.563 0 .95-.062 1.16-.187.21-.129.32-.349.33-.659a.792.792 0 00-.182-.504.774.774 0 00-.474-.295c-.195-.043-.508-.064-.939-.064h-1.203v1.709zm-7.661-2.052c0-1.054.302-1.834.905-2.342.504-.421 1.119-.632 1.844-.632.806 0 1.464.257 1.976.772.511.51.767 1.218.767 2.122 0 .732-.114 1.309-.342 1.73a2.348 2.348 0 01-.988.975 2.92 2.92 0 01-1.413.349c-.82 0-1.485-.256-1.993-.766-.504-.511-.756-1.247-.756-2.208zm1.021 0c0 .729.164 1.275.491 1.64.328.36.74.541 1.237.541.493 0 .903-.182 1.23-.547.328-.364.492-.92.492-1.666 0-.704-.166-1.236-.497-1.597a1.581 1.581 0 00-1.225-.547c-.497 0-.91.181-1.237.542-.327.36-.49.905-.49 1.634zm-4.521-2.845h3.373v.798h-2.379v4.892h-.994v-5.69zM11.873 120v-7.871h.905v.739c.213-.289.454-.505.723-.648.269-.147.594-.22.977-.22.5 0 .942.125 1.325.375.382.25.671.604.866 1.061.195.454.293.952.293 1.495a3.7 3.7 0 01-.326 1.575 2.378 2.378 0 01-.938 1.072c-.409.247-.84.37-1.292.37a1.93 1.93 0 01-.894-.204 2.031 2.031 0 01-.646-.514V120h-.993zm.9-4.994c0 .732.152 1.274.457 1.624.306.35.676.525 1.11.525.441 0 .819-.181 1.131-.541.317-.365.475-.927.475-1.688 0-.726-.154-1.268-.463-1.629-.306-.361-.672-.541-1.099-.541-.423 0-.798.192-1.126.578-.324.382-.486.94-.486 1.672zm-7.563-.032c0-1.054.302-1.834.906-2.342.504-.421 1.118-.632 1.843-.632.806 0 1.465.257 1.976.772.512.51.768 1.218.768 2.122 0 .732-.115 1.309-.343 1.73a2.349 2.349 0 01-.988.975 2.92 2.92 0 01-1.413.349c-.82 0-1.485-.256-1.992-.766-.504-.511-.756-1.247-.756-2.208zm1.022 0c0 .729.163 1.275.49 1.64.328.36.74.541 1.237.541.493 0 .904-.182 1.231-.547.328-.364.491-.92.491-1.666 0-.704-.165-1.236-.496-1.597a1.581 1.581 0 00-1.226-.547c-.496 0-.909.181-1.236.542-.328.36-.491.905-.491 1.634zM0 112.129h4.763v.798H2.876v4.892h-.988v-4.892H0v-.798zM164.724 96.83h-9.32v-3.02h9.32v3.02zM168 99.657h-3.985L159.543 87h.93l-4.472 12.658h-3.83l5.845-15.314h4.117L168 99.657zm-29.422 0V84.343h6.752c1.004 0 1.874.164 2.612.492.753.329 1.336.793 1.749 1.393.413.585.62 1.278.62 2.077 0 .757-.207 1.428-.62 2.014-.413.585-.996 1.042-1.749 1.37-.738.329-1.608.493-2.612.493h-2.878v-1.135h2.856c1.121 0 2.103.171 2.944.514.841.328 1.498.8 1.97 1.414.473.614.709 1.342.709 2.184 0 .9-.236 1.692-.709 2.378-.472.671-1.129 1.192-1.97 1.563-.841.372-1.823.557-2.944.557h-6.73zm3.675-2.977h3.077c.59 0 1.055-.15 1.395-.45.339-.314.509-.75.509-1.306 0-.514-.17-.914-.509-1.2-.34-.3-.805-.45-1.395-.45h-3.299v-2.891h3.033c.487 0 .864-.143 1.129-.428.281-.286.421-.679.421-1.179 0-.456-.14-.813-.421-1.07-.265-.258-.642-.386-1.129-.386h-2.811v9.36zm-20.538 2.977V84.343h3.675V95.78l-.841-.45 6.73-10.988h3.807v15.314h-3.675V88.498l.797.107-6.663 11.052h-3.83zm-6.841 0h-3.652V87.191h3.652v12.466zm4.45-12.251h-12.552v-3.063h12.552v3.063zM94.82 99.657h-3.674V84.343h3.675v15.314zm10.87 0h-4.759l-6.642-7.946h.332l5.778-7.368h4.428l-6.22 7.69v-.643l7.083 8.267zm-17.25 0H77.546V84.343H88.44v3.02h-7.217v9.274h7.217v3.02zm-.4-6.19H81v-3.02h7.04v3.02zm-27.16 6.19V84.343h13.17v15.314h-3.675V85.092l1.793 2.314h-9.607l1.992-2.292v14.543h-3.675zm-4.883-4.883l2.346 2.377a7.37 7.37 0 01-2.723 2.1 8.1 8.1 0 01-3.453.749c-1.18 0-2.265-.193-3.254-.578a7.914 7.914 0 01-2.568-1.65 7.473 7.473 0 01-1.683-2.548c-.383-.986-.575-2.064-.575-3.235 0-1.17.199-2.242.597-3.213a7.25 7.25 0 011.683-2.527 7.43 7.43 0 012.59-1.65c1.004-.4 2.103-.599 3.299-.599 1.224 0 2.361.25 3.409.75a7.166 7.166 0 012.678 2.099l-2.346 2.377a4.698 4.698 0 00-1.66-1.5 4.125 4.125 0 00-2.081-.556c-.842 0-1.587.207-2.236.621-.65.4-1.159.964-1.528 1.692-.354.714-.531 1.55-.531 2.506 0 .957.177 1.8.531 2.528.37.728.87 1.3 1.506 1.713.649.4 1.402.6 2.258.6a4.25 4.25 0 002.08-.535 4.9 4.9 0 001.66-1.521zm-22.056 4.883h-3.674V84.343h6.243c1.106 0 2.08.207 2.922.62.856.415 1.52.993 1.992 1.736.472.728.709 1.578.709 2.549 0 .97-.237 1.827-.709 2.57-.472.743-1.136 1.32-1.992 1.735-.842.4-1.816.6-2.922.6h-2.79v-3.02h2.79c.59 0 1.055-.172 1.394-.514.354-.343.531-.8.531-1.371 0-.586-.177-1.043-.53-1.371-.34-.343-.805-.514-1.395-.514h-2.57v12.294zm-6.381 0H16.668V84.343H27.56v3.02h-7.217v9.274h7.217v3.02zm-.398-6.19h-7.04v-3.02h7.04v3.02zM0 99.657V84.343h13.172v15.314H9.497V85.092l1.793 2.314H1.682l1.993-2.292v14.543H0z" fill="#fff"/></svg>