<svg width="228" height="54" viewBox="0 0 228 54" fill="none" xmlns="http://www.w3.org/2000/svg"><path fill-rule="evenodd" clip-rule="evenodd" d="M23.01 4.547L3.96 15.489V38.51l9.897 5.685V14.94l9.154 7.137V54L0 40.784V13.216L23.01 0v4.547zm-7.174 27.376v1.97h1.98v-1.97h-1.98zm2.969 0v1.97h1.98v-1.97h-1.98zm-2.97-2.954v1.97h1.98v-1.97h-1.98zm2.97 0v1.97h1.98v-1.97h-1.98z" fill="#B81618"/><path d="M228 35.129v5.69h-.988v-2.218h-.574c-.35 0-.611.044-.784.134-.169.086-.417.366-.745.841l-.867 1.243h-1.23l1.07-1.532c.328-.468.654-.733.977-.793-.566-.075-.988-.274-1.264-.595a1.668 1.668 0 01-.408-1.11c0-.492.178-.892.535-1.2.361-.307.882-.46 1.562-.46H228zm-.988.798h-1.413c-.592 0-.975.09-1.148.268a.884.884 0 00-.254.627c0 .34.125.59.375.75.254.157.701.236 1.342.236h1.098v-1.881zm-9.941-.798h.994v4.34l2.754-4.34h1.071v5.69h-.994v-4.313l-2.754 4.313h-1.071v-5.69zm-6.242 0h.993v2.368h2.754v-2.368h.994v5.69h-.994v-2.524h-2.754v2.524h-.993v-5.69zm-2.473 4.988c-.368.304-.723.518-1.066.643a3.124 3.124 0 01-1.092.188c-.644 0-1.139-.152-1.485-.456a1.5 1.5 0 01-.519-1.173c0-.279.064-.532.193-.761A1.63 1.63 0 01204.9 38c.214-.14.453-.245.718-.316.195-.05.489-.099.883-.145.802-.093 1.393-.204 1.772-.332.004-.133.005-.216.005-.252 0-.393-.093-.67-.281-.83-.254-.219-.631-.328-1.132-.328-.467 0-.813.08-1.037.241-.221.158-.385.438-.491.842l-.972-.129c.088-.404.234-.729.436-.975.203-.25.495-.441.878-.573a3.971 3.971 0 011.33-.204c.5 0 .907.057 1.22.172.313.114.543.259.69.434.147.171.25.389.309.653.033.164.05.461.05.89v1.286c0 .896.02 1.464.06 1.704.044.235.129.462.254.68h-1.038a1.991 1.991 0 01-.198-.702zm-.083-2.154c-.361.143-.902.264-1.623.364-.408.058-.697.122-.866.193a.85.85 0 00-.392.317.793.793 0 00-.138.455c0 .257.099.472.298.643.202.171.497.257.883.257.383 0 .723-.08 1.021-.24.298-.165.517-.389.657-.67.107-.219.16-.54.16-.965v-.354zm-9.864-2.834h4.626v5.69h-.994v-4.892h-2.638v4.892h-.994v-5.69zm-7.749 0h1.545l1.54 4.554 1.711-4.554h1.43v5.69h-.993v-4.581l-1.734 4.581h-.888l-1.64-4.8v4.8h-.971v-5.69zm-6.69 2.845c0-1.054.302-1.834.905-2.342.505-.421 1.119-.632 1.844-.632.806 0 1.464.257 1.976.772.511.51.767 1.218.767 2.122 0 .732-.114 1.309-.342 1.73a2.354 2.354 0 01-.988.975 2.932 2.932 0 01-1.413.349c-.821 0-1.485-.256-1.993-.767-.504-.51-.756-1.246-.756-2.207zm1.021 0c0 .729.164 1.275.492 1.64.327.36.739.54 1.236.54.493 0 .903-.182 1.231-.546.327-.364.491-.92.491-1.666 0-.704-.166-1.236-.497-1.597a1.58 1.58 0 00-1.225-.547c-.497 0-.909.18-1.236.542-.328.36-.492.905-.492 1.634zm-5.735-2.845h.994v2.46c.316 0 .537-.06.662-.178.129-.118.317-.46.563-1.029.195-.45.354-.746.475-.889a.904.904 0 01.419-.29c.159-.05.413-.074.762-.074h.199v.798l-.276-.005c-.261 0-.429.037-.502.112-.078.079-.195.313-.354.702-.15.372-.288.629-.414.772-.125.143-.318.273-.579.39.427.112.846.497 1.258 1.158l1.088 1.763h-1.093l-1.06-1.763c-.217-.353-.407-.586-.568-.696a.982.982 0 00-.58-.172v2.631h-.994v-5.69zm-4.653 0v5.69h-.988v-2.218h-.574c-.349 0-.61.044-.783.134-.17.086-.418.366-.746.841l-.866 1.243h-1.231l1.071-1.532c.327-.468.653-.733.977-.793-.567-.075-.988-.274-1.264-.595a1.664 1.664 0 01-.409-1.11c0-.492.179-.892.536-1.2.36-.307.881-.46 1.562-.46h2.715zm-.988.798h-1.413c-.592 0-.975.09-1.148.268a.884.884 0 00-.254.627c0 .34.126.59.376.75.254.157.701.236 1.341.236h1.098v-1.881zm-6.093 4.19c-.368.304-.723.518-1.066.643a3.124 3.124 0 01-1.092.188c-.644 0-1.139-.152-1.485-.456a1.5 1.5 0 01-.519-1.173c0-.279.064-.532.193-.761a1.63 1.63 0 01.513-.557c.214-.14.453-.245.718-.316.195-.05.489-.099.883-.145.802-.093 1.393-.204 1.772-.332.004-.133.005-.216.005-.252 0-.393-.093-.67-.281-.83-.254-.219-.631-.328-1.132-.328-.467 0-.813.08-1.037.241-.221.158-.385.438-.491.842l-.972-.129c.088-.404.234-.729.436-.975.203-.25.495-.441.878-.573a3.971 3.971 0 011.33-.204c.5 0 .907.057 1.22.172.313.114.543.259.69.434.147.171.25.389.309.653.033.164.05.461.05.89v1.286c0 .896.02 1.464.06 1.704.044.235.129.462.254.68h-1.038a1.991 1.991 0 01-.198-.702zm-.083-2.154c-.361.143-.902.264-1.623.364-.408.058-.697.122-.866.193a.85.85 0 00-.392.317.793.793 0 00-.138.455c0 .257.099.472.298.643.202.171.497.257.883.257.383 0 .723-.08 1.021-.24.298-.165.517-.389.657-.67.107-.219.16-.54.16-.965v-.354zm-9.985-2.834h.994v2.368h2.754v-2.368h.993v5.69h-.993v-2.524h-2.754v2.524h-.994v-5.69zm-5.917 0h.994v2.223h1.258c.821 0 1.452.156 1.893.467.445.307.668.732.668 1.275 0 .475-.186.882-.557 1.221-.368.336-.959.504-1.772.504h-2.484v-5.69zm.994 4.897h1.043c.629 0 1.078-.075 1.347-.225.268-.15.402-.384.402-.702a.894.894 0 00-.298-.659c-.198-.193-.638-.29-1.319-.29h-1.175v1.876zm-7.093-4.897h4.614v5.69h-.988v-4.892h-2.633v2.835c0 .66-.022 1.096-.066 1.307a.945.945 0 01-.364.552c-.199.157-.486.236-.861.236a8.61 8.61 0 01-.801-.043v-.804h.437c.206 0 .353-.02.441-.059a.331.331 0 00.177-.198c.029-.09.044-.38.044-.874v-3.75zm-2.39 3.858l1.027.123c-.162.582-.462 1.034-.9 1.355-.438.322-.997.483-1.678.483-.858 0-1.538-.256-2.042-.767-.501-.514-.751-1.234-.751-2.159 0-.957.254-1.7.762-2.229.507-.529 1.166-.793 1.976-.793.783 0 1.424.259 1.92.777.497.518.746 1.247.746 2.186 0 .057-.002.143-.006.257h-4.371c.036.626.219 1.104.546 1.436.328.333.736.499 1.225.499.365 0 .676-.093.933-.279.258-.186.462-.482.613-.89zm-3.262-1.56h3.273c-.044-.478-.169-.837-.375-1.077a1.544 1.544 0 00-1.231-.557c-.457 0-.841.148-1.154.445-.309.296-.48.693-.513 1.19zm-6.331-2.298h4.763v.798h-1.887v4.892h-.988v-4.892h-1.888v-.798zm-5.779 0h.993v4.34l2.755-4.34h1.07v5.69h-.993v-4.313l-2.754 4.313h-1.071v-5.69zm-6.662 2.845c0-1.054.301-1.834.905-2.342.504-.421 1.118-.632 1.843-.632.806 0 1.465.257 1.976.772.512.51.768 1.218.768 2.122 0 .732-.114 1.309-.343 1.73a2.343 2.343 0 01-.988.975c-.43.233-.901.349-1.413.349-.82 0-1.484-.256-1.992-.767-.504-.51-.756-1.246-.756-2.207zm1.021 0c0 .729.164 1.275.491 1.64a1.6 1.6 0 001.236.54c.493 0 .904-.182 1.231-.546.328-.364.492-.92.492-1.666 0-.704-.166-1.236-.497-1.597a1.581 1.581 0 00-1.226-.547 1.6 1.6 0 00-1.236.542c-.327.36-.491.905-.491 1.634zM115.091 43v-7.871h.905v.74a2.19 2.19 0 01.723-.65c.269-.146.595-.219.977-.219.501 0 .942.125 1.325.375s.672.604.867 1.061c.195.454.292.952.292 1.495a3.7 3.7 0 01-.325 1.575 2.385 2.385 0 01-.939 1.072 2.46 2.46 0 01-1.291.37 1.93 1.93 0 01-.895-.204 2.023 2.023 0 01-.645-.514V43h-.994zm.9-4.994c0 .732.153 1.273.458 1.624.305.35.675.525 1.109.525.442 0 .819-.18 1.132-.541.316-.365.475-.927.475-1.688 0-.726-.155-1.269-.464-1.63-.305-.36-.672-.54-1.098-.54-.424 0-.799.192-1.126.578-.324.383-.486.94-.486 1.672zm-6.613-2.877h4.764v.798h-1.888v4.892h-.988v-4.892h-1.888v-.798zm-1.291 3.606l.977.123c-.107.654-.381 1.166-.823 1.538-.438.368-.977.552-1.617.552-.802 0-1.448-.254-1.937-.761-.486-.511-.729-1.241-.729-2.192 0-.614.105-1.152.315-1.612.209-.461.528-.806.955-1.035.43-.232.897-.348 1.402-.348.636 0 1.157.157 1.562.471.404.311.664.754.778 1.33l-.966.144c-.092-.382-.256-.67-.491-.863a1.279 1.279 0 00-.845-.289c-.5 0-.907.175-1.22.525-.312.347-.469.897-.469 1.65 0 .765.151 1.32.453 1.667.302.346.695.52 1.181.52.39 0 .716-.116.977-.349.261-.232.427-.589.497-1.071zm-7.976-.273v-.97h3.052v.97h-3.052zm-6.276-.488c0-1.054.302-1.834.905-2.342.505-.421 1.119-.632 1.844-.632.806 0 1.464.257 1.976.772.511.51.767 1.218.767 2.122 0 .732-.114 1.309-.342 1.73a2.35 2.35 0 01-.988.975 2.92 2.92 0 01-1.413.349c-.82 0-1.485-.256-1.993-.767-.504-.51-.756-1.246-.756-2.207zm1.021 0c0 .729.164 1.275.492 1.64.327.36.74.54 1.236.54.493 0 .903-.182 1.23-.546.328-.364.492-.92.492-1.666 0-.704-.166-1.236-.497-1.597a1.58 1.58 0 00-1.225-.547c-.497 0-.909.18-1.237.542-.327.36-.49.905-.49 1.634zm-6.518-2.845h2.29c.563 0 .98.046 1.253.139.276.09.512.255.707.498.198.243.298.534.298.874 0 .271-.06.509-.177.712a1.38 1.38 0 01-.519.504c.276.09.504.257.685.504.184.243.276.532.276.868-.037.54-.236.94-.596 1.2-.361.26-.885.391-1.574.391h-2.643v-5.69zm.993 2.395h1.06c.423 0 .714-.022.872-.065a.926.926 0 00.425-.257.663.663 0 00.188-.471c0-.3-.11-.51-.332-.627-.217-.118-.59-.177-1.12-.177h-1.093v1.597zm0 2.502h1.308c.563 0 .95-.062 1.16-.187.21-.129.32-.349.33-.66 0-.182-.06-.35-.182-.503a.775.775 0 00-.474-.295c-.195-.043-.508-.064-.939-.064h-1.203v1.71zm-7.661-2.052c0-1.054.302-1.834.905-2.342.504-.421 1.119-.632 1.844-.632.806 0 1.464.257 1.976.772.511.51.767 1.218.767 2.122 0 .732-.114 1.309-.342 1.73a2.35 2.35 0 01-.988.975 2.92 2.92 0 01-1.413.349c-.82 0-1.485-.256-1.993-.767-.504-.51-.756-1.246-.756-2.207zm1.021 0c0 .729.164 1.275.491 1.64.328.36.74.54 1.237.54.493 0 .903-.182 1.23-.546.328-.364.492-.92.492-1.666 0-.704-.166-1.236-.497-1.597a1.58 1.58 0 00-1.225-.547c-.497 0-.91.18-1.237.542-.327.36-.49.905-.49 1.634zm-4.521-2.845h3.373v.798h-2.379v4.892h-.993v-5.69zM71.873 43v-7.871h.905v.74c.213-.29.454-.506.723-.65.269-.146.594-.219.977-.219.5 0 .942.125 1.325.375.382.25.671.604.866 1.061.195.454.293.952.293 1.495a3.7 3.7 0 01-.326 1.575 2.38 2.38 0 01-.938 1.072 2.46 2.46 0 01-1.292.37c-.331 0-.63-.068-.894-.204a2.025 2.025 0 01-.646-.514V43h-.993zm.9-4.994c0 .732.152 1.273.458 1.624.305.35.675.525 1.109.525.441 0 .819-.18 1.131-.541.317-.365.475-.927.475-1.688 0-.726-.154-1.269-.463-1.63-.306-.36-.672-.54-1.099-.54-.423 0-.798.192-1.126.578-.324.383-.486.94-.486 1.672zm-7.563-.032c0-1.054.302-1.834.906-2.342.504-.421 1.118-.632 1.843-.632.806 0 1.465.257 1.976.772.512.51.767 1.218.767 2.122 0 .732-.114 1.309-.342 1.73a2.35 2.35 0 01-.988.975 2.93 2.93 0 01-1.413.349c-.82 0-1.484-.256-1.992-.767-.504-.51-.757-1.246-.757-2.207zm1.022 0c0 .729.163 1.275.49 1.64.328.36.74.54 1.237.54.493 0 .904-.182 1.231-.546.328-.364.491-.92.491-1.666 0-.704-.165-1.236-.496-1.597a1.58 1.58 0 00-1.226-.547c-.496 0-.909.18-1.236.542-.328.36-.491.905-.491 1.634zM60 35.129h4.763v.798h-1.887v4.892h-.988v-4.892H60v-.798zM224.724 23.83h-9.32v-3.02h9.32v3.02zM228 26.657h-3.985L219.543 14h.93l-4.472 12.658h-3.83l5.845-15.314h4.117L228 26.657zm-29.422 0V11.343h6.752c1.004 0 1.874.164 2.612.492.753.329 1.336.793 1.749 1.393.413.585.62 1.278.62 2.077 0 .757-.207 1.428-.62 2.014-.413.585-.996 1.042-1.749 1.37-.738.329-1.608.493-2.612.493h-2.878v-1.135h2.856c1.121 0 2.103.171 2.944.514.841.328 1.498.8 1.97 1.414.473.614.709 1.342.709 2.184 0 .9-.236 1.692-.709 2.378-.472.671-1.129 1.192-1.97 1.563-.841.372-1.823.557-2.944.557h-6.73zm3.675-2.977h3.077c.59 0 1.055-.15 1.395-.45.339-.314.509-.75.509-1.306 0-.514-.17-.914-.509-1.2-.34-.3-.805-.45-1.395-.45h-3.299v-2.891h3.033c.487 0 .864-.143 1.129-.428.281-.286.421-.679.421-1.179 0-.457-.14-.813-.421-1.07-.265-.258-.642-.386-1.129-.386h-2.811v9.36zm-20.538 2.977V11.343h3.675V22.78l-.841-.45 6.73-10.988h3.807v15.314h-3.675V15.498l.797.107-6.663 11.052h-3.83zm-6.841 0h-3.652V14.191h3.652v12.466zm4.45-12.251h-12.552v-3.063h12.552v3.063zm-24.503 12.251h-3.675V11.343h3.675v15.314zm10.869 0h-4.759l-6.642-7.946h.332l5.778-7.368h4.428l-6.221 7.69v-.643l7.084 8.267zm-17.251 0h-10.892V11.343h10.892v3.02h-7.217v9.274h7.217v3.02zm-.398-6.19h-7.04v-3.02h7.04v3.02zm-27.162 6.19V11.343h13.172v15.314h-3.675V12.092l1.793 2.314h-9.607l1.992-2.292v14.543h-3.675zm-4.882-4.883l2.346 2.377c-.723.9-1.63 1.6-2.722 2.1a8.11 8.11 0 01-3.454.749c-1.181 0-2.265-.193-3.254-.578a7.912 7.912 0 01-2.568-1.65 7.484 7.484 0 01-1.683-2.548c-.383-.986-.575-2.064-.575-3.235 0-1.17.199-2.242.597-3.213a7.261 7.261 0 011.683-2.527 7.423 7.423 0 012.59-1.65c1.004-.4 2.103-.599 3.299-.599 1.225 0 2.361.25 3.409.75a7.167 7.167 0 012.678 2.099l-2.346 2.377a4.7 4.7 0 00-1.66-1.5 4.127 4.127 0 00-2.081-.556c-.842 0-1.587.207-2.236.621-.65.4-1.159.964-1.528 1.692-.354.714-.531 1.55-.531 2.506 0 .957.177 1.8.531 2.528.369.728.871 1.3 1.506 1.713.649.4 1.402.6 2.258.6.738 0 1.431-.178 2.081-.535a4.902 4.902 0 001.66-1.521zm-22.055 4.883h-3.675V11.343h6.243c1.106 0 2.08.207 2.922.62.856.415 1.52.993 1.992 1.736.472.728.709 1.578.709 2.549 0 .97-.237 1.827-.709 2.57-.472.742-1.136 1.32-1.992 1.735-.841.4-1.816.6-2.922.6h-2.79v-3.02h2.79c.59 0 1.055-.172 1.394-.514.354-.343.532-.8.532-1.371 0-.586-.178-1.043-.532-1.371-.34-.343-.804-.514-1.394-.514h-2.57v12.294zm-6.382 0H76.668V11.343H87.56v3.02h-7.217v9.274h7.217v3.02zm-.398-6.19h-7.04v-3.02h7.04v3.02zM60 26.657V11.343h13.172v15.314h-3.675V12.092l1.793 2.314h-9.608l1.993-2.292v14.543H60z" fill="#fff"/><path fill-rule="evenodd" clip-rule="evenodd" d="M48 13.216v27.568L24.99 54V19.123l8.66-6.892v32.246l10.39-5.967V15.49L24.99 4.547V0L48 13.216zM26.721 27h1.98v-1.97h-1.98V27zm2.97 0h1.979v-1.97h-1.98V27zm-2.97-2.954h1.98v-1.969h-1.98v1.97zm2.97 0h1.979v-1.969h-1.98v1.97z" fill="#B81618"/></svg>