<svg width="172" height="40" viewBox="0 0 172 40" fill="none" xmlns="http://www.w3.org/2000/svg"><path fill-rule="evenodd" clip-rule="evenodd" d="M17.359 3.368L2.987 11.473v17.053l7.466 4.21v-21.67l6.906 5.287V40L0 30.21V9.79L17.359 0v3.368zm-5.413 20.279v1.458h1.494v-1.458h-1.494zm2.24 0v1.458h1.493v-1.458h-1.493zm-2.24-2.188v1.458h1.494V21.46h-1.494zm2.24 0v1.458h1.493V21.46h-1.493z" fill="#B81618"/><path d="M172 26.021v4.215h-.746v-1.643h-.433c-.264 0-.461.033-.591.1-.128.063-.315.27-.562.622l-.654.921h-.929l.808-1.135c.247-.346.493-.542.737-.587-.427-.056-.745-.203-.953-.44a1.218 1.218 0 01-.308-.822c0-.366.134-.662.404-.89.272-.227.664-.34 1.178-.34H172zm-.746.592h-1.066c-.447 0-.735.066-.866.198a.646.646 0 00-.191.464c0 .252.094.437.283.556.191.117.529.175 1.012.175h.828v-1.393zm-7.499-.592h.75v3.215l2.077-3.215h.808v4.215h-.749v-3.195l-2.078 3.195h-.808v-4.215zm-4.709 0h.749v1.755h2.078V26.02h.749v4.215h-.749v-1.87h-2.078v1.87h-.749V26.02zm-1.866 3.695a2.798 2.798 0 01-.803.477 2.407 2.407 0 01-.825.139c-.486 0-.859-.113-1.12-.338a1.102 1.102 0 01-.391-.869c0-.206.048-.394.145-.564.1-.172.229-.31.388-.412.161-.104.341-.182.541-.235a5.6 5.6 0 01.666-.107c.605-.069 1.051-.15 1.337-.246l.004-.186c0-.291-.071-.497-.212-.616-.192-.161-.477-.242-.854-.242-.353 0-.614.06-.783.179-.166.116-.29.324-.37.623l-.733-.095c.066-.3.176-.54.329-.723.152-.185.373-.326.662-.424.288-.1.623-.151 1.003-.151.378 0 .684.042.92.127.236.085.41.192.521.321.111.127.189.289.233.485.025.121.038.341.038.658v.953c0 .664.015 1.085.045 1.262a1.6 1.6 0 00.192.504h-.783a1.45 1.45 0 01-.15-.52zm-.062-1.595c-.272.106-.68.196-1.224.27-.309.042-.526.09-.654.143a.644.644 0 00-.296.234.583.583 0 00-.104.337c0 .19.075.35.225.476.153.128.375.191.666.191.289 0 .546-.06.77-.179a1.15 1.15 0 00.496-.496c.08-.161.121-.4.121-.714v-.262zm-7.441-2.1h3.489v4.215h-.749v-3.623h-1.991v3.623h-.749v-4.215zm-5.846 0h1.166l1.161 3.374 1.291-3.374h1.079v4.215h-.75v-3.393l-1.307 3.393h-.671l-1.236-3.556v3.556h-.733v-4.215zm-5.047 2.108c0-.78.228-1.359.683-1.735.38-.312.844-.468 1.391-.468.608 0 1.105.19 1.49.572.386.378.579.902.579 1.571 0 .543-.086.97-.258 1.282-.169.31-.418.55-.745.723-.325.172-.68.258-1.066.258-.619 0-1.12-.19-1.503-.568-.381-.378-.571-.923-.571-1.635zm.77 0c0 .54.124.944.371 1.214.247.268.558.401.933.401.372 0 .681-.135.928-.405s.371-.681.371-1.234c0-.521-.125-.916-.375-1.183a1.2 1.2 0 00-.924-.405c-.375 0-.686.134-.933.401s-.371.671-.371 1.21zm-4.326-2.108h.75v1.822c.238 0 .405-.044.499-.131.097-.087.239-.341.425-.762.147-.334.266-.553.358-.659a.685.685 0 01.317-.214c.119-.037.31-.056.574-.056h.15v.592l-.208-.004c-.197 0-.324.027-.379.083-.058.058-.147.232-.267.52-.113.275-.217.466-.312.572-.094.105-.24.202-.437.29.322.081.638.367.949.856l.821 1.306h-.825l-.799-1.306c-.164-.261-.307-.433-.429-.515a.748.748 0 00-.437-.127v1.948h-.75v-4.215zm-3.51 0v4.215h-.745v-1.643h-.433c-.264 0-.461.033-.592.1-.127.063-.315.27-.562.622l-.654.921h-.928l.808-1.135c.247-.346.492-.542.737-.587-.428-.056-.746-.203-.954-.44a1.223 1.223 0 01-.308-.822c0-.366.135-.662.404-.89.272-.227.665-.34 1.178-.34h2.049zm-.745.592h-1.066c-.447 0-.736.066-.866.198a.647.647 0 00-.192.464c0 .252.094.437.283.556.192.117.529.175 1.012.175h.829v-1.393zm-4.597 3.103a2.816 2.816 0 01-.804.477c-.255.092-.53.139-.824.139-.486 0-.86-.113-1.121-.338a1.102 1.102 0 01-.391-.869c0-.206.049-.394.146-.564.1-.172.229-.31.387-.412.161-.104.341-.182.541-.235.147-.037.37-.072.667-.107.605-.069 1.05-.15 1.336-.246l.004-.186c0-.291-.07-.497-.212-.616-.192-.161-.476-.242-.854-.242-.352 0-.613.06-.782.179-.167.116-.291.324-.371.623l-.733-.095c.067-.3.176-.54.329-.723.153-.185.373-.326.662-.424.289-.1.623-.151 1.004-.151.377 0 .684.042.92.127.236.085.409.192.52.321.111.127.189.289.234.485.024.121.037.341.037.658v.953c0 .664.015 1.085.046 1.262.033.175.097.343.191.504h-.782a1.45 1.45 0 01-.15-.52zm-.063-1.595c-.272.106-.68.196-1.224.27-.308.042-.526.09-.654.143a.641.641 0 00-.295.234.577.577 0 00-.105.337c0 .19.075.35.225.476.153.128.375.191.667.191.288 0 .545-.06.77-.179a1.14 1.14 0 00.495-.496c.081-.161.121-.4.121-.714v-.262zm-7.532-2.1h.749v1.755h2.078V26.02h.749v4.215h-.749v-1.87h-2.078v1.87h-.749V26.02zm-4.464 0h.749v1.647h.95c.619 0 1.095.116 1.428.346.336.227.504.542.504.944 0 .352-.14.654-.421.905-.277.249-.723.373-1.336.373h-1.874v-4.215zm.749 3.628h.787c.475 0 .814-.056 1.016-.167a.553.553 0 00.304-.52.66.66 0 00-.224-.488c-.15-.143-.482-.214-.996-.214h-.887v1.389zm-5.35-3.628h3.481v4.215h-.746v-3.623h-1.986v2.1c0 .489-.016.812-.05.968a.702.702 0 01-.274.409c-.15.116-.367.174-.65.174-.175 0-.376-.01-.604-.032v-.595h.329a.902.902 0 00.333-.044.247.247 0 00.134-.146c.022-.067.033-.282.033-.647v-2.78zm-1.803 2.858l.774.091c-.122.431-.348.766-.678 1.004-.331.239-.753.358-1.266.358-.647 0-1.161-.19-1.541-.568-.377-.381-.566-.914-.566-1.6 0-.709.191-1.259.574-1.65.384-.392.88-.588 1.491-.588.591 0 1.074.192 1.449.575.375.384.562.924.562 1.62 0 .042-.001.106-.004.19h-3.298c.028.463.166.818.413 1.064.247.246.555.37.924.37.275 0 .509-.07.704-.207.194-.138.348-.357.462-.66zm-2.461-1.155h2.469c-.033-.355-.128-.62-.283-.798a1.172 1.172 0 00-.929-.413c-.344 0-.634.11-.87.33-.233.22-.362.513-.387.88zm-4.776-1.703h3.593v.592h-1.424v3.623h-.745v-3.623h-1.424v-.592zm-4.36 0h.75v3.215l2.078-3.215h.807v4.215h-.749v-3.195l-2.078 3.195h-.808v-4.215zm-5.026 2.108c0-.78.228-1.359.683-1.735.38-.312.844-.468 1.391-.468.608 0 1.105.19 1.49.572.387.378.58.902.58 1.571 0 .543-.086.97-.259 1.282-.169.31-.417.55-.745.723-.325.172-.68.258-1.066.258-.619 0-1.12-.19-1.503-.568-.38-.378-.57-.923-.57-1.635zm.77 0c0 .54.124.944.371 1.214.248.268.558.401.933.401.372 0 .682-.135.929-.405s.37-.681.37-1.234c0-.521-.125-.916-.374-1.183a1.201 1.201 0 00-.925-.405c-.375 0-.686.134-.933.401s-.37.671-.37 1.21zm-5.237 3.723v-5.83h.683v.547c.16-.214.342-.374.545-.48.203-.109.448-.163.737-.163.377 0 .71.093 1 .278.288.185.506.447.653.786.147.336.22.705.22 1.107 0 .431-.081.82-.245 1.167a1.774 1.774 0 01-.708.794 1.882 1.882 0 01-.974.274 1.48 1.48 0 01-1.162-.532v2.052h-.75zm.678-3.7c0 .543.116.944.346 1.203.23.26.51.39.837.39.333 0 .618-.134.853-.402.24-.27.359-.686.359-1.25 0-.537-.117-.94-.35-1.207-.23-.267-.507-.4-.829-.4-.319 0-.602.142-.85.428-.243.283-.366.696-.366 1.239zm-4.988-2.131h3.593v.592h-1.424v3.623h-.745v-3.623h-1.424v-.592zm-.974 2.671l.737.092c-.08.484-.288.864-.62 1.139-.331.272-.738.409-1.22.409-.606 0-1.093-.188-1.462-.564-.367-.378-.55-.92-.55-1.623 0-.456.08-.854.237-1.195.159-.341.399-.597.72-.766a2.225 2.225 0 011.058-.258c.48 0 .873.116 1.179.35.305.23.5.558.587.983l-.729.108c-.07-.283-.193-.496-.37-.64a.974.974 0 00-.637-.214c-.378 0-.685.13-.92.39-.237.256-.355.664-.355 1.222 0 .566.114.977.342 1.234.227.257.525.385.89.385.295 0 .54-.086.738-.258.197-.172.322-.436.375-.794zm-6.017-.202v-.718h2.302v.718h-2.302zm-4.735-.361c0-.78.228-1.359.683-1.735.38-.312.844-.468 1.391-.468.608 0 1.105.19 1.49.572.387.378.58.902.58 1.571 0 .543-.087.97-.259 1.282-.169.31-.417.55-.745.723-.325.172-.68.258-1.066.258-.619 0-1.12-.19-1.503-.568-.38-.378-.57-.923-.57-1.635zm.77 0c0 .54.124.944.371 1.214.247.268.558.401.933.401.372 0 .682-.135.929-.405s.37-.681.37-1.234c0-.521-.125-.916-.374-1.183a1.202 1.202 0 00-.925-.405c-.375 0-.686.134-.933.401s-.37.671-.37 1.21zm-4.917-2.108h1.728c.425 0 .74.035.945.103.209.067.386.19.533.37.15.18.225.395.225.646 0 .202-.044.377-.133.528a1.034 1.034 0 01-.391.373c.208.067.38.191.516.374.139.18.208.394.208.643-.028.4-.177.695-.45.889-.272.193-.667.29-1.186.29H66.64V26.02zm.75 1.774h.8c.318 0 .538-.016.657-.047a.7.7 0 00.32-.19.486.486 0 00.142-.35c0-.222-.083-.377-.25-.464-.163-.088-.445-.131-.845-.131h-.824v1.182zm0 1.854h.986c.425 0 .717-.046.875-.139.158-.095.242-.258.25-.488a.582.582 0 00-.138-.373.586.586 0 00-.358-.219 3.73 3.73 0 00-.708-.047h-.907v1.266zm-5.78-1.52c0-.78.228-1.359.683-1.735.38-.312.844-.468 1.39-.468.609 0 1.106.19 1.491.572.386.378.58.902.58 1.571 0 .543-.087.97-.259 1.282-.17.31-.418.55-.745.723-.325.172-.68.258-1.066.258-.62 0-1.12-.19-1.503-.568-.38-.378-.57-.923-.57-1.635zm.77 0c0 .54.124.944.371 1.214.247.268.558.401.933.401.372 0 .681-.135.928-.405s.371-.681.371-1.234c0-.521-.125-.916-.375-1.183a1.202 1.202 0 00-.924-.405c-.375 0-.686.134-.933.401s-.37.671-.37 1.21zm-3.41-2.108h2.544v.592H59.72v3.623h-.75v-4.215zm-4.75 5.831v-5.83h.682v.547c.161-.214.343-.374.546-.48.202-.109.448-.163.737-.163.377 0 .71.093.999.278.289.185.507.447.654.786.147.336.22.705.22 1.107 0 .431-.081.82-.245 1.167a1.774 1.774 0 01-.708.794 1.882 1.882 0 01-.974.274 1.48 1.48 0 01-1.162-.532v2.052h-.75zm.678-3.7c0 .543.115.944.346 1.203.23.26.509.39.837.39.333 0 .617-.134.853-.402.239-.27.358-.686.358-1.25 0-.537-.116-.94-.35-1.207-.23-.267-.506-.4-.828-.4-.32 0-.602.142-.85.428-.244.283-.366.696-.366 1.239zm-5.705-.023c0-.78.228-1.359.683-1.735.38-.312.844-.468 1.391-.468.608 0 1.105.19 1.49.572.387.378.58.902.58 1.571 0 .543-.087.97-.259 1.282-.169.31-.417.55-.745.723-.325.172-.68.258-1.066.258-.619 0-1.12-.19-1.503-.568-.38-.378-.57-.923-.57-1.635zm.77 0c0 .54.124.944.371 1.214.247.268.558.401.933.401.372 0 .681-.135.929-.405.247-.27.37-.681.37-1.234 0-.521-.125-.916-.375-1.183a1.201 1.201 0 00-.924-.405c-.375 0-.686.134-.933.401s-.37.671-.37 1.21zm-4.7-2.108h3.593v.592h-1.424v3.623h-.745v-3.623h-1.424v-.592zm124.265-8.369h-7.031v-2.237h7.031v2.237zM172 19.746h-3.007l-3.373-9.377h.701l-3.373 9.377h-2.889l4.409-11.344h3.106L172 19.746zm-22.196 0V8.402h5.094c.757 0 1.414.122 1.97.365.568.243 1.008.587 1.32 1.031.311.434.467.947.467 1.54a2.49 2.49 0 01-.467 1.49c-.312.434-.752.773-1.32 1.016-.556.243-1.213.365-1.97.365h-2.171v-.84h2.154c.846 0 1.586.126 2.221.38.635.243 1.13.592 1.486 1.047.357.455.535.994.535 1.618 0 .667-.178 1.254-.535 1.761-.356.498-.851.884-1.486 1.159s-1.375.412-2.221.412h-5.077zm2.772-2.205h2.322c.445 0 .796-.111 1.052-.333.256-.233.384-.556.384-.968 0-.381-.128-.677-.384-.889-.256-.222-.607-.333-1.052-.333h-2.489v-2.142h2.288c.368 0 .651-.105.852-.317.211-.212.317-.502.317-.873 0-.338-.106-.603-.317-.793-.201-.19-.484-.286-.852-.286h-2.121v6.934zm-15.493 2.205V8.402h2.772v8.473l-.635-.334 5.077-8.139h2.873v11.344h-2.772V11.48l.601.08-5.027 8.186h-2.889zm-5.161 0h-2.755v-9.234h2.755v9.234zm3.357-9.075h-9.469V8.402h9.469v2.269zm-18.485 9.075h-2.772V8.402h2.772v11.344zm8.2 0h-3.591l-5.01-5.886h.251l4.359-5.458h3.34l-4.693 5.696v-.476l5.344 6.124zm-13.014 0h-8.217V8.402h8.217v2.237h-5.444v6.87h5.444v2.237zm-.301-4.585h-5.31v-2.237h5.31v2.237zM91.19 19.746V8.402h9.936v11.344h-2.772V8.957l1.352 1.714h-7.248l1.503-1.698v10.773H91.19zm-3.684-3.617l1.77 1.76a5.55 5.55 0 01-2.054 1.556 6.211 6.211 0 01-2.605.555c-.89 0-1.71-.143-2.455-.428a5.986 5.986 0 01-1.938-1.222 5.529 5.529 0 01-1.269-1.888 6.44 6.44 0 01-.434-2.396c0-.867.15-1.66.451-2.38.3-.73.724-1.354 1.27-1.872a5.618 5.618 0 011.953-1.222c.757-.296 1.587-.444 2.489-.444a5.98 5.98 0 012.572.556c.801.36 1.475.877 2.02 1.554l-1.77 1.762a3.521 3.521 0 00-1.253-1.111 3.157 3.157 0 00-1.57-.413c-.634 0-1.196.154-1.686.46-.49.297-.874.714-1.153 1.254-.267.529-.4 1.147-.4 1.856 0 .709.133 1.333.4 1.872.279.54.657.963 1.136 1.27.49.296 1.058.444 1.704.444.556 0 1.08-.132 1.57-.397.5-.275.918-.65 1.252-1.126zm-16.638 3.617h-2.773V8.402h4.71c.835 0 1.57.153 2.204.46.646.307 1.147.735 1.504 1.285.356.54.534 1.17.534 1.888 0 .72-.178 1.354-.534 1.904-.357.55-.858.979-1.504 1.285-.634.297-1.369.445-2.204.445h-2.104v-2.237h2.104c.445 0 .796-.127 1.052-.381.267-.254.4-.593.4-1.016 0-.433-.133-.772-.4-1.015-.256-.254-.607-.38-1.052-.38h-1.937v9.106zm-4.814 0h-8.217V8.402h8.217v2.237h-5.445v6.87h5.445v2.237zm-.301-4.585h-5.31v-2.237h5.31v2.237zm-20.49 4.585V8.402H55.2v11.344h-2.773V8.957l1.353 1.714h-7.248l1.503-1.698v10.773h-2.772z" fill="#fff"/><path fill-rule="evenodd" clip-rule="evenodd" d="M36.21 9.79v20.42L18.852 40V14.166l6.533-5.106v23.886l7.839-4.42V11.473L18.852 3.368V0L36.21 9.79zM20.16 20h1.493v-1.459H20.16V20zm2.24 0h1.493v-1.459H22.4V20zm-2.24-2.188h1.493v-1.459H20.16v1.459zm2.24 0h1.493v-1.459H22.4v1.459z" fill="#B81618"/></svg>