<svg width="24" height="24" viewBox="0 0 24 24" fill="none" xmlns="http://www.w3.org/2000/svg"><path d="M18.797 6.366a.331.331 0 00-.095-.232.321.321 0 00-.228-.096c-1.928 0-4.206-1.077-5.873-2.454v16.997c1.683-.643 3.174-1.48 4.268-2.619 1.182-1.23 1.928-2.84 1.928-5.025V6.366zM5.203 12.937c0 2.186.746 3.795 1.93 5.024 1.093 1.137 2.583 1.97 4.266 2.61V3.584c-1.66 1.37-3.945 2.454-5.873 2.454a.321.321 0 00-.228.096.331.331 0 00-.095.232v6.571zm14.797 0c0 2.508-.872 4.422-2.27 5.878-1.382 1.439-3.251 2.405-5.218 3.101l-.004.002a1.506 1.506 0 01-1.023-.015v-.001c-1.966-.691-3.833-1.654-5.213-3.088C4.872 17.359 4 15.445 4 12.937V6.366c0-.41.161-.805.447-1.095.286-.29.675-.454 1.08-.454 1.654 0 3.831-1.034 5.375-2.403l.004-.004a1.667 1.667 0 012.07-.094l.118.094.004.004c1.552 1.378 3.72 2.403 5.376 2.403.404 0 .793.164 1.079.454.286.29.447.684.447 1.095v6.571z" fill="#C42539"/></svg>