<svg width="24" height="24" viewBox="0 0 24 24" fill="none" xmlns="http://www.w3.org/2000/svg"><path d="M20.78 14.195l-.005-.055a.326.326 0 00-.067-.147l-.001-.001-3.266-4.057-.002-.003a.329.329 0 00-.184-.115l-.072-.008h-2.69v7.579a2.487 2.487 0 012.204-1.332c1.163 0 2.136.794 2.409 1.866h1.345a.326.326 0 00.33-.326v-3.401zM7.312 17.27c-.7 0-1.266.563-1.266 1.258 0 .696.567 1.259 1.266 1.259.7 0 1.268-.563 1.268-1.259 0-.695-.568-1.258-1.268-1.258zm9.385 0c-.7 0-1.266.563-1.266 1.258 0 .696.567 1.259 1.266 1.259.7 0 1.268-.563 1.268-1.259 0-.695-.568-1.258-1.268-1.258zM4.035 3.21a.613.613 0 01.86-.064.604.604 0 01.065.855L3.395 5.808H5.05a1.057 1.057 0 011.092.554l.04.085.03.087a1.038 1.038 0 01-.372 1.14l-1.834 1.96a.613.613 0 01-.863.03.604.604 0 01-.03-.856L4.786 7.02H3.089v-.002a1.07 1.07 0 01-1.063-1.3l.049-.156c.05-.13.129-.245.225-.346h-.002L4.035 3.21zM22 17.597c0 .408-.163.8-.454 1.088-.29.288-.684.45-1.095.45h-1.345A2.483 2.483 0 0116.697 21a2.482 2.482 0 01-2.407-1.865H9.72A2.483 2.483 0 017.312 21a2.482 2.482 0 01-2.407-1.865H3.559a1.56 1.56 0 01-1.096-.451 1.534 1.534 0 01-.452-1.088v-4.664c0-.334.272-.606.61-.606.336 0 .61.272.61.606v4.664a.325.325 0 00.328.326h1.346a2.482 2.482 0 012.407-1.866c1.163 0 2.137.794 2.409 1.866h3.551V7.337c0-.334-.133-.655-.37-.891a1.272 1.272 0 00-.897-.368H9.189a.608.608 0 01-.609-.607c0-.334.273-.606.61-.606h2.815c.66 0 1.292.26 1.759.724.466.463.728 1.092.728 1.748v1.258h2.697a1.557 1.557 0 011.207.585l3.263 4.054.077.105c.17.25.262.546.264.85v3.407z" fill="#C42539"/></svg>