<svg width="24" height="24" viewBox="0 0 24 24" fill="none" xmlns="http://www.w3.org/2000/svg"><path d="M2 15.753a1.55 1.55 0 01.785-1.347h.001l1.408-.793a.61.61 0 01.599 1.063l-1.408.792a.33.33 0 00-.067.519l.068.052h.003l7.976 4.57.15.075a1.267 1.267 0 00.97 0l.15-.075 7.976-4.57h.003a.329.329 0 000-.571l-1.407-.793a.61.61 0 01.6-1.062l1.407.792v.001a1.549 1.549 0 01.003 2.692v.001l-7.974 4.567a2.488 2.488 0 01-2.486 0l-7.974-4.567v-.001A1.548 1.548 0 012 15.753zm18.78-7.506a.33.33 0 00-.166-.286h-.003l-7.976-4.57-.002-.001a1.267 1.267 0 00-1.266 0h-.002L3.389 7.96l-.003.001a.33.33 0 00-.068.52l.068.052h.003l7.976 4.57.15.075a1.267 1.267 0 00.97 0l.15-.075 7.976-4.57h.003a.33.33 0 00.166-.286zm1.22 0a1.55 1.55 0 01-.784 1.345l.001.001-7.974 4.567a2.488 2.488 0 01-2.486 0L2.783 9.593A1.548 1.548 0 012.785 6.9l7.973-4.567a2.487 2.487 0 012.484 0L21.215 6.9A1.55 1.55 0 0122 8.247z" fill="#C42539"/></svg>