<svg width="24" height="24" viewBox="0 0 24 24" fill="none" xmlns="http://www.w3.org/2000/svg"><path d="M8.217 4.746A1.4 1.4 0 006.82 3.348H4.746a1.4 1.4 0 00-1.398 1.398v14.508a1.4 1.4 0 001.398 1.398h14.508a1.4 1.4 0 001.398-1.398V8.656l-4.384 2.794a1.193 1.193 0 01-1.833-1.005v-1.79l-4.383 2.793.001.002a1.191 1.191 0 01-1.836-1.006V4.746zm-.352 10.725a.674.674 0 010 1.348h-.01a.674.674 0 010-1.348h.01zm4.145 0a.674.674 0 010 1.348H12a.674.674 0 010-1.348h.01zm4.145 0a.674.674 0 010 1.348h-.01a.674.674 0 010-1.348h.01zm-6.59-5.308l4.384-2.795.14-.077a1.19 1.19 0 01.462-.109l.16.005c.105.01.209.036.308.074l.145.067.134.086c.085.063.163.137.229.22l.09.132.071.143c.062.146.095.304.095.464v1.79l4.383-2.795.141-.077c.144-.066.301-.104.462-.109l.16.005c.105.01.208.036.307.074l.146.067.133.086c.086.063.163.137.229.22l.09.132.072.143c.062.146.094.304.094.464v10.88A2.747 2.747 0 0119.254 22H4.746A2.747 2.747 0 012 19.254V4.746A2.747 2.747 0 014.746 2H6.82a2.747 2.747 0 012.746 2.746v5.417z" fill="#C42539"/></svg>