<svg width="40" height="40" viewBox="0 0 40 40" fill="none" xmlns="http://www.w3.org/2000/svg">
<rect width="40" height="40" rx="6" fill="#B81618"/>
<path d="M27.5514 11.7759C27.5514 11.0378 26.9495 10.4396 26.2068 10.4396H13.7932C13.0505 10.4396 12.4486 11.0378 12.4486 11.7759V28.2241C12.4486 28.9622 13.0505 29.5604 13.7932 29.5604H26.2068C26.9495 29.5604 27.5514 28.9622 27.5514 28.2241V11.7759ZM15.8723 25.4483C16.2722 25.4483 16.5966 25.7707 16.5966 26.1681C16.5966 26.5655 16.2722 26.8879 15.8723 26.8879H15.8622C15.4622 26.8879 15.1378 26.5655 15.1378 26.1681C15.1378 25.7707 15.4622 25.4483 15.8622 25.4483H15.8723ZM20.0101 25.4483C20.41 25.4483 20.7344 25.7707 20.7344 26.1681C20.7344 26.5655 20.41 26.8879 20.0101 26.8879H20C19.6001 26.8879 19.2757 26.5655 19.2757 26.1681C19.2757 25.7707 19.6001 25.4483 20 25.4483H20.0101ZM23.4135 26.1681V22.056C23.4135 21.6586 23.7379 21.3362 24.1378 21.3362C24.5378 21.3362 24.8622 21.6586 24.8622 22.056V26.1681C24.8622 26.5655 24.5378 26.8879 24.1378 26.8879C23.7379 26.8879 23.4135 26.5655 23.4135 26.1681ZM15.8723 21.3362C16.2722 21.3362 16.5966 21.6586 16.5966 22.056C16.5966 22.4535 16.2722 22.7759 15.8723 22.7759H15.8622C15.4622 22.7759 15.1378 22.4535 15.1378 22.056C15.1378 21.6586 15.4622 21.3362 15.8622 21.3362H15.8723ZM20.0101 21.3362C20.41 21.3362 20.7344 21.6586 20.7344 22.056C20.7344 22.4535 20.41 22.7759 20.0101 22.7759H20C19.6001 22.7759 19.2757 22.4535 19.2757 22.056C19.2757 21.6586 19.6001 21.3362 20 21.3362H20.0101ZM15.8723 17.2241C16.2722 17.2241 16.5966 17.5465 16.5966 17.944C16.5966 18.3414 16.2722 18.6638 15.8723 18.6638H15.8622C15.4622 18.6638 15.1378 18.3414 15.1378 17.944C15.1378 17.5465 15.4622 17.2241 15.8622 17.2241H15.8723ZM20.0101 17.2241C20.41 17.2241 20.7344 17.5465 20.7344 17.944C20.7344 18.3414 20.41 18.6638 20.0101 18.6638H20C19.6001 18.6638 19.2757 18.3414 19.2757 17.944C19.2757 17.5465 19.6001 17.2241 20 17.2241H20.0101ZM24.1479 17.2241C24.5479 17.2241 24.8723 17.5465 24.8723 17.944C24.8723 18.3414 24.5479 18.6638 24.1479 18.6638H24.1378C23.7379 18.6638 23.4135 18.3414 23.4135 17.944C23.4135 17.5465 23.7379 17.2241 24.1378 17.2241H24.1479ZM24.1378 13.1121C24.5378 13.1121 24.8622 13.4345 24.8622 13.8319C24.8622 14.2293 24.5378 14.5517 24.1378 14.5517H15.8622C15.4622 14.5517 15.1378 14.2293 15.1378 13.8319C15.1378 13.4345 15.4622 13.1121 15.8622 13.1121H24.1378ZM29 28.2241C29 29.7571 27.7493 31 26.2068 31H13.7932C12.2507 31 11 29.7571 11 28.2241V11.7759C11 10.2429 12.2507 9 13.7932 9H26.2068C27.7493 9 29 10.2429 29 11.7759V28.2241Z" fill="white"/>
</svg>
