<svg width="24" height="24" viewBox="0 0 24 24" fill="none" xmlns="http://www.w3.org/2000/svg">
<path d="M18.797 6.36575C18.7969 6.27876 18.7628 6.19532 18.7022 6.1338C18.6415 6.07231 18.5594 6.03754 18.4737 6.03754C16.5459 6.03754 14.2679 4.96124 12.6015 3.58421V20.5815C14.2836 19.9377 15.7747 19.1018 16.8688 17.9622C18.0508 16.7311 18.797 15.1229 18.797 12.9373V6.36575ZM5.20298 12.9373C5.20298 15.1231 5.94919 16.7315 7.13208 17.9613C8.22555 19.0981 9.71568 19.931 11.3985 20.5705V3.58421C9.73958 4.95331 7.45394 6.03754 5.5263 6.03754C5.44056 6.03754 5.35849 6.07231 5.29781 6.1338C5.23721 6.19532 5.20309 6.27876 5.20298 6.36575V12.9373ZM20 12.9373C20 15.4454 19.1276 17.3587 17.7295 18.8148C16.3478 20.2538 14.4786 21.2205 12.5121 21.9163L12.5076 21.9182C12.1752 22.0325 11.814 22.0268 11.4852 21.9026V21.9016C9.51867 21.2109 7.65235 20.2485 6.2723 18.8139C4.87265 17.3588 4 15.4454 4 12.9373V6.36575C4.00011 5.95519 4.16113 5.56147 4.44705 5.2711C4.73322 4.98061 5.1216 4.81729 5.5263 4.81729C7.1814 4.81729 9.35843 3.78298 10.9018 2.41439L10.9063 2.4098C11.2111 2.14548 11.5991 2 12 2C12.3508 2 12.6915 2.11142 12.9754 2.31629L13.0937 2.4098L13.0982 2.41439C14.6502 3.7918 16.8182 4.81729 18.4737 4.81729C18.8784 4.81729 19.2668 4.98061 19.5529 5.2711C19.8389 5.56147 19.9999 5.9552 20 6.36575V12.9373Z" fill="#C42539"/>
</svg>
