<svg width="24" height="24" viewBox="0 0 24 24" fill="none" xmlns="http://www.w3.org/2000/svg">
<path d="M20.7802 14.1948L20.7747 14.1401C20.7651 14.0864 20.7424 14.0355 20.7078 13.9926L20.7068 13.9917L17.4414 9.9351L17.4387 9.93237C17.4081 9.89394 17.3693 9.86276 17.325 9.84129C17.3028 9.83052 17.2793 9.82223 17.2554 9.8167L17.183 9.80851H14.4922V17.3879C14.907 16.5973 15.738 16.0564 16.6972 16.0564C17.8599 16.0564 18.8334 16.8503 19.1058 17.9216H20.4511C20.5383 17.9216 20.6223 17.8872 20.6839 17.826C20.7453 17.7648 20.7802 17.682 20.7802 17.5956V14.1948ZM7.31248 17.2695C6.61284 17.2696 6.0459 17.8329 6.0459 18.5282C6.0459 19.2235 6.61284 19.7868 7.31248 19.7869C8.01219 19.7869 8.57997 19.2235 8.57997 18.5282C8.57997 17.8328 8.01219 17.2695 7.31248 17.2695ZM16.6972 17.2695C15.9976 17.2696 15.4307 17.8329 15.4307 18.5282C15.4307 19.2235 15.9976 19.7868 16.6972 19.7869C17.397 19.7869 17.9647 19.2235 17.9647 18.5282C17.9647 17.8328 17.397 17.2695 16.6972 17.2695ZM4.03514 3.21091C4.25479 2.95734 4.63946 2.92826 4.8948 3.14625C5.15011 3.36456 5.17942 3.74768 4.95987 4.00146L3.39544 5.80751H5.04969C5.26829 5.77447 5.49262 5.81072 5.69031 5.91225C5.88491 6.01225 6.04256 6.16994 6.14213 6.36217L6.18154 6.44687L6.2127 6.5343C6.27635 6.7408 6.27428 6.96268 6.20537 7.1691C6.13785 7.37117 6.00946 7.54655 5.83969 7.67367L4.00581 9.63364C3.7764 9.87872 3.39008 9.89248 3.1434 9.6646C2.89673 9.43657 2.88278 9.05271 3.11224 8.80757L4.78665 7.01974H3.08933V7.01792C2.87669 7.02083 2.66763 6.96289 2.48904 6.8476C2.30506 6.72882 2.16214 6.55679 2.07937 6.35488C1.99664 6.15286 1.97799 5.93012 2.02621 5.71734L2.07479 5.5616C2.12573 5.43277 2.2036 5.31689 2.30024 5.21642L2.29841 5.21551L4.03514 3.21091ZM22 17.5956C22 18.0037 21.8367 18.3953 21.5463 18.6839C21.256 18.9725 20.8618 19.1348 20.4511 19.1348H19.1058C18.8334 20.2061 17.8599 21 16.6972 21C15.5347 20.9999 14.5621 20.2059 14.2896 19.1348H9.72099C9.44862 20.2061 8.47512 21 7.31248 21C6.14995 20.9999 5.17729 20.2059 4.90488 19.1348H3.55857C3.14795 19.1347 2.75374 18.9725 2.46338 18.6839C2.17303 18.3953 2.01063 18.0036 2.01063 17.5956V12.9324C2.01063 12.5977 2.28327 12.3259 2.62009 12.3259C2.95699 12.3259 3.23047 12.5976 3.23047 12.9324V17.5956C3.23047 17.6821 3.26515 17.7648 3.3267 17.826C3.38826 17.8872 3.47151 17.9216 3.55857 17.9216H4.90488C5.17729 16.8504 6.14995 16.0564 7.31248 16.0564C8.47512 16.0564 9.44862 16.8503 9.72099 17.9216H13.2724V7.33669C13.2724 7.00277 13.1388 6.68207 12.9012 6.44596C12.6636 6.20989 12.3408 6.07801 12.0049 6.07801H9.18943C8.8526 6.07792 8.57997 5.80618 8.57997 5.47144C8.57997 5.13669 8.8526 4.86495 9.18943 4.86487H12.0049C12.6644 4.86487 13.2972 5.12549 13.7636 5.58893C14.23 6.05241 14.4922 6.68121 14.4922 7.33669V8.59536H17.1885C17.421 8.59647 17.6503 8.64991 17.8593 8.75111C18.0684 8.85232 18.2522 8.99877 18.3964 9.18008H18.3955L21.6591 13.2339L21.7361 13.3386C21.9055 13.5891 21.9982 13.8847 22 14.1884V17.5956Z" fill="#C42539"/>
</svg>
