<svg width="24" height="24" viewBox="0 0 24 24" fill="none" xmlns="http://www.w3.org/2000/svg">
<path d="M2 15.753C2.00002 15.4792 2.07289 15.2098 2.21076 14.9732C2.34864 14.7368 2.54712 14.5411 2.7853 14.4061L2.78622 14.4052L4.19371 13.6126C4.48712 13.4473 4.85944 13.5511 5.02483 13.8444C5.19014 14.1378 5.08641 14.5101 4.793 14.6755L3.3855 15.468C3.33548 15.4966 3.29357 15.5382 3.26455 15.5881C3.23545 15.6381 3.22059 15.6951 3.22056 15.753C3.22056 15.8111 3.2353 15.8686 3.26455 15.9188C3.27913 15.9438 3.29729 15.9664 3.31769 15.9866L3.38642 16.0388L3.38917 16.0398L11.365 20.6091L11.5153 20.6843C11.6684 20.7477 11.8332 20.7805 12 20.7805C12.1668 20.7805 12.3316 20.7476 12.4847 20.6843L12.635 20.6091L20.6108 16.0398L20.6136 16.0388C20.664 16.0103 20.7062 15.9689 20.7355 15.9188C20.7647 15.8686 20.7804 15.8111 20.7804 15.753C20.7803 15.695 20.7646 15.6381 20.7355 15.5881C20.7064 15.5382 20.6646 15.4966 20.6145 15.468L19.207 14.6755C18.9137 14.5101 18.8099 14.1378 18.9752 13.8444C19.1405 13.5511 19.5128 13.4473 19.8063 13.6126L21.2138 14.4052L21.2147 14.4061C21.4528 14.541 21.6514 14.7368 21.7892 14.9732C21.9271 15.2098 22 15.4792 22 15.753C22 16.0268 21.9271 16.2961 21.7892 16.5327C21.6517 16.7686 21.4538 16.9631 21.2165 17.098L21.2174 17.099L13.2426 21.6656L13.2435 21.6665C12.8655 21.8847 12.4365 22 12 22C11.5636 22 11.1345 21.8847 10.7565 21.6665V21.6656L2.78255 17.099V17.098C2.54558 16.9631 2.34809 16.7683 2.21076 16.5327C2.07287 16.2961 2 16.0268 2 15.753ZM20.7804 8.24702C20.7803 8.18907 20.7646 8.13219 20.7355 8.0821C20.7062 8.03191 20.6641 7.98979 20.6136 7.96115L20.6108 7.96023L12.635 3.39087L12.6332 3.38996C12.4407 3.27884 12.2223 3.22045 12 3.22045C11.7777 3.22047 11.5593 3.27881 11.3668 3.38996L11.365 3.39087L3.38917 7.96023L3.38642 7.96115C3.33591 7.98979 3.29378 8.03193 3.26455 8.0821C3.23545 8.13217 3.22059 8.18911 3.22056 8.24702C3.22056 8.30511 3.2353 8.36267 3.26455 8.41286C3.27913 8.43787 3.29729 8.46049 3.31769 8.48067L3.38642 8.53289L3.38917 8.53381L11.365 13.1032L11.5153 13.1783C11.6684 13.2417 11.8332 13.2745 12 13.2745C12.1668 13.2745 12.3316 13.2417 12.4847 13.1783L12.635 13.1032L20.6108 8.53381L20.6136 8.53289C20.664 8.5043 20.7062 8.46294 20.7355 8.41286C20.7647 8.36267 20.7804 8.30511 20.7804 8.24702ZM22 8.24702C22 8.52087 21.9271 8.79014 21.7892 9.02675C21.6517 9.26262 21.4538 9.45713 21.2165 9.59208L21.2174 9.593L13.2426 14.1596L13.2435 14.1605C12.8655 14.3787 12.4365 14.494 12 14.494C11.5636 14.494 11.1345 14.3787 10.7565 14.1605V14.1596L2.78255 9.593V9.59208C2.54558 9.45713 2.34809 9.26238 2.21076 9.02675C2.07287 8.79014 2 8.52087 2 8.24702C2.00002 7.97322 2.07289 7.70386 2.21076 7.46729C2.34864 7.2308 2.54712 7.0351 2.7853 6.90013L10.7584 2.3326C11.136 2.11497 11.5641 2.00002 12 2C12.4358 2 12.864 2.11501 13.2416 2.3326L21.2147 6.90013C21.4528 7.03508 21.6514 7.23084 21.7892 7.46729C21.9271 7.70386 22 7.97322 22 8.24702Z" fill="#C42539"/>
</svg>
