<svg width="24" height="24" viewBox="0 0 24 24" fill="none" xmlns="http://www.w3.org/2000/svg">
<path d="M8.21736 4.74641C8.21736 4.37539 8.07089 4.01908 7.80854 3.75673C7.5462 3.49438 7.18988 3.34791 6.81886 3.34791H4.74641C4.37539 3.34791 4.01908 3.49438 3.75673 3.75673C3.49438 4.01908 3.34791 4.37539 3.34791 4.74641V19.2536C3.34791 19.6246 3.49438 19.9809 3.75673 20.2433C4.01908 20.5056 4.37539 20.6521 4.74641 20.6521H19.2536C19.6246 20.6521 19.9809 20.5056 20.2433 20.2433C20.5056 19.9809 20.6521 19.6246 20.6521 19.2536V8.65554L16.2684 11.4505C16.0882 11.5655 15.8799 11.6296 15.6663 11.6367C15.4526 11.6438 15.2404 11.5938 15.053 11.491C14.8658 11.3882 14.7094 11.2367 14.6007 11.0528C14.4919 10.8688 14.4345 10.6584 14.4347 10.4446V8.65554L10.052 11.4485L10.053 11.4495C9.87288 11.5651 9.66483 11.6303 9.45092 11.6377C9.23691 11.6451 9.02446 11.5949 8.83667 11.492C8.64887 11.3891 8.49224 11.2372 8.38332 11.0528C8.27446 10.8685 8.21686 10.6577 8.21736 10.4436V4.74641ZM7.86521 15.471C8.2372 15.471 8.53916 15.7729 8.53916 16.1449C8.53916 16.5169 8.2372 16.8189 7.86521 16.8189H7.85509C7.4831 16.8189 7.18114 16.5169 7.18114 16.1449C7.18114 15.7729 7.4831 15.471 7.85509 15.471H7.86521ZM12.0101 15.471C12.3821 15.471 12.6841 15.7729 12.6841 16.1449C12.6841 16.5169 12.3821 16.8189 12.0101 16.8189H12C11.628 16.8189 11.326 16.5169 11.326 16.1449C11.326 15.7729 11.628 15.471 12 15.471H12.0101ZM16.155 15.471C16.527 15.471 16.829 15.7729 16.829 16.1449C16.829 16.5169 16.527 16.8189 16.155 16.8189H16.1449C15.7729 16.8189 15.471 16.5169 15.471 16.1449C15.471 15.7729 15.7729 15.471 16.1449 15.471H16.155ZM9.56527 10.1633L13.949 7.36835L14.0897 7.29144C14.2341 7.22453 14.3909 7.18746 14.5511 7.18215L14.711 7.18721C14.8164 7.19792 14.9197 7.22301 15.0186 7.26108L15.1643 7.32787L15.2979 7.41388C15.3835 7.47704 15.4607 7.55096 15.5266 7.63449L15.6167 7.76604L15.6885 7.90872C15.7504 8.05517 15.7827 8.21315 15.7826 8.3732V10.1623L20.1664 7.36835L20.307 7.29144C20.4514 7.22453 20.6083 7.18746 20.7685 7.18215L20.9284 7.18721C21.0338 7.19792 21.1371 7.22301 21.236 7.26108L21.3817 7.32787L21.5153 7.41388C21.6009 7.47704 21.6781 7.55096 21.744 7.63449L21.834 7.76604L21.9059 7.90872C21.9678 8.05517 22.0001 8.21315 22 8.3732V19.2536C22 19.9819 21.7105 20.6805 21.1955 21.1955C20.6805 21.7105 19.9819 22 19.2536 22H4.74641C4.01812 22 3.31947 21.7105 2.80449 21.1955C2.28952 20.6805 2 19.9819 2 19.2536V4.74641C2 4.01812 2.28952 3.31947 2.80449 2.80449C3.31947 2.28952 4.01812 2 4.74641 2H6.81886C7.54715 2 8.2458 2.28952 8.76078 2.80449C9.27575 3.31947 9.56527 4.01812 9.56527 4.74641V10.1633Z" fill="#C42539"/>
</svg>
