<svg width="64" height="64" viewBox="0 0 64 64" fill="none" xmlns="http://www.w3.org/2000/svg"><path d="M60.926 40.843H49.872V7.962c0-3.53-2.87-6.4-6.4-6.4H7.962c-3.53 0-6.4 2.87-6.4 6.4v36.48c0 3.53 2.87 6.4 6.4 6.4H39.03l-.02 8.213c0 .902.35 1.755.99 2.395.64.64 1.493 1 2.395 1h14.661a3.391 3.391 0 003.384-3.375l.04-12.78h.445c.834 0 1.513-.68 1.513-1.514v-2.414c0-.844-.679-1.523-1.513-1.523zM2.726 7.962a5.24 5.24 0 015.236-5.236h35.5a5.24 5.24 0 015.236 5.236v2.521H2.726V7.961zm5.236 41.707a5.24 5.24 0 01-5.237-5.237V11.656H48.7v29.197h-3.133V17.94a3.162 3.162 0 00-3.16-3.161H20.208a6.092 6.092 0 00-4.267-1.736 6.14 6.14 0 00-4.267 1.736H9.018a3.166 3.166 0 00-3.141 2.793.59.59 0 00.01.184.564.564 0 00-.03.184v25.445a3.162 3.162 0 003.161 3.161H39.04l-.01 3.132H7.963v-.01zm34.86-8.825L37.48 35.5a6.002 6.002 0 00-4.47-4.47l-.291-.29a1.534 1.534 0 01-.456-1.193c.03-.447.243-.864.592-1.135l11.549-9.125v21.556h-1.58zM9.494 45.373h-.476a2 2 0 01-1.997-1.998v-.048l8.688-6.866a2.744 2.744 0 001.038-1.988 2.73 2.73 0 00-.795-2.094L7.03 23.466v-4.431l4.014 4.014c1.63 2.977 4.325 5.683 4.49 5.848a.574.574 0 00.407.174c.146 0 .3-.058.407-.174.03-.03.117-.117.262-.272l2.27 2.27a2.725 2.725 0 003.626.213l19.19-15.157h.708c1.057 0 1.91.825 1.978 1.862L32.126 27.5a2.705 2.705 0 00-1.027 1.988c-.03.495.077.98.3 1.406a5.953 5.953 0 00-3.685 1.474 2.735 2.735 0 00-2.375.505L9.493 45.372zM20.897 19.17c0 2.928-3.704 7.127-4.955 8.475-1.26-1.338-4.955-5.537-4.955-8.475a4.958 4.958 0 014.955-4.955 4.958 4.958 0 014.955 4.955zm.243-3.22h18.676L21.78 30.196a1.572 1.572 0 01-2.085-.126l-2.298-2.298c1.658-1.862 4.664-5.644 4.664-8.601 0-1.183-.34-2.28-.921-3.22zM9.95 20.315l-2.861-2.86a1.994 1.994 0 011.93-1.504h1.716a6.085 6.085 0 00-.921 3.22c0 .368.048.746.135 1.144zm-2.92 4.8l8.107 8.107a1.565 1.565 0 01-.136 2.337l-7.97 6.293V25.115zm29.45 11.753c0 2.85-3.588 6.923-4.829 8.252-1.231-1.319-4.829-5.401-4.829-8.252a4.83 4.83 0 011.435-3.433l.01-.01a4.829 4.829 0 013.384-1.386 4.836 4.836 0 014.83 4.829zm-10.414-3.094a1.53 1.53 0 01.65-.3 5.941 5.941 0 00-1.058 3.394c0 2.948 3.055 6.73 4.645 8.504H11.375l14.69-11.598zm9.813 7.855l1.222 1.222v1.93c0 .213.048.416.126.6h-4.218c.776-.882 1.91-2.25 2.87-3.752zm1.503-.145l-.902-.902c.592-1.106 1.038-2.24 1.135-3.288l3.549 3.55h-2.56c-.504 0-.95.252-1.222.64zm21.896 17.58a2.216 2.216 0 01-2.211 2.211H42.395a2.216 2.216 0 01-2.22-2.22l.039-12.762h19.093l-.03 12.771zm1.998-14.293a.348.348 0 01-.35.349H38.614a.348.348 0 01-.35-.35v-2.414c0-.194.156-.349.35-.349h22.293c.194 0 .35.155.35.35v2.414h.019z" fill="#161A1F"/><path d="M8.563 4.45c-1.193 0-2.153.97-2.153 2.153a2.16 2.16 0 002.153 2.153 2.16 2.16 0 002.153-2.153c0-1.183-.96-2.152-2.153-2.152zm0 3.152a.993.993 0 01-.99-.989c0-.543.447-.989.99-.989.543 0 .989.446.989.99a.98.98 0 01-.99.988zm5.799-3.151c-1.193 0-2.153.97-2.153 2.152a2.16 2.16 0 002.153 2.153 2.16 2.16 0 002.152-2.153c0-1.183-.96-2.152-2.152-2.152zm0 3.151a.993.993 0 01-.99-.989c0-.543.447-.989.99-.989.543 0 .989.446.989.99a.98.98 0 01-.99.988zm5.798-3.151c-1.192 0-2.152.97-2.152 2.152a2.16 2.16 0 002.152 2.153 2.154 2.154 0 000-4.305zm0 3.151a.993.993 0 01-.989-.989c0-.543.446-.989.99-.989.542 0 .988.446.988.99a.986.986 0 01-.989.988zm22.701-3.151H30.76c-1.192 0-2.152.97-2.152 2.152a2.16 2.16 0 002.152 2.153h12.102a2.154 2.154 0 000-4.305zm0 3.151H30.76a.993.993 0 01-.989-.989c0-.543.446-.989.99-.989H42.86c.543 0 .99.446.99.99a.98.98 0 01-.99.988zm-11.21 25.94a3.331 3.331 0 00-3.326 3.326 3.331 3.331 0 003.326 3.326 3.331 3.331 0 003.326-3.326 3.331 3.331 0 00-3.326-3.326zm0 5.488a2.164 2.164 0 01-2.162-2.162c0-1.193.97-2.163 2.162-2.163 1.193 0 2.163.97 2.163 2.163 0 1.192-.97 2.162-2.163 2.162zM12.548 19.17a3.398 3.398 0 003.394 3.395 3.398 3.398 0 003.394-3.394 3.398 3.398 0 00-3.394-3.394 3.398 3.398 0 00-3.394 3.394zm5.615 0a2.23 2.23 0 11-4.46 0 2.23 2.23 0 014.46 0zm28.955 32.69h5.256a2.056 2.056 0 000-4.112h-5.256a2.056 2.056 0 000 4.111zm0-2.939h5.256c.485 0 .882.398.882.882a.886.886 0 01-.882.883h-5.256a.886.886 0 01-.882-.883c0-.484.397-.882.882-.882zm-4.14 8.155h4.887c.32 0 .581-.262.581-.582a.583.583 0 00-.581-.581h-4.888a.583.583 0 00-.581.581c0 .32.261.582.581.582zm0 2.298h2.89c.32 0 .58-.262.58-.582a.583.583 0 00-.58-.581h-2.89a.583.583 0 00-.582.581c0 .32.261.582.581.582z" fill="#C42539"/></svg>