<svg width="64" height="64" viewBox="0 0 64 64" fill="none" xmlns="http://www.w3.org/2000/svg"><path d="M10.578 29.175a.585.585 0 00-.475-.451.545.545 0 00-.225.012L5.397 29.9l-1.42-5.447 45.07-11.68.069.245 1.36 5.192-5.86 1.52a.604.604 0 00-.418.735c.077.326.388.52.7.438l5.89-1.53.291 1.102c.088.326.408.51.71.418a.601.601 0 00.398-.745l-2.158-8.272-.554-2.112c-.7-2.683-3.45-4.305-6.133-3.611L5.776 15.904a4.961 4.961 0 00-3.13 2.417 4.98 4.98 0 00-.602 1.821 5.051 5.051 0 00.126 1.923l2.274 8.722c.01.02.01.05.02.071l3.11 11.914a5.078 5.078 0 002.07 2.918.572.572 0 00.797-.184.617.617 0 00-.175-.836 3.838 3.838 0 01-1.574-2.214L5.708 31.062l4.452-1.153a.604.604 0 00.418-.734zm-6.95-10.242a3.826 3.826 0 012.42-1.856l37.547-9.742c2.08-.54 4.209.694 4.743 2.754l.399 1.51-45.06 11.69-.399-1.54a3.783 3.783 0 01.35-2.816z" fill="#161A1F"/><path d="M57.29 23.575H17.848c-2.605 0-4.714 2.224-4.714 4.947v24.522c0 2.734 2.119 4.948 4.714 4.948H57.29c2.605 0 4.714-2.224 4.714-4.948V28.532c0-2.733-2.119-4.957-4.714-4.957zm3.567 29.47c0 2.06-1.604 3.743-3.567 3.743H17.848c-1.964 0-3.567-1.683-3.567-3.744V28.532c0-2.06 1.603-3.743 3.567-3.743H57.29c1.963 0 3.567 1.683 3.567 3.743v24.512z" fill="#161A1F"/><path d="M18.977 37.332h4.939c1.09 0 1.973-.928 1.973-2.072v-5.186c0-1.144-.883-2.072-1.973-2.072h-4.939c-1.09 0-1.973.928-1.973 2.072v5.186c0 1.134.883 2.072 1.973 2.072zm-.815-2.083V33.27h2.7v2.835h-1.885c-.451 0-.815-.381-.815-.856zm5.754.856H22.03V33.27h2.7v1.98c0 .474-.373.855-.815.855zm.815-6.03v1.979h-2.7v-2.836h1.885c.442 0 .815.382.815.856zm-5.754-.857h1.885v2.836h-2.7v-1.98c0-.474.364-.856.815-.856zM17.583 41.61h17.653c.324 0 .58-.268.58-.608 0-.34-.256-.608-.58-.608H17.583a.569.569 0 00-.388.19.626.626 0 00-.158.418c0 .155.056.305.158.418a.57.57 0 00.388.19zm0 4.279h13.284c.324 0 .58-.268.58-.609 0-.34-.256-.608-.58-.608H17.583c-.324 0-.58.268-.58.608 0 .34.256.609.58.609zm38.438-17.897H35.442c-1.09 0-1.973.927-1.973 2.072v3.557c0 1.144.883 2.072 1.973 2.072h20.579c1.09 0 1.973-.928 1.973-2.072v-3.557c.01-1.134-.883-2.072-1.973-2.072zm.815 5.629c0 .474-.364.855-.815.855H35.442c-.452 0-.815-.381-.815-.855v-3.557c0-.474.363-.856.815-.856h20.579c.451 0 .815.382.815.856v3.557zm-1.041 15.731h-2.248c-1.218 0-2.21 1.042-2.21 2.32 0 1.279.992 2.32 2.21 2.32h2.248c1.217 0 2.209-1.041 2.209-2.32 0-1.278-.992-2.32-2.21-2.32zm0 3.423h-2.248a1.03 1.03 0 01-.714-.34 1.134 1.134 0 01-.292-.763c0-.284.104-.558.292-.764a1.03 1.03 0 01.714-.339h2.248c.58 0 1.05.495 1.05 1.103s-.48 1.103-1.05 1.103zm-8.59-3.422h-2.25c-1.217 0-2.208 1.04-2.208 2.32 0 1.277.991 2.319 2.209 2.319h2.248c1.218 0 2.21-1.041 2.21-2.32 0-1.278-.992-2.32-2.21-2.32zm0 3.422h-2.25a1.03 1.03 0 01-.713-.34 1.134 1.134 0 01-.292-.763c0-.284.104-.558.292-.764a1.03 1.03 0 01.714-.339h2.248c.27.012.527.134.714.34.188.205.292.479.292.763 0 .285-.105.558-.292.764a1.03 1.03 0 01-.714.34zm-8.582-3.422h-2.248c-1.218 0-2.21 1.04-2.21 2.32 0 1.277.992 2.319 2.21 2.319h2.248c1.218 0 2.21-1.041 2.21-2.32 0-1.278-.992-2.32-2.21-2.32zm0 3.422h-2.248a1.03 1.03 0 01-.714-.34 1.134 1.134 0 01-.292-.763c0-.284.104-.558.292-.764a1.03 1.03 0 01.714-.339h2.248c.27.012.527.134.714.34.188.205.292.479.292.763 0 .285-.104.558-.292.764a1.03 1.03 0 01-.714.34zm-8.58-3.422h-2.25c-1.216 0-2.208 1.04-2.208 2.32 0 1.277.991 2.319 2.209 2.319h2.248c1.218 0 2.21-1.041 2.21-2.32 0-1.278-.992-2.32-2.21-2.32zm0 3.422h-2.25a1.03 1.03 0 01-.713-.34 1.134 1.134 0 01-.292-.763c0-.284.104-.558.292-.764a1.03 1.03 0 01.714-.339h2.248c.271.012.527.134.714.34.188.205.292.479.292.763 0 .285-.104.558-.292.764a1.03 1.03 0 01-.714.34zm-8.591-3.422h-2.239c-1.218 0-2.21 1.04-2.21 2.32 0 1.277.992 2.319 2.21 2.319h2.248c1.218 0 2.21-1.041 2.21-2.32a2.397 2.397 0 00-.656-1.638 2.174 2.174 0 00-1.564-.681zm0 3.422h-2.239a1.03 1.03 0 01-.714-.34 1.134 1.134 0 01-.292-.763c0-.284.104-.558.292-.764a1.03 1.03 0 01.714-.339h2.248c.58 0 1.05.495 1.05 1.103s-.48 1.103-1.06 1.103z" fill="#C42539"/></svg>