<svg width="64" height="64" viewBox="0 0 64 64" fill="none" xmlns="http://www.w3.org/2000/svg"><path d="M1.475 10.444l1.299 8.872c.049.36.242.67.533.893.291.213.64.31 1 .252l6.176-.902c.039 0 .078 0 .107.02l2.763 1.473c.194.107.417.155.64.155a1.334 1.334 0 001.339-1.173l.145-1.076a.175.175 0 01.155-.156l1.406-.203a1.355 1.355 0 001.145-1.532l-1.3-8.873a1.307 1.307 0 00-.533-.883 1.33 1.33 0 00-.999-.252L2.609 8.911a1.368 1.368 0 00-.882.534c-.214.29-.31.65-.252.999zm1.192-.301a.22.22 0 01.117-.068l12.722-1.862c.097-.01.194.058.204.155l1.3 8.873c.009.097-.059.194-.156.204l-1.406.203a1.357 1.357 0 00-1.144 1.164l-.146 1.076c-.01.078-.068.117-.097.136a.162.162 0 01-.165 0l-2.763-1.474a1.318 1.318 0 00-.63-.155c-.068 0-.136 0-.194.01l-6.177.902a.19.19 0 01-.136-.03.17.17 0 01-.068-.116l-1.3-8.882c-.01-.058.02-.107.04-.136z" fill="#161A1F"/><path d="M14.362 14.012L5.228 15.35a.586.586 0 00.087 1.164c.03 0 .058 0 .087-.01l9.135-1.338a.58.58 0 00.494-.66.59.59 0 00-.669-.494zM5.19 13.43c.03 0 .058 0 .087-.01l9.135-1.338a.58.58 0 00.494-.659.586.586 0 00-.659-.495l-9.135 1.339a.588.588 0 00-.504.659.6.6 0 00.582.504zm41.784 3.355l1.406.204c.078.01.146.078.156.155l.145 1.077c.058.436.33.824.718 1.027a1.39 1.39 0 001.26-.01l2.764-1.473a.167.167 0 01.116-.02l6.177.902a1.354 1.354 0 001.532-1.144l1.3-8.873a1.359 1.359 0 00-.252-.999 1.364 1.364 0 00-.893-.533L48.67 5.236a1.355 1.355 0 00-1.532 1.145l-1.3 8.872a1.358 1.358 0 001.135 1.532zm1.319-10.24c.01-.067.048-.097.068-.116a.155.155 0 01.107-.039h.029l12.722 1.862a.17.17 0 01.116.068c.02.03.04.068.03.136l-1.3 8.872a.184.184 0 01-.203.156l-6.177-.902a1.316 1.316 0 00-.834.145l-2.764 1.474a.162.162 0 01-.165 0c-.029-.02-.087-.058-.097-.136l-.145-1.076a1.367 1.367 0 00-1.145-1.164l-1.406-.203c-.068-.01-.097-.049-.116-.068a.176.176 0 01-.029-.136l1.309-8.873z" fill="#161A1F"/><path d="M10.61 49.57a2.056 2.056 0 00-3.023.506 2.046 2.046 0 00-.313 1.095v5.265c0 .795.446 1.503 1.163 1.852a2.1 2.1 0 00.893.204c.455 0 .901-.155 1.28-.456l3.287-2.628a2.052 2.052 0 000-3.2l-3.287-2.637zm2.56 4.927l-3.288 2.628a.86.86 0 01-.93.106.876.876 0 01-.505-.795v-5.265c0-.35.184-.65.504-.795a.907.907 0 01.388-.087c.194 0 .388.067.543.193l3.288 2.628c.213.165.33.417.33.689a.892.892 0 01-.33.698zm47.146-17.008h-9.173a3.19 3.19 0 00-.776-2.23 3.214 3.214 0 00-2.25-1.116v-.718c0-3.675-2.996-6.671-6.671-6.671h-5.042v-1.668c1.706-1.513 2.996-3.753 3.587-5.925.776-1.658 3.695-8.475.98-10.957-.369-.34-.66-.67-.873-1.019-.873-1.377-3.656-4.567-10.764-4.567h-.184a4.894 4.894 0 00-3.51 1.542 4.743 4.743 0 00-1.3 3.18 4.088 4.088 0 00-2.25 2.105c-1.085 2.317-.348 5.799 2.183 10.346.63 1.92 1.813 3.908 3.384 5.295v1.639h-5.033c-3.675 0-6.671 2.996-6.671 6.671v.708h-.146c-.94 0-1.832.407-2.453 1.125a3.274 3.274 0 00-.747 2.599l.815 5.314c.048.29.29.494.582.494.029 0 .058 0 .087-.01a.576.576 0 00.485-.668l-.815-5.314a2.055 2.055 0 01.475-1.659 2.05 2.05 0 011.561-.717h32.127a2.05 2.05 0 011.56.717c.35.408.515.941.476 1.474h-3.937a2.23 2.23 0 00-2.23 2.23v10.493a2.2 2.2 0 00.882 1.774c.01.01.02.01.02.02l.01.01h.009c.378.28.824.426 1.3.426h1.667l-.61 3.956H22.74a.583.583 0 00-.582.582c0 .32.262.582.582.582h24.678a1.32 1.32 0 011.32 1.319c0 .349-.137.688-.389.93a1.306 1.306 0 01-.93.389H22.11a.583.583 0 00-.582.581c0 .32.262.582.582.582h25.31a2.5 2.5 0 001.764-.727 2.446 2.446 0 00.727-1.765c0-1.076-.698-1.988-1.658-2.337l.63-4.111h11.443c.61 0 1.202-.252 1.62-.699.387-.416.61-.96.61-1.532V39.72a2.245 2.245 0 00-2.24-2.23zM23.138 9.979c.62-1.358 1.852-1.61 1.9-1.62a.582.582 0 00.476-.62l-.01-.088c-.058-.99.291-1.95.98-2.686a3.71 3.71 0 012.666-1.173h.184c6.527 0 9.009 2.802 9.775 4.024.281.436.63.853 1.076 1.26 1.542 1.406.427 5.44-.62 8.126l-.844-4.635a1.595 1.595 0 00-.921-1.154 1.607 1.607 0 00-1.484.088c-3.258 1.939-7.06.727-9.037-.175a1.796 1.796 0 00-1.688.097 1.8 1.8 0 00-.872 1.455l-.252 4.78c-2.037-4.189-1.882-6.468-1.329-7.68zm2.376 9.861l.368-6.895a.625.625 0 01.31-.514.64.64 0 01.592-.038c2.182.998 6.4 2.337 10.124.116a.435.435 0 01.407-.029.4.4 0 01.242.3l1.183 6.478c-.6 1.94-1.784 3.889-3.296 5.14-.02.01-.03.029-.049.038-.999.815-2.153 1.32-3.375 1.32-2.87.009-5.391-2.91-6.506-5.916zm6.516 7.098c1.145 0 2.23-.368 3.21-.97v1.145l-3.21 3.423-3.21-3.423v-1.125c.97.591 2.056.95 3.21.95zm-14.914 6.487a5.5 5.5 0 015.498-5.498h5.373l3.626 3.86a.578.578 0 00.427.184.58.58 0 00.427-.184l3.626-3.86h5.372a5.5 5.5 0 015.499 5.498v.708H17.116v-.708zm27.86 6.294a1.06 1.06 0 011.057-1.057h14.283a1.06 1.06 0 011.057 1.057v10.356l-2.463-3.714a1.813 1.813 0 00-3.025 0l-1.726 2.599-2.54-3.84a1.825 1.825 0 00-1.514-.815c-.61 0-1.173.301-1.512.815l-3.569 5.382a.896.896 0 01-.039-.281V39.719h-.01zm.94 11.54l3.646-5.499a.642.642 0 01.534-.29c.223 0 .417.106.533.29l3.026 4.558c.01.01.01.019.019.029l.61.92h-8.261c-.03 0-.068-.009-.107-.009zm9.775.009l-.834-1.26 1.998-3.017a.647.647 0 01.543-.29.62.62 0 01.533.29l2.783 4.19a1.064 1.064 0 01-.388.077h-4.635v.01z" fill="#161A1F"/><path d="M52.384 15.544a.571.571 0 00.407.165c.039 0 .077 0 .116-.01.824-.174 4.965-1.134 5.557-3.16a2.951 2.951 0 00-2.017-3.647 2.91 2.91 0 00-1.882.087 2.944 2.944 0 00-5.197.94c-.582 2.027 2.414 5.043 3.016 5.625zm-1.891-5.304a1.77 1.77 0 011.706-1.28 1.759 1.759 0 011.61 1.028.578.578 0 00.369.32c.164.048.339.02.484-.068.437-.281.97-.359 1.465-.223a1.78 1.78 0 011.212 2.201c-.272.95-2.618 1.862-4.364 2.279-1.26-1.29-2.754-3.316-2.482-4.257zM37.247 45.847a5.399 5.399 0 00-5.392-5.391 5.392 5.392 0 00-5.391 5.391 5.399 5.399 0 005.391 5.392 5.399 5.399 0 005.392-5.392zm-9.61 0a4.221 4.221 0 014.218-4.218 4.221 4.221 0 014.218 4.218 4.221 4.221 0 01-4.218 4.218 4.221 4.221 0 01-4.218-4.218zm1.842-28.412c.32 0 .582-.262.582-.582a.583.583 0 00-.582-.582h-1.086a.584.584 0 00-.582.582c0 .32.262.582.582.582h1.086zm5.11 0h1.087c.32 0 .581-.262.581-.582a.583.583 0 00-.581-.582H34.59a.583.583 0 00-.582.582c0 .32.252.582.582.582zm-5.633 2.88c-.146.29-.03.64.252.785.94.476 1.881.718 2.822.718.94 0 1.88-.242 2.821-.718a.583.583 0 10-.533-1.037c-1.542.785-3.035.785-4.577 0a.587.587 0 00-.785.252zm-12.771 25.92H4.849a3.398 3.398 0 00-3.394 3.394v8.35a3.398 3.398 0 003.394 3.393h11.336a3.398 3.398 0 003.394-3.394V49.63a3.398 3.398 0 00-3.394-3.394zm2.23 11.743c0 1.222-.999 2.22-2.22 2.22H4.849a2.227 2.227 0 01-2.22-2.22V49.63c0-1.222.998-2.22 2.22-2.22h11.336c1.222 0 2.22.998 2.22 2.22v8.35h.01zm35.636-12.79a2.599 2.599 0 100-5.198 2.599 2.599 0 000 5.198zm0-4.034c.786 0 1.436.64 1.436 1.435 0 .785-.64 1.435-1.436 1.435-.785 0-1.435-.64-1.435-1.435s.65-1.435 1.435-1.435z" fill="#C42539"/></svg>