<svg width="44" height="44" viewBox="0 0 44 44" fill="none" xmlns="http://www.w3.org/2000/svg">
<path d="M22 2C10.9547 2 2 10.9547 2 22C2 33.0453 10.9547 42 22 42C33.0453 42 42 33.0453 42 22C42 10.9547 33.0453 2 22 2ZM23.5953 31.7484C23.4097 31.9963 23.1689 32.1975 22.892 32.3361C22.6151 32.4747 22.3097 32.5469 22 32.5469C21.6903 32.5469 21.3849 32.4747 21.108 32.3361C20.8311 32.1975 20.5903 31.9963 20.4047 31.7484C18.0586 28.6141 13.9531 22.675 13.9531 19.5C13.9531 17.3658 14.8009 15.3191 16.31 13.81C17.8191 12.3009 19.8658 11.4531 22 11.4531C24.1342 11.4531 26.1809 12.3009 27.69 13.81C29.1991 15.3191 30.0469 17.3658 30.0469 19.5C30.0469 22.675 25.9414 28.6141 23.5953 31.7484Z" fill="#C42539"/>
<path d="M22 21.2922C23.5127 21.2922 24.7391 20.0659 24.7391 18.5531C24.7391 17.0404 23.5127 15.8141 22 15.8141C20.4873 15.8141 19.2609 17.0404 19.2609 18.5531C19.2609 20.0659 20.4873 21.2922 22 21.2922Z" fill="#C42539"/>
<path fill-rule="evenodd" clip-rule="evenodd" d="M23.5953 31.7484C23.4097 31.9963 23.1689 32.1975 22.892 32.3361C22.6151 32.4747 22.3097 32.5469 22 32.5469C21.6903 32.5469 21.3849 32.4747 21.108 32.3361C20.8311 32.1975 20.5903 31.9963 20.4047 31.7484C18.0586 28.6141 13.9531 22.675 13.9531 19.5C13.9531 17.3658 14.8009 15.3191 16.31 13.81C17.8191 12.3009 19.8658 11.4531 22 11.4531C24.1342 11.4531 26.1809 12.3009 27.69 13.81C29.1991 15.3191 30.0469 17.3658 30.0469 19.5C30.0469 22.675 25.9414 28.6141 23.5953 31.7484ZM22 21.2922C23.5127 21.2922 24.7391 20.0659 24.7391 18.5531C24.7391 17.0404 23.5127 15.8141 22 15.8141C20.4873 15.8141 19.2609 17.0404 19.2609 18.5531C19.2609 20.0659 20.4873 21.2922 22 21.2922Z" fill="white"/>
<path d="M22 1C33.5976 1 43 10.4024 43 22C43 33.5976 33.5976 43 22 43C10.4024 43 1 33.5976 1 22C1 10.4024 10.4024 1 22 1Z" stroke="white" stroke-width="2"/>
</svg>
