<svg width="80" height="80" viewBox="0 0 80 80" fill="none" xmlns="http://www.w3.org/2000/svg"><path d="M73.128 2.424H33.225A2.431 2.431 0 0030.8 4.85v1.709a2.431 2.431 0 002.424 2.424 2.41 2.41 0 012.412 2.412v.921a4.66 4.66 0 00-1.612 3.515c0 .34.048.68.121 1.006a3.07 3.07 0 00-1.855 1.443l-3.2 5.564a3.087 3.087 0 000 3.102l2.085 3.6a.893.893 0 101.552-.884l-2.085-3.6a1.313 1.313 0 010-1.334l3.212-5.563c.23-.412.679-.667 1.152-.667h7.515c.473 0 .921.255 1.151.667l3.212 5.563c.243.4.23.91 0 1.322l-2.072 3.6a.89.89 0 00.327 1.212.89.89 0 001.212-.328l2.073-3.6a3.087 3.087 0 000-3.103l-3.2-5.563a3.14 3.14 0 00-1.855-1.443c.073-.327.122-.666.122-1.006a4.66 4.66 0 00-1.613-3.515v-.909a2.41 2.41 0 012.413-2.412h14.957c.788 0 1.503.364 1.964 1.006.46.642.57 1.442.315 2.182l-1.54 4.485a.923.923 0 00-.096.194l-1.625 4.848-2.824 8.218-.46 1.334-.752 2.181a.89.89 0 00.545 1.128.889.889 0 001.128-.546l.545-1.588h10.23a2.08 2.08 0 002.073-2.072V27.88a2.08 2.08 0 00-2.073-2.073h-7.951l1.006-2.933h6.945a2.08 2.08 0 002.073-2.073v-2.485a2.08 2.08 0 00-2.073-2.073H62l1.2-3.503a4.122 4.122 0 00-.558-3.793 4.145 4.145 0 00-3.406-1.758H44.243a4.191 4.191 0 00-4.182 4.109 1.886 1.886 0 00-.254-.048c-.073-.013-.158-.037-.23-.049a5.79 5.79 0 00-.789-.085h-.048c-.036 0-.073.012-.11.012-.242 0-.472.037-.702.073a1.877 1.877 0 00-.279.06c-.073.013-.145.025-.218.05a4.186 4.186 0 00-4.194-4.11.652.652 0 01-.655-.654V4.849c0-.364.291-.655.655-.655H73.14c1.467 0 2.667 1.2 2.667 2.667v36.557h-7.83a.89.89 0 00-.886.885c0 .485.4.885.885.885h7.83v3.054h-7.83a.89.89 0 00-.885.885c0 .485.4.885.885.885h7.83v8.182a9.004 9.004 0 00-.727-.921l-.024-.024a8.552 8.552 0 00-.812-.813l-.024-.024a10.13 10.13 0 00-2.97-1.83.682.682 0 00-.145-.049c-.39-.14-.787-.26-1.188-.363a6.724 6.724 0 00-.86-.158c-.098-.012-.195-.036-.304-.048a9.036 9.036 0 00-1.151-.073H53.043c.279-.497.46-1.067.46-1.685v-13.09a3.46 3.46 0 00-3.454-3.455H36.946a3.46 3.46 0 00-3.454 3.454v13.103c0 .618.17 1.188.46 1.685h-4.279c.28-.497.46-1.067.46-1.685V39.115a3.46 3.46 0 00-3.454-3.454H13.576a3.46 3.46 0 00-3.454 3.454v13.103a3.5 3.5 0 00.545 1.855c-4.69.836-8.242 4.909-8.242 9.794 0 5.127 3.89 9.345 8.86 9.903v2.921c0 .485.4.885.885.885a.89.89 0 00.885-.885v-2.849H66.91v2.849c0 .485.4.885.885.885a.89.89 0 00.884-.885V73.77a9.966 9.966 0 008.861-9.903c0-.194-.012-.376-.024-.57a.61.61 0 00.024-.145V6.86c.036-2.449-1.964-4.437-4.412-4.437zM66.934 27.88v2.485c0 .157-.133.29-.291.29h-9.612l1.054-3.078h8.57a.314.314 0 01.279.303zm-.303-9.843c.157 0 .29.134.29.291v2.485a.294.294 0 01-.29.291h-6.34l1.055-3.079h5.285v.012zm-28.837-4.97c.037-.011.061-.024.098-.024a2.995 2.995 0 011.696.013c.025.012.037.012.061.024.279.085.533.206.764.376a2.934 2.934 0 011.248 2.387c0 .303-.048.607-.145.897h-1.903v-1.175a.89.89 0 00-.885-.885.89.89 0 00-.885.885v1.175H35.94a2.826 2.826 0 01-.133-.897c0-.993.497-1.878 1.26-2.4.218-.17.473-.29.727-.375zm7.782 24.364v4.643l-1.127-1.224a1.31 1.31 0 00-.97-.425 1.35 1.35 0 00-.97.425l-1.127 1.224V37.43h4.194zM35.25 52.218V39.115c0-.933.752-1.685 1.685-1.685h2.679v5.819a1.3 1.3 0 00.836 1.224c.51.194 1.079.072 1.443-.34l1.587-1.72 1.588 1.72a1.304 1.304 0 001.455.328 1.3 1.3 0 00.836-1.225v-5.818h2.679c.933 0 1.685.752 1.685 1.685v13.103c0 .933-.752 1.685-1.685 1.685H36.922a1.661 1.661 0 01-1.673-1.673zM22.182 37.43v4.643l-1.127-1.224c-.497-.546-1.43-.534-1.94 0l-1.127 1.224V37.43h4.194zm-10.339 1.685c0-.933.752-1.685 1.685-1.685h2.679v5.819a1.3 1.3 0 00.836 1.224 1.29 1.29 0 001.442-.34l1.588-1.72 1.588 1.72a1.304 1.304 0 001.455.328 1.3 1.3 0 00.836-1.225v-5.818h2.679c.933 0 1.685.752 1.685 1.685v13.103c0 .933-.752 1.685-1.685 1.685H13.528a1.681 1.681 0 01-1.685-1.685v-13.09zm55.758 32.946H12.4c-4.522 0-8.194-3.673-8.194-8.194 0-4.521 3.672-8.194 8.194-8.194h55.224c.266 0 .545.012.812.036.145.012.29.036.436.06.121.013.23.037.352.05.182.036.376.084.557.133.061.012.134.036.194.048.206.06.412.133.606.218l.11.037c.218.084.424.181.63.29.012.013.036.013.048.025.206.109.424.23.618.351.013.012.025.012.025.025.206.133.4.266.594.412l.024.024c.182.145.364.303.545.46l.037.037c.17.157.327.315.485.485.012.024.036.036.048.06.145.17.29.34.424.51.025.024.049.06.06.084.122.17.243.34.352.521.025.037.049.085.073.122.11.17.206.351.291.533.024.048.049.097.073.158.085.181.17.363.242.545.024.06.037.11.06.17.073.182.134.376.183.57l.036.157c.048.206.097.4.133.618a.336.336 0 01.012.11c.037.23.073.46.085.702.012.219.037.425.037.643-.013 4.521-3.685 8.194-8.206 8.194z" fill="#161A1F"/><path d="M12.933 59.503a4.369 4.369 0 00-4.364 4.364 4.369 4.369 0 004.364 4.364 4.369 4.369 0 004.364-4.364c0-2.4-1.964-4.364-4.364-4.364zm0 6.958a2.597 2.597 0 01-2.594-2.594 2.597 2.597 0 012.594-2.594 2.597 2.597 0 012.594 2.594c-.012 1.43-1.176 2.594-2.594 2.594zm13.527-6.958a4.369 4.369 0 00-4.363 4.364 4.369 4.369 0 004.363 4.364 4.369 4.369 0 004.364-4.364c.012-2.4-1.952-4.364-4.364-4.364zm0 6.958a2.597 2.597 0 01-2.594-2.594 2.597 2.597 0 012.594-2.594 2.597 2.597 0 012.594 2.594 2.597 2.597 0 01-2.594 2.594zM40 59.503a4.369 4.369 0 00-4.364 4.364A4.369 4.369 0 0040 68.23a4.369 4.369 0 004.363-4.364c0-2.4-1.951-4.364-4.363-4.364zm0 6.958a2.597 2.597 0 01-2.594-2.594A2.597 2.597 0 0140 61.273a2.597 2.597 0 012.594 2.594A2.597 2.597 0 0140 66.46zm13.539-6.958a4.369 4.369 0 00-4.364 4.364 4.369 4.369 0 004.364 4.364 4.369 4.369 0 004.364-4.364c0-2.4-1.964-4.364-4.364-4.364zm0 6.958a2.597 2.597 0 01-2.594-2.594 2.597 2.597 0 012.594-2.594 2.597 2.597 0 012.594 2.594 2.597 2.597 0 01-2.594 2.594zm13.527-6.958a4.369 4.369 0 00-4.363 4.364 4.369 4.369 0 004.363 4.364 4.369 4.369 0 004.364-4.364c.012-2.4-1.952-4.364-4.364-4.364zm0 6.958a2.597 2.597 0 01-2.594-2.594 2.597 2.597 0 012.594-2.594 2.597 2.597 0 012.594 2.594 2.597 2.597 0 01-2.594 2.594zM42.46 50.024h-4.218a.89.89 0 00-.885.885c0 .485.4.885.885.885h4.218a.89.89 0 00.885-.885.89.89 0 00-.885-.885zm-27.612 1.77h4.218a.89.89 0 00.885-.885.89.89 0 00-.885-.885h-4.218a.89.89 0 00-.885.885c0 .485.4.885.885.885z" fill="#C42539"/></svg>