<svg width="80" height="80" viewBox="0 0 80 80" fill="none" xmlns="http://www.w3.org/2000/svg"><path d="M64.57 41.83h-9.467c-.57 0-1.078.34-1.309.849a1.411 1.411 0 00.243 1.54c.776.86 1.6 1.502 2.46 1.89a6.113 6.113 0 012.473 2.097v6.618a5.988 5.988 0 01-2.46 2.097c-1.758.812-3.407 2.679-4.522 5.115a1.93 1.93 0 00.146 1.88c.376.581.994.92 1.672.92h12.11a1.96 1.96 0 001.672-.92c.364-.57.412-1.273.146-1.88-1.115-2.436-2.764-4.303-4.521-5.115a5.988 5.988 0 01-2.461-2.097v-6.618a5.988 5.988 0 012.46-2.097c.861-.4 1.685-1.042 2.449-1.89a1.411 1.411 0 00.242-1.54 1.481 1.481 0 00-1.333-.849zm-2.12 16.715c1.382.643 2.715 2.194 3.648 4.243a.185.185 0 01-.012.182c-.024.036-.085.109-.182.109h-12.11a.188.188 0 01-.181-.11c-.025-.048-.049-.108-.013-.181.934-2.06 2.267-3.6 3.661-4.242a7.68 7.68 0 002.606-1.952 7.587 7.587 0 002.582 1.951zm0-14.036a7.881 7.881 0 00-2.594 1.94 7.885 7.885 0 00-2.618-1.952 5.671 5.671 0 01-1.334-.91h7.867a5.133 5.133 0 01-1.321.922zM15.043 27.624a2.654 2.654 0 00-2.655-2.654H9.055A2.654 2.654 0 006.4 27.624v3.334a2.654 2.654 0 002.655 2.654h3.333a2.654 2.654 0 002.655-2.654v-3.334zm-1.77 3.334a.89.89 0 01-.885.885H9.055a.89.89 0 01-.885-.885v-3.334c0-.485.4-.885.885-.885h3.333c.485 0 .885.4.885.885v3.334zm1.77 8.775a2.654 2.654 0 00-2.655-2.654H9.055A2.654 2.654 0 006.4 39.733v3.334a2.654 2.654 0 002.655 2.654h3.333a2.654 2.654 0 002.655-2.654v-3.334zm-1.77 3.334a.89.89 0 01-.885.885H9.055a.89.89 0 01-.885-.885v-3.334c0-.484.4-.884.885-.884h3.333c.485 0 .885.4.885.884v3.334zm-.885 6.12H9.055A2.654 2.654 0 006.4 51.844v3.333a2.654 2.654 0 002.655 2.654h3.333a2.654 2.654 0 002.655-2.654v-3.334c0-1.466-1.2-2.654-2.655-2.654zm.885 5.989a.89.89 0 01-.885.885H9.055a.89.89 0 01-.885-.885v-3.334c0-.484.4-.884.885-.884h3.333c.485 0 .885.4.885.885v3.333zm14.921-27.552a2.654 2.654 0 00-2.654-2.654h-3.334a2.654 2.654 0 00-2.654 2.654v3.334a2.654 2.654 0 002.654 2.654h3.334a2.654 2.654 0 002.654-2.654v-3.334zm-1.77 3.334a.89.89 0 01-.884.885h-3.334a.89.89 0 01-.884-.885v-3.334c0-.485.4-.885.884-.885h3.334c.485 0 .885.4.885.885v3.334zm1.77 8.775a2.654 2.654 0 00-2.654-2.654h-3.334a2.654 2.654 0 00-2.654 2.654v3.334a2.654 2.654 0 002.654 2.654h3.334a2.654 2.654 0 002.654-2.654v-3.334zm-1.77 3.334a.89.89 0 01-.884.885h-3.334a.89.89 0 01-.884-.885v-3.334c0-.484.4-.884.884-.884h3.334c.485 0 .885.4.885.884v3.334zm-.884 6.12h-3.334a2.654 2.654 0 00-2.654 2.656v3.333a2.654 2.654 0 002.654 2.654h3.334a2.654 2.654 0 002.654-2.654v-3.334c0-1.466-1.2-2.654-2.654-2.654zm.885 5.989a.89.89 0 01-.885.885h-3.334a.89.89 0 01-.884-.885v-3.334c0-.484.4-.884.884-.884h3.334c.485 0 .885.4.885.885v3.333zm14.92-27.552a2.654 2.654 0 00-2.654-2.654h-3.333a2.654 2.654 0 00-2.655 2.654v3.334a2.654 2.654 0 002.655 2.654h3.333a2.654 2.654 0 002.655-2.654v-3.334zm-1.769 3.334a.89.89 0 01-.885.885h-3.333a.89.89 0 01-.885-.885v-3.334c0-.485.4-.885.885-.885h3.333c.485 0 .885.4.885.885v3.334zm1.77 8.775a2.654 2.654 0 00-2.655-2.654h-3.333a2.654 2.654 0 00-2.655 2.654v3.334a2.654 2.654 0 002.655 2.654h3.333a2.654 2.654 0 002.655-2.654v-3.334zm-1.77 3.334a.89.89 0 01-.885.885h-3.333a.89.89 0 01-.885-.885v-3.334c0-.484.4-.884.885-.884h3.333c.485 0 .885.4.885.884v3.334zm-.885 6.12h-3.333a2.654 2.654 0 00-2.655 2.656v3.333a2.654 2.654 0 002.655 2.654h3.333a2.654 2.654 0 002.655-2.654v-3.334c0-1.466-1.2-2.654-2.655-2.654zm.885 5.989a.89.89 0 01-.885.885h-3.333a.89.89 0 01-.885-.885v-3.334c0-.484.4-.884.885-.884h3.333c.485 0 .885.4.885.885v3.333zm7.152.485a.89.89 0 00.884-.885v-2.934c0-.448.316-.812.764-.872a.894.894 0 00.764-.994.883.883 0 00-.994-.752 2.662 2.662 0 00-2.291 2.63v2.934c-.012.473.388.873.873.873z" fill="#C42539"/><path d="M65.042 50.11c4.957-2.304 8.34-8.546 8.582-15.698a2.532 2.532 0 001.89-2.436v-1.952a2.54 2.54 0 00-2.533-2.533H46.715a2.54 2.54 0 00-2.534 2.533v1.952c0 1.176.8 2.145 1.88 2.436.23 7.152 3.623 13.406 8.581 15.697.594.279.957.812.957 1.418 0 .606-.363 1.14-.957 1.419-4.97 2.303-8.352 8.545-8.594 15.697a2.534 2.534 0 00-1.879 2.436v1.951a2.54 2.54 0 002.534 2.534h26.266a2.54 2.54 0 002.534-2.534v-1.939a2.524 2.524 0 00-1.891-2.436c-.23-7.152-3.612-13.406-8.582-15.697-.594-.28-.958-.813-.958-1.43.012-.607.376-1.152.97-1.419zM46.909 32.74h-.206a.76.76 0 01-.764-.764v-1.952a.76.76 0 01.764-.763h26.266a.76.76 0 01.764.763v1.952a.76.76 0 01-.764.764H46.91c.012 0 .012-.013 0 0zm26.836 38.35v1.952a.76.76 0 01-.764.763H46.715a.76.76 0 01-.764-.763V71.09a.76.76 0 01.764-.764H72.98a.76.76 0 01.764.764zm-11.43-19.564c0 1.297.763 2.461 1.988 3.03 4.327 2.013 7.309 7.564 7.551 14H47.83c.254-6.424 3.224-11.987 7.564-14 1.224-.569 1.987-1.733 1.987-3.03 0-1.297-.763-2.46-1.987-3.03-4.34-2-7.31-7.564-7.564-13.988h24.036c-.254 6.424-3.224 11.976-7.563 13.988-1.237.57-1.988 1.733-1.988 3.03z" fill="#161A1F"/><path d="M43.006 61.976H5.345a3.083 3.083 0 01-3.079-3.079v-38.06h59.782v2.812c0 .484.4.884.885.884a.89.89 0 00.885-.884V11.212a4.868 4.868 0 00-4.86-4.86h-1.552c-.34-3.334-2.473-5.928-5.067-5.928-1.758 0-3.321 1.188-4.242 2.994-.922-1.806-2.473-2.994-4.219-2.994-2.606 0-4.751 2.594-5.078 5.94H25.503c-.34-3.346-2.473-5.94-5.067-5.94-1.758 0-3.321 1.188-4.242 2.994-.923-1.806-2.474-2.994-4.22-2.994-2.606 0-4.751 2.594-5.09 5.94h-1.54a4.868 4.868 0 00-4.86 4.86v47.673a4.868 4.868 0 004.86 4.86h37.673a.89.89 0 00.885-.884c0-.485-.4-.897-.897-.897zm9.333-59.782c1.612 0 2.982 1.83 3.273 4.17h-6.57c.29-2.34 1.685-4.17 3.297-4.17zm-8.46 0c1.611 0 2.981 1.83 3.272 4.17h-6.57c.291-2.34 1.673-4.17 3.297-4.17zm-23.443 0c1.612 0 2.982 1.83 3.273 4.17h-6.57c.29-2.34 1.685-4.17 3.297-4.17zm-8.46 0c1.611 0 2.981 1.83 3.272 4.17h-6.57c.291-2.34 1.673-4.17 3.297-4.17zm-9.722 9.03a3.083 3.083 0 013.079-3.078h1.54c.169 1.77.848 3.333 1.854 4.412-.11.339-.182.69-.182 1.054 0 1.879 1.54 3.406 3.418 3.406a3.409 3.409 0 003.406-3.406c0-1.879-1.527-3.418-3.406-3.418-.836 0-1.6.315-2.194.824-.557-.751-.957-1.757-1.103-2.885h6.679c.17 1.77.848 3.334 1.842 4.413a3.45 3.45 0 00-.181 1.066c0 1.879 1.539 3.406 3.418 3.406a3.409 3.409 0 003.406-3.406c0-1.879-1.527-3.418-3.406-3.418-.837 0-1.6.315-2.194.824-.558-.74-.958-1.745-1.091-2.872h7.442c.025 0 .049.012.073.012.024 0 .049-.012.073-.012h14.048c.17 1.77.849 3.333 1.855 4.412-.11.339-.182.69-.182 1.054 0 1.879 1.54 3.406 3.418 3.406a3.41 3.41 0 003.406-3.406c0-1.879-1.527-3.418-3.406-3.418-.836 0-1.6.315-2.194.824-.557-.74-.957-1.745-1.103-2.872h6.679c.17 1.77.849 3.333 1.842 4.412a3.45 3.45 0 00-.181 1.066c0 1.88 1.539 3.406 3.418 3.406a3.41 3.41 0 003.406-3.406c0-1.879-1.527-3.418-3.406-3.418-.837 0-1.6.315-2.194.824-.558-.739-.958-1.745-1.091-2.872h7.442c.025 0 .049.012.073.012.024 0 .049-.012.073-.012h2.303a3.083 3.083 0 013.079 3.078v7.83H2.254v-7.842zm9.721 2.849c.558 0 1.103-.133 1.612-.352a1.629 1.629 0 01-1.624 1.515 1.642 1.642 0 01-1.636-1.527c.521.23 1.066.364 1.648.364zm-.763-1.928c.23-.12.485-.193.763-.193.28 0 .534.072.764.206a2.43 2.43 0 01-.764.145c-.266 0-.52-.06-.763-.158zm9.224 1.928c.558 0 1.103-.133 1.612-.352a1.629 1.629 0 01-1.624 1.515 1.642 1.642 0 01-1.637-1.527c.534.23 1.08.364 1.649.364zm-.764-1.928c.23-.12.485-.193.764-.193s.533.072.764.206a2.43 2.43 0 01-.764.145c-.255 0-.51-.06-.764-.158zm24.206 1.928c.558 0 1.103-.133 1.612-.352a1.629 1.629 0 01-1.624 1.515 1.642 1.642 0 01-1.636-1.527c.521.23 1.067.364 1.648.364zm-.763-1.928c.23-.12.484-.193.763-.193.28 0 .534.072.764.206a2.43 2.43 0 01-.764.145c-.266 0-.52-.06-.763-.158zm9.224 1.928c.558 0 1.103-.133 1.612-.352a1.629 1.629 0 01-1.624 1.515 1.642 1.642 0 01-1.637-1.527c.534.23 1.08.364 1.649.364zm-.764-1.928c.23-.12.485-.193.764-.193s.533.072.764.206a2.43 2.43 0 01-.764.145c-.255 0-.51-.06-.764-.158z" fill="#161A1F"/></svg>