<svg width="80" height="80" viewBox="0 0 80 80" fill="none" xmlns="http://www.w3.org/2000/svg"><g clip-path="url(#clip0_2402_2160)"><path d="M73.994 45.606l-6.097-11.322a2.484 2.484 0 00-2.182-1.297h-10.34c.534-1.115.97-2.29 1.285-3.49l3.685-.57a2.444 2.444 0 002.085-2.436v-4.013a2.454 2.454 0 00-2.085-2.436l-3.684-.57A20.111 20.111 0 0054.6 14.49l2.206-3.005c.727-.982.618-2.328-.255-3.2l-2.836-2.837a2.453 2.453 0 00-3.2-.242L47.509 7.4a19.738 19.738 0 00-4.982-2.061l-.57-3.685A2.444 2.444 0 0039.521-.43H35.51a2.444 2.444 0 00-2.436 2.085l-.57 3.685a20.11 20.11 0 00-4.982 2.06l-3.006-2.205a2.455 2.455 0 00-3.2.242L18.48 8.273a2.455 2.455 0 00-.243 3.2l2.194 3.006a19.923 19.923 0 00-2.06 4.982l-3.673.57a2.444 2.444 0 00-2.085 2.436v4.012c0 1.225.885 2.255 2.085 2.437l3.685.57a19.405 19.405 0 001.284 3.49H8.285c-.91 0-1.746.497-2.182 1.297L.006 45.606a1.898 1.898 0 00.036 1.866c.34.582.958.922 1.625.922h4.836v22.981a3.057 3.057 0 003.054 3.055H64.43a3.057 3.057 0 003.055-3.055v-22.97h4.836c.667 0 1.285-.339 1.624-.92a1.89 1.89 0 00.049-1.88zM19.666 28.684a.74.74 0 00-.593-.557l-4.158-.642a1.005 1.005 0 01-.86-.994v-4.013c0-.497.363-.92.86-.994l4.158-.642a.724.724 0 00.593-.557 18.153 18.153 0 012.255-5.443.712.712 0 00-.036-.812L19.4 10.636a1.012 1.012 0 01.097-1.31l2.836-2.835a.998.998 0 011.31-.097l3.393 2.484c.243.17.558.182.812.037a18.152 18.152 0 015.443-2.255.739.739 0 00.557-.594l.643-4.157c.072-.497.497-.86.994-.86h4.012c.497 0 .921.363.994.848l.642 4.157a.725.725 0 00.558.594 18.023 18.023 0 015.442 2.255c.255.157.57.145.812-.037l3.394-2.485a.997.997 0 011.31.097l2.836 2.837c.351.351.4.909.109 1.309l-2.485 3.394a.757.757 0 00-.036.812 18.151 18.151 0 012.254 5.442.74.74 0 00.594.558l4.158.642c.497.073.86.497.86.994v4.012c0 .497-.363.922-.86.994l-4.158.643a.724.724 0 00-.594.557 18.08 18.08 0 01-1.624 4.303h-6.63c2.012-2.266 3.248-5.236 3.248-8.509 0-7.079-5.758-12.836-12.836-12.836-7.08 0-12.837 5.757-12.837 12.836 0 3.26 1.237 6.243 3.249 8.51h-6.63c-.691-1.358-1.249-2.788-1.6-4.291zM37 32.987h-7.03a11.343 11.343 0 01-3.83-8.509c0-6.278 5.102-11.381 11.381-11.381S48.903 18.2 48.903 24.478c0 3.382-1.491 6.425-3.83 8.51H37zM1.667 46.94a.422.422 0 01-.376-.218.432.432 0 01-.012-.436L7.376 34.95c.181-.327.52-.533.897-.533h27.49l-6.606 12.279a.421.421 0 01-.387.23H7.97v-.17H6.515v.17H1.667v.012zM7.97 71.375v-22.97h20.824a1.86 1.86 0 001.66-.993L36.273 36.6v36.387H9.57a1.617 1.617 0 01-1.6-1.612zm58.06 0c0 .885-.715 1.6-1.6 1.6H37.727V36.6l5.818 10.812c.328.618.97.994 1.66.994H66.03v22.97zm6.667-24.642a.428.428 0 01-.376.218H45.206a.448.448 0 01-.388-.23l-6.606-12.279h27.503c.376 0 .715.206.897.533l6.097 11.322c.11.206.036.375-.012.436z" fill="#161A1F"/><path d="M59.364 68.77H44.406a.73.73 0 00-.727.727c0 .4.327.727.727.727h14.958a.73.73 0 00.727-.727.73.73 0 00-.727-.727zm-15.685-3.491c0 .4.327.727.727.727h14.958a.73.73 0 00.727-.727.73.73 0 00-.727-.727H44.406a.73.73 0 00-.727.727zM13.28 57.315c-.013-.012-.037-.024-.05-.048l-.048-.049a.7.7 0 00-.315-.157c-.049-.012-.11-.037-.158-.037-.06 0-.109.025-.157.037a.7.7 0 00-.315.157l-.049.049c-.012.012-.036.024-.048.048l-2.376 3.103a.73.73 0 00.133 1.019.73.73 0 001.018-.134l1.067-1.394v9.237c0 .4.327.727.727.727a.73.73 0 00.728-.727v-9.237l1.066 1.394a.76.76 0 00.582.291.701.701 0 00.436-.145.73.73 0 00.134-1.018l-2.376-3.116zm7.042 3.443c-.013-.025-.037-.037-.049-.049l-.036-.036a.606.606 0 00-.206-.133c-.012 0-.025-.013-.037-.013a.634.634 0 00-.254-.048.945.945 0 00-.255.048c-.012 0-.024.013-.036.013a.552.552 0 00-.194.133l-.085.085-2.376 3.103a.73.73 0 00.134 1.018.724.724 0 001.018-.145l1.066-1.394v5.793c0 .4.328.728.728.728a.73.73 0 00.727-.728V63.34l1.067 1.394a.73.73 0 001.018.133.73.73 0 00.133-1.018l-2.363-3.091z" fill="#C42539"/></g><defs><clipPath id="clip0_2402_2160"><path fill="#fff" d="M0 0h80v80H0z"/></clipPath></defs></svg>