<svg width="80" height="80" viewBox="0 0 80 80" fill="none" xmlns="http://www.w3.org/2000/svg"><g clip-path="url(#clip0_2402_2166)"><path d="M53.315 5.6h-.097c-.121-2.91-1.14-5.673-2.982-5.673-1.842 0-2.86 2.776-2.982 5.673h-4.12c-.122-2.91-1.14-5.673-2.983-5.673-1.842 0-2.86 2.776-2.982 5.673h-4.12c-.122-2.91-1.14-5.673-2.982-5.673-1.843 0-2.861 2.776-2.982 5.673h-4.122c-.12-2.91-1.139-5.673-2.981-5.673-1.843 0-2.86 2.776-2.982 5.673h-.097a7.361 7.361 0 00-7.358 7.357V35.54c0 .4.328.728.728.728A.73.73 0 0011 35.54V17.721h3.127v22.424c0 .4.327.728.727.728a.73.73 0 00.728-.728V17.721h39.042v31.915h-7.879a3.044 3.044 0 00-3.042 3.043v7.879h-7.71a.73.73 0 00-.727.727c0 .4.328.727.728.727h8.436a.833.833 0 00.291-.06.267.267 0 00.06-.049c.061-.036.122-.06.17-.11l10.922-10.92a.694.694 0 00.133-.194c.012-.012.012-.025.024-.037a.734.734 0 00.06-.29v-32.63h3.128v41.514a5.897 5.897 0 01-5.89 5.891h-12.74a.73.73 0 00-.727.728c0 .4.327.727.727.727h12.74a7.361 7.361 0 007.357-7.358V12.97c-.012-4.06-3.31-7.37-7.37-7.37zm-6.57 45.49h6.849l-8.425 8.425v-6.848c0-.873.704-1.576 1.576-1.576zm3.491-49.708c.51 0 1.406 1.588 1.528 4.218H48.72c.11-2.63 1.006-4.218 1.515-4.218zm-1.915 9.673c.485.812 1.127 1.333 1.915 1.333a.73.73 0 00.728-.727.73.73 0 00-.728-.728c-.242 0-.594-.388-.885-1.078.267-.134.57-.219.885-.219a2.03 2.03 0 012.025 2.025c0 1.115-.91 2.024-2.025 2.024a2.028 2.028 0 01-2.024-2.024c0-.219.048-.412.11-.606zm-8.17-9.673c.51 0 1.406 1.588 1.528 4.218h-3.043c.11-2.63 1.006-4.218 1.515-4.218zm-1.915 9.673c.485.812 1.128 1.333 1.915 1.333a.73.73 0 00.728-.727.73.73 0 00-.728-.728c-.242 0-.594-.388-.885-1.078.267-.134.57-.219.885-.219a2.03 2.03 0 012.025 2.025c0 1.115-.91 2.024-2.025 2.024a2.028 2.028 0 01-2.024-2.024c0-.219.049-.412.11-.606zm-8.17-9.673c.51 0 1.407 1.588 1.528 4.218H28.55c.11-2.63 1.006-4.218 1.516-4.218zm-1.915 9.673c.485.812 1.128 1.333 1.916 1.333a.73.73 0 00.727-.727.73.73 0 00-.727-.728c-.243 0-.594-.388-.885-1.078a1.98 1.98 0 01.885-.219c1.115 0 2.024.91 2.024 2.025 0 1.115-.91 2.024-2.024 2.024a2.028 2.028 0 01-2.025-2.024c0-.219.049-.412.11-.606zm-8.17-9.673c.51 0 1.407 1.588 1.528 4.218h-3.043c.11-2.63 1.007-4.218 1.516-4.218zm-1.915 9.673c.485.812 1.128 1.333 1.916 1.333a.73.73 0 00.727-.727.73.73 0 00-.727-.728c-.243 0-.594-.388-.885-1.078a1.98 1.98 0 01.885-.219c1.115 0 2.024.91 2.024 2.025 0 1.115-.91 2.024-2.024 2.024a2.028 2.028 0 01-2.025-2.024c0-.219.049-.412.11-.606zm41.152 4.8v.412H11V12.97a5.91 5.91 0 015.903-5.903h.121c.049.8.17 1.588.364 2.29a3.466 3.466 0 00-.885 2.304 3.487 3.487 0 003.479 3.478 3.487 3.487 0 003.479-3.478 3.487 3.487 0 00-3.48-3.48c-.46 0-.908.098-1.308.255a10.63 10.63 0 01-.182-1.381h8.63c.049.8.17 1.587.364 2.29a3.467 3.467 0 00-.885 2.303 3.487 3.487 0 003.479 3.48 3.487 3.487 0 003.478-3.48A3.487 3.487 0 0030.08 8.17c-.461 0-.91.097-1.31.254a10.665 10.665 0 01-.181-1.382h8.63c.048.8.17 1.588.364 2.291a3.467 3.467 0 00-.885 2.303 3.487 3.487 0 003.479 3.48 3.487 3.487 0 003.478-3.48 3.487 3.487 0 00-3.478-3.478c-.461 0-.91.097-1.31.254a10.665 10.665 0 01-.181-1.382h8.618c.048.8.17 1.588.364 2.291a3.466 3.466 0 00-.885 2.303 3.487 3.487 0 003.478 3.479 3.487 3.487 0 003.48-3.479 3.487 3.487 0 00-3.48-3.479c-.46 0-.909.097-1.309.255a10.646 10.646 0 01-.181-1.382h4.57a5.91 5.91 0 015.902 5.903v2.934h-.024z" fill="#161A1F"/><path d="M35.885 43.224a2.717 2.717 0 00-2.388.437l-7.673 5.77a2.699 2.699 0 00-1.042 2.678 2.718 2.718 0 001.927 2.121l11.127 3.188a2.712 2.712 0 002.764-.776 2.712 2.712 0 00.533-2.824l-3.454-8.957a2.638 2.638 0 00-1.794-1.637zm3.636 12.437a1.245 1.245 0 01-1.285.363L27.11 52.836a1.24 1.24 0 01-.897-.994 1.275 1.275 0 01.485-1.248l7.673-5.77c.218-.17.484-.254.763-.254a1.253 1.253 0 011.188.812l3.455 8.957c.17.461.084.958-.255 1.322zM3.485 34.339a1.827 1.827 0 00-2-.4 1.81 1.81 0 00-1.128 1.697v38.606c0 1.007.825 1.83 1.83 1.83h38.595c.74 0 1.406-.448 1.697-1.127.29-.69.133-1.478-.4-2L3.485 34.34zm37.648 40.049a.356.356 0 01-.351.23h-3.734V73.6a.73.73 0 00-.727-.727.73.73 0 00-.727.727v1.018h-3.758v-1.673a.73.73 0 00-.727-.727.73.73 0 00-.727.727v1.673h-3.746v-.69a.73.73 0 00-.727-.728.73.73 0 00-.727.727v.691h-3.758v-1.345a.73.73 0 00-.727-.728.73.73 0 00-.727.728v1.345h-3.758V73.6a.73.73 0 00-.727-.727.73.73 0 00-.728.727v1.018H11v-1.673a.73.73 0 00-.727-.727.73.73 0 00-.728.727v1.673H5.788v-.364a.73.73 0 00-.728-.727.73.73 0 00-.727.727v.364H2.188a.378.378 0 01-.376-.376v-2.86h1.31a.73.73 0 00.726-.728.73.73 0 00-.727-.727H1.812v-3.745h2.073a.73.73 0 00.727-.728.73.73 0 00-.727-.727H1.812v-3.745h1.31a.73.73 0 00.726-.727.73.73 0 00-.727-.728H1.812v-3.745h2.073a.73.73 0 00.727-.727.73.73 0 00-.727-.728H1.812v-3.745h1.31a.73.73 0 00.726-.727.73.73 0 00-.727-.728H1.812v-3.745h2.073a.73.73 0 00.727-.727.73.73 0 00-.727-.728H1.812v-3.745h1.31a.73.73 0 00.726-.727.73.73 0 00-.727-.728H1.812v-3.042c0-.23.158-.315.23-.352a.453.453 0 01.146-.024c.072 0 .17.024.254.11l38.594 38.593c.182.121.121.303.097.376z" fill="#161A1F"/><path d="M49.849 35.515a2.163 2.163 0 000-3.078l-7.346-7.346c-.824-.824-2.255-.824-3.079 0l-1.879 1.879a10.754 10.754 0 00-9.757-6.242c-5.927 0-10.764 4.824-10.764 10.763 0 5.927 4.825 10.764 10.764 10.764 2.945 0 5.721-1.2 7.745-3.297l3.891 3.903a2.166 2.166 0 003.08 0l7.345-7.346zM27.788 40.8c-5.127 0-9.297-4.17-9.297-9.297 0-5.127 4.17-9.297 9.297-9.297a9.268 9.268 0 018.642 5.891l-4.35 4.353a2.18 2.18 0 000 3.079l2.4 2.4a9.228 9.228 0 01-6.691 2.872zm12.667 1.03l-7.334-7.345a.708.708 0 010-1.006l7.346-7.345a.714.714 0 01.509-.207c.194 0 .376.073.509.207l7.345 7.345a.715.715 0 01.206.51.714.714 0 01-.206.508l-7.345 7.346a.776.776 0 01-1.03-.012zM10.66 50.51a2.255 2.255 0 00-2.52-.498 2.28 2.28 0 00-1.431 2.146v15.26a2.323 2.323 0 002.315 2.316h15.26a2.28 2.28 0 002.146-1.43 2.288 2.288 0 00-.497-2.522L10.661 50.509zm14.425 17.224a.834.834 0 01-.788.533H9.024a.864.864 0 01-.86-.86V52.145c0-.534.4-.74.533-.788.06-.024.182-.073.34-.073.181 0 .387.06.593.255L24.89 66.8a.853.853 0 01.195.934zm48.557-51.297a2.271 2.271 0 00-2.266-2.267H65.06a2.271 2.271 0 00-2.266 2.267v42.97c0 .024.012.048.012.072 0 .049.012.097.024.145a.361.361 0 00.049.122c.012.024.012.036.024.06l4.703 7.31a.74.74 0 00.618.339.71.71 0 00.618-.34l4.703-7.309a.16.16 0 00.025-.072c.012-.025.024-.061.036-.085a.487.487 0 00.036-.182c0-.012.012-.036.012-.049V16.437h-.012zm-9.406 6.63h3.237v34.74l-.449-.413c-.654-.582-1.648-.57-2.315 0l-.473.412v-34.74zm4.703 0h3.237v34.727l-.449-.4a1.753 1.753 0 00-2.315 0l-.46.412v-34.74h-.013zm-4.69-6.63c0-.449.363-.813.812-.813h6.315c.448 0 .812.364.812.813V21.6h-7.94v-5.163zm3.963 48.945l-1.2-1.867h2.4l-1.2 1.867zm2.133-3.333H66.08l-1.612-2.51 1.2-1.054a.295.295 0 01.387 0l.994.873a1.74 1.74 0 001.128.424h.048a1.75 1.75 0 001.14-.424l.993-.873a.295.295 0 01.388 0l1.2 1.055-1.6 2.509z" fill="#C42539"/></g><defs><clipPath id="clip0_2402_2166"><path fill="#fff" d="M0 0h80v80H0z"/></clipPath></defs></svg>